<svg width="65" height="42" viewBox="0 0 65 42" fill="none" xmlns="http://www.w3.org/2000/svg">
<rect y="0.359375" width="65" height="41.0112" rx="8" fill="#010203"/>
<path d="M43.8743 11.9646C43.8162 11.7393 43.744 11.5297 43.6647 11.324C43.5438 11.0104 43.5748 10.6577 43.7627 10.3791L44.6352 9.08508C44.901 8.69095 44.8526 8.16419 44.5194 7.82513L42.9847 6.26333C42.6508 5.92355 42.1236 5.86645 41.7247 6.12688L40.4291 6.9728C40.136 7.16413 39.7662 7.18309 39.4396 7.05743C39.0404 6.90386 38.6281 6.78784 38.2027 6.70939C37.8632 6.64678 37.5621 6.44094 37.4116 6.13029L36.7417 4.74789C36.5341 4.31935 36.053 4.09668 35.592 4.21566L33.4699 4.76322C33.0088 4.8822 32.6956 5.30981 32.7212 5.78532L32.8039 7.31923C32.8224 7.66392 32.6585 7.98977 32.3917 8.20881C32.0574 8.48331 31.7527 8.78433 31.4776 9.11189C31.2526 9.37989 30.9197 9.54223 30.5707 9.51658L29.0275 9.40317C28.5524 9.36826 28.1187 9.67331 27.9909 10.1322L27.4035 12.2416C27.276 12.6995 27.4885 13.1839 27.9117 13.4003L29.3014 14.1105C29.6007 14.2635 29.7984 14.5572 29.8444 14.8901C29.8745 15.1085 29.9128 15.3268 29.9709 15.5521C30.0291 15.7774 30.1012 15.987 30.1805 16.1927C30.3014 16.5063 30.2704 16.859 30.0825 17.1376L29.21 18.4316C28.9442 18.8258 28.9927 19.3525 29.3258 19.6916L30.8605 21.2534C31.1944 21.5932 31.7216 21.6503 32.1205 21.3898L33.4161 20.5439C33.7092 20.3526 34.079 20.3336 34.4056 20.4593C34.8048 20.6129 35.2171 20.7289 35.6425 20.8073C35.982 20.8699 36.2831 21.0758 36.4337 21.3864L37.1035 22.7688C37.3111 23.1974 37.7922 23.42 38.2533 23.3011L40.3753 22.7535C40.8364 22.6345 41.1496 22.2069 41.124 21.7314L41.0414 20.1975C41.0228 19.8528 41.1867 19.527 41.4535 19.3079C41.7878 19.0334 42.0925 18.7324 42.3676 18.4048C42.5927 18.1368 42.9255 17.9745 43.2745 18.0001L44.8177 18.1136C45.2928 18.1485 45.7265 17.8434 45.8543 17.3845L46.4417 15.2751C46.5692 14.8172 46.3568 14.3328 45.9335 14.1164L44.5438 13.4062C44.2445 13.2532 44.0468 12.9596 44.0008 12.6266C43.9707 12.4083 43.9324 12.1899 43.8743 11.9646ZM37.8793 17.4659C35.8401 17.9921 33.7412 16.7542 33.215 14.715C32.6889 12.6759 33.9268 10.577 35.9659 10.0508C38.0051 9.52462 40.104 10.7625 40.6302 12.8017C41.1563 14.8409 39.9184 16.9398 37.8793 17.4659Z" fill="white"/>
<path d="M56.6376 12.0064C56.677 11.8829 56.708 11.7619 56.7344 11.6413C56.8063 11.313 57.0166 11.0301 57.324 10.8941L58.099 10.5513C58.5337 10.359 58.773 9.88722 58.6713 9.42286L58.4031 8.19798C58.3012 7.73264 57.8852 7.40378 57.4089 7.41204L56.5784 7.42645C56.2285 7.43253 55.9066 7.25051 55.6895 6.97597C55.5455 6.79383 55.3894 6.62138 55.2211 6.45862C54.973 6.21863 54.8262 5.8853 54.864 5.54219L54.9544 4.72275C55.0066 4.24942 54.7178 3.80494 54.2641 3.66034L53.0683 3.27924C52.6146 3.13464 52.1219 3.33003 51.8906 3.74628L51.4901 4.46689C51.3224 4.76863 51.0098 4.95551 50.6685 5.00767C50.4371 5.04304 50.21 5.09334 49.9872 5.15857C49.6513 5.25689 49.2835 5.21908 49.0016 5.01165L48.3326 4.51933C47.9489 4.23698 47.4193 4.26448 47.0669 4.58503L46.1394 5.42881C45.7878 5.7487 45.7099 6.27191 45.9532 6.68031L46.3869 7.40838C46.5589 7.69712 46.5667 8.04956 46.4354 8.35892C46.3872 8.47253 46.3424 8.5892 46.3031 8.71263C46.2638 8.83606 46.2327 8.9571 46.2063 9.07766C46.1344 9.40597 45.9241 9.6889 45.6168 9.82486L44.8418 10.1677C44.407 10.36 44.1678 10.8318 44.2694 11.2961L44.5377 12.521C44.6396 12.9863 45.0556 13.3152 45.5319 13.3069L46.3624 13.2925C46.7123 13.2865 47.0342 13.4685 47.2512 13.743C47.3952 13.9252 47.5514 14.0976 47.7196 14.2604C47.9677 14.5004 48.1146 14.8337 48.0767 15.1768L47.9864 15.9962C47.9342 16.4696 48.223 16.914 48.6767 17.0586L49.8724 17.4397C50.3261 17.5843 50.8189 17.389 51.0502 16.9727L51.4506 16.2521C51.6183 15.9504 51.931 15.7635 52.2722 15.7113C52.5036 15.6759 52.7307 15.6256 52.9536 15.5604C53.2894 15.4621 53.6573 15.4999 53.9392 15.7073L54.6082 16.1997C54.9919 16.482 55.5214 16.4545 55.8738 16.134L56.8013 15.2902C57.153 14.9703 57.2308 14.4471 56.9875 14.0387L56.5538 13.3106C56.3818 13.0219 56.374 12.6694 56.5053 12.3601C56.5536 12.2465 56.5983 12.1298 56.6376 12.0064ZM50.592 13.1154C49.0763 12.6323 48.2314 10.9969 48.7145 9.48117C49.1976 7.96543 50.833 7.12053 52.3487 7.60361C53.8644 8.08669 54.7093 9.72209 54.2263 11.2378C53.7432 12.7536 52.1078 13.5985 50.592 13.1154Z" fill="white"/>
<path d="M5.05263 35.3374V26.2374H9.18663C10.1746 26.2374 11.0456 26.4281 11.7996 26.8094C12.5536 27.1821 13.143 27.7064 13.5676 28.3824C13.9923 29.0584 14.2046 29.8601 14.2046 30.7874C14.2046 31.7061 13.9923 32.5077 13.5676 33.1924C13.143 33.8684 12.5536 34.3971 11.7996 34.7784C11.0456 35.1511 10.1746 35.3374 9.18663 35.3374H5.05263ZM7.15863 33.6084H9.08263C9.6893 33.6084 10.2136 33.4957 10.6556 33.2704C11.1063 33.0364 11.453 32.7071 11.6956 32.2824C11.947 31.8577 12.0726 31.3594 12.0726 30.7874C12.0726 30.2067 11.947 29.7084 11.6956 29.2924C11.453 28.8677 11.1063 28.5427 10.6556 28.3174C10.2136 28.0834 9.6893 27.9664 9.08263 27.9664H7.15863V33.6084ZM19.5629 35.4934C18.8435 35.4934 18.1762 35.3764 17.5609 35.1424C16.9542 34.9084 16.4255 34.5791 15.9749 34.1544C15.5329 33.7297 15.1862 33.2314 14.9349 32.6594C14.6922 32.0874 14.5709 31.4634 14.5709 30.7874C14.5709 30.1114 14.6922 29.4874 14.9349 28.9154C15.1862 28.3434 15.5372 27.8451 15.9879 27.4204C16.4385 26.9957 16.9672 26.6664 17.5739 26.4324C18.1805 26.1984 18.8392 26.0814 19.5499 26.0814C20.2692 26.0814 20.9279 26.1984 21.5259 26.4324C22.1325 26.6664 22.6569 26.9957 23.0989 27.4204C23.5495 27.8451 23.9005 28.3434 24.1519 28.9154C24.4032 29.4787 24.5289 30.1027 24.5289 30.7874C24.5289 31.4634 24.4032 32.0917 24.1519 32.6724C23.9005 33.2444 23.5495 33.7427 23.0989 34.1674C22.6569 34.5834 22.1325 34.9084 21.5259 35.1424C20.9279 35.3764 20.2735 35.4934 19.5629 35.4934ZM19.5499 33.6994C19.9572 33.6994 20.3299 33.6301 20.6679 33.4914C21.0145 33.3527 21.3179 33.1534 21.5779 32.8934C21.8379 32.6334 22.0372 32.3257 22.1759 31.9704C22.3232 31.6151 22.3969 31.2207 22.3969 30.7874C22.3969 30.3541 22.3232 29.9597 22.1759 29.6044C22.0372 29.2491 21.8379 28.9414 21.5779 28.6814C21.3265 28.4214 21.0275 28.2221 20.6809 28.0834C20.3342 27.9447 19.9572 27.8754 19.5499 27.8754C19.1425 27.8754 18.7655 27.9447 18.4189 28.0834C18.0809 28.2221 17.7819 28.4214 17.5219 28.6814C17.2619 28.9414 17.0582 29.2491 16.9109 29.6044C16.7722 29.9597 16.7029 30.3541 16.7029 30.7874C16.7029 31.2121 16.7722 31.6064 16.9109 31.9704C17.0582 32.3257 17.2575 32.6334 17.5089 32.8934C17.7689 33.1534 18.0722 33.3527 18.4189 33.4914C18.7655 33.6301 19.1425 33.6994 19.5499 33.6994ZM29.8166 35.4934C29.1146 35.4934 28.4603 35.3807 27.8536 35.1554C27.2556 34.9214 26.7356 34.5921 26.2936 34.1674C25.8516 33.7427 25.505 33.2444 25.2536 32.6724C25.011 32.1004 24.8896 31.4721 24.8896 30.7874C24.8896 30.1027 25.011 29.4744 25.2536 28.9024C25.505 28.3304 25.8516 27.8321 26.2936 27.4074C26.7443 26.9827 27.2686 26.6577 27.8666 26.4324C28.4646 26.1984 29.119 26.0814 29.8296 26.0814C30.6183 26.0814 31.329 26.2201 31.9616 26.4974C32.603 26.7661 33.1403 27.1647 33.5736 27.6934L32.2216 28.9414C31.9096 28.5861 31.563 28.3217 31.1816 28.1484C30.8003 27.9664 30.3843 27.8754 29.9336 27.8754C29.509 27.8754 29.119 27.9447 28.7636 28.0834C28.4083 28.2221 28.1006 28.4214 27.8406 28.6814C27.5806 28.9414 27.377 29.2491 27.2296 29.6044C27.091 29.9597 27.0216 30.3541 27.0216 30.7874C27.0216 31.2207 27.091 31.6151 27.2296 31.9704C27.377 32.3257 27.5806 32.6334 27.8406 32.8934C28.1006 33.1534 28.4083 33.3527 28.7636 33.4914C29.119 33.6301 29.509 33.6994 29.9336 33.6994C30.3843 33.6994 30.8003 33.6127 31.1816 33.4394C31.563 33.2574 31.9096 32.9844 32.2216 32.6204L33.5736 33.8684C33.1403 34.3971 32.603 34.8001 31.9616 35.0774C31.329 35.3547 30.614 35.4934 29.8166 35.4934ZM38.5494 35.4934C37.83 35.4934 37.167 35.3807 36.5604 35.1554C35.9624 34.9214 35.438 34.5921 34.9874 34.1674C34.5454 33.7427 34.1987 33.2444 33.9474 32.6724C33.7047 32.1004 33.5834 31.4721 33.5834 30.7874C33.5834 30.1027 33.7047 29.4744 33.9474 28.9024C34.1987 28.3304 34.5497 27.8321 35.0004 27.4074C35.451 26.9827 35.9797 26.6577 36.5864 26.4324C37.193 26.1984 37.8604 26.0814 38.5884 26.0814C39.3944 26.0814 40.118 26.2157 40.7594 26.4844C41.4094 26.7531 41.9554 27.1431 42.3974 27.6544L41.0454 28.9024C40.716 28.5557 40.3564 28.3001 39.9664 28.1354C39.5764 27.9621 39.1517 27.8754 38.6924 27.8754C38.2504 27.8754 37.8474 27.9447 37.4834 28.0834C37.1194 28.2221 36.803 28.4214 36.5344 28.6814C36.2744 28.9414 36.0707 29.2491 35.9234 29.6044C35.7847 29.9597 35.7154 30.3541 35.7154 30.7874C35.7154 31.2121 35.7847 31.6021 35.9234 31.9574C36.0707 32.3127 36.2744 32.6247 36.5344 32.8934C36.803 33.1534 37.115 33.3527 37.4704 33.4914C37.8344 33.6301 38.233 33.6994 38.6664 33.6994C39.0824 33.6994 39.4854 33.6344 39.8754 33.5044C40.274 33.3657 40.6597 33.1361 41.0324 32.8154L42.2284 34.3364C41.7344 34.7091 41.158 34.9951 40.4994 35.1944C39.8494 35.3937 39.1994 35.4934 38.5494 35.4934ZM40.3044 34.0634V30.6444H42.2284V34.3364L40.3044 34.0634ZM45.4717 29.9034H49.8527V31.5414H45.4717V29.9034ZM45.6277 33.6474H50.5807V35.3374H43.5347V26.2374H50.4117V27.9274H45.6277V33.6474ZM51.6063 35.3374V26.2374H53.3483L58.7173 32.7894H57.8723V26.2374H59.9523V35.3374H58.2233L52.8413 28.7854H53.6863V35.3374H51.6063Z" fill="white"/>
</svg>
