<svg width="1201" height="439" viewBox="0 0 1201 439" fill="none" xmlns="http://www.w3.org/2000/svg">
<g filter="url(#filter0_d_1329_141)">
<rect x="498.996" y="132.503" width="215.551" height="136" rx="15" fill="#237CE4"/>
<path d="M649.753 171.066C649.418 169.766 648.954 168.609 648.462 167.425C648.333 167.115 648.368 166.76 648.556 166.482L653.72 158.823C653.985 158.429 653.937 157.903 653.604 157.563L645.011 148.818C644.677 148.479 644.15 148.422 643.751 148.682L635.996 153.745C635.703 153.936 635.332 153.959 635.013 153.814C632.704 152.766 630.269 152.079 627.708 151.752C627.366 151.708 627.065 151.499 626.915 151.188L622.905 142.912C622.697 142.484 622.216 142.261 621.755 142.38L609.873 145.446C609.412 145.565 609.099 145.992 609.124 146.468L609.619 155.651C609.638 155.996 609.477 156.324 609.198 156.528C607.115 158.053 605.316 159.833 603.803 161.868C603.594 162.149 603.258 162.308 602.909 162.282L593.673 161.604C593.198 161.569 592.764 161.874 592.636 162.333L589.347 174.144C589.22 174.602 589.432 175.086 589.856 175.302L598.08 179.506C598.379 179.659 598.582 179.952 598.619 180.286C598.762 181.56 598.915 182.797 599.25 184.098C599.586 185.398 600.05 186.554 600.542 187.739C600.671 188.049 600.636 188.403 600.448 188.682L595.284 196.34C595.018 196.734 595.067 197.261 595.4 197.6L603.993 206.345C604.327 206.685 604.854 206.742 605.253 206.482L613.007 201.419C613.3 201.227 613.672 201.204 613.99 201.349C616.3 202.397 618.735 203.085 621.295 203.412C621.638 203.455 621.938 203.665 622.089 203.976L626.099 212.251C626.306 212.68 626.787 212.903 627.248 212.784L639.13 209.718C639.592 209.599 639.905 209.171 639.879 208.696L639.384 199.513C639.366 199.168 639.527 198.839 639.806 198.635C641.889 197.11 643.687 195.331 645.201 193.296C645.41 193.015 645.746 192.855 646.095 192.881L655.331 193.56C655.806 193.595 656.24 193.29 656.367 192.831L659.656 181.02C659.784 180.562 659.571 180.077 659.148 179.861L650.923 175.658C650.624 175.505 650.422 175.211 650.385 174.877C650.242 173.603 650.089 172.366 649.753 171.066ZM627.977 191.049C620.57 192.961 612.946 188.464 611.034 181.057C609.123 173.65 613.62 166.026 621.027 164.114C628.434 162.203 636.058 166.7 637.969 174.107C639.881 181.514 635.384 189.138 627.977 191.049Z" fill="white"/>
<path d="M696.117 171.217C696.411 170.294 696.577 169.408 696.732 168.499C696.788 168.168 697.006 167.886 697.314 167.75L703.392 165.062C703.826 164.869 704.066 164.398 703.964 163.933L702.068 155.277C701.966 154.812 701.55 154.483 701.074 154.491L694.417 154.607C694.068 154.613 693.742 154.434 693.547 154.144C692.531 152.629 691.31 151.277 689.884 150.09C689.619 149.869 689.476 149.532 689.514 149.188L690.239 142.617C690.291 142.144 690.002 141.7 689.548 141.555L681.098 138.862C680.644 138.717 680.151 138.913 679.92 139.329L676.709 145.107C676.541 145.409 676.229 145.601 675.885 145.628C674.035 145.772 672.258 146.167 670.553 146.815C670.225 146.939 669.856 146.896 669.574 146.689L664.212 142.743C663.829 142.46 663.299 142.488 662.947 142.808L656.392 148.772C656.04 149.091 655.962 149.615 656.206 150.023L659.607 155.733C659.779 156.021 659.794 156.377 659.648 156.68C659.248 157.511 658.871 158.33 658.577 159.253C658.283 160.175 658.117 161.061 657.962 161.971C657.905 162.302 657.687 162.584 657.38 162.72L651.302 165.408C650.867 165.6 650.628 166.072 650.73 166.537L652.625 175.193C652.727 175.658 653.143 175.987 653.62 175.979L660.276 175.863C660.626 175.857 660.952 176.036 661.147 176.326C662.163 177.841 663.384 179.193 664.809 180.38C665.075 180.601 665.218 180.938 665.18 181.281L664.455 187.852C664.403 188.326 664.692 188.77 665.145 188.915L673.596 191.608C674.05 191.753 674.542 191.557 674.774 191.141L677.985 185.362C678.153 185.061 678.464 184.869 678.808 184.842C680.658 184.698 682.436 184.302 684.141 183.655C684.468 183.53 684.837 183.574 685.119 183.781L690.481 187.727C690.865 188.009 691.395 187.982 691.747 187.661L698.302 181.698C698.654 181.378 698.731 180.855 698.488 180.447L695.087 174.737C694.915 174.448 694.9 174.093 695.046 173.79C695.446 172.959 695.823 172.14 696.117 171.217ZM674.156 175.245C668.651 173.491 665.581 167.55 667.336 162.044C669.091 156.539 675.031 153.47 680.537 155.224C686.043 156.979 689.112 162.92 687.357 168.425C685.603 173.931 679.662 177 674.156 175.245Z" fill="white"/>
<path d="M513.873 248.334V217.534H527.865C531.209 217.534 534.157 218.179 536.709 219.47C539.261 220.731 541.255 222.506 542.693 224.794C544.13 227.082 544.849 229.795 544.849 232.934C544.849 236.043 544.13 238.757 542.693 241.074C541.255 243.362 539.261 245.151 536.709 246.442C534.157 247.703 531.209 248.334 527.865 248.334H513.873ZM521.001 242.482H527.513C529.566 242.482 531.341 242.101 532.837 241.338C534.362 240.546 535.535 239.431 536.357 237.994C537.207 236.557 537.633 234.87 537.633 232.934C537.633 230.969 537.207 229.282 536.357 227.874C535.535 226.437 534.362 225.337 532.837 224.574C531.341 223.782 529.566 223.386 527.513 223.386H521.001V242.482ZM562.984 248.862C560.55 248.862 558.291 248.466 556.208 247.674C554.155 246.882 552.366 245.767 550.84 244.33C549.344 242.893 548.171 241.206 547.32 239.27C546.499 237.334 546.088 235.222 546.088 232.934C546.088 230.646 546.499 228.534 547.32 226.598C548.171 224.662 549.359 222.975 550.884 221.538C552.41 220.101 554.199 218.986 556.252 218.194C558.306 217.402 560.535 217.006 562.94 217.006C565.375 217.006 567.604 217.402 569.628 218.194C571.682 218.986 573.456 220.101 574.952 221.538C576.478 222.975 577.666 224.662 578.516 226.598C579.367 228.505 579.792 230.617 579.792 232.934C579.792 235.222 579.367 237.349 578.516 239.314C577.666 241.25 576.478 242.937 574.952 244.374C573.456 245.782 571.682 246.882 569.628 247.674C567.604 248.466 565.39 248.862 562.984 248.862ZM562.94 242.79C564.319 242.79 565.58 242.555 566.724 242.086C567.898 241.617 568.924 240.942 569.804 240.062C570.684 239.182 571.359 238.141 571.828 236.938C572.327 235.735 572.576 234.401 572.576 232.934C572.576 231.467 572.327 230.133 571.828 228.93C571.359 227.727 570.684 226.686 569.804 225.806C568.954 224.926 567.942 224.251 566.768 223.782C565.595 223.313 564.319 223.078 562.94 223.078C561.562 223.078 560.286 223.313 559.112 223.782C557.968 224.251 556.956 224.926 556.076 225.806C555.196 226.686 554.507 227.727 554.008 228.93C553.539 230.133 553.304 231.467 553.304 232.934C553.304 234.371 553.539 235.706 554.008 236.938C554.507 238.141 555.182 239.182 556.032 240.062C556.912 240.942 557.939 241.617 559.112 242.086C560.286 242.555 561.562 242.79 562.94 242.79ZM597.689 248.862C595.313 248.862 593.099 248.481 591.045 247.718C589.021 246.926 587.261 245.811 585.765 244.374C584.269 242.937 583.096 241.25 582.245 239.314C581.424 237.378 581.013 235.251 581.013 232.934C581.013 230.617 581.424 228.49 582.245 226.554C583.096 224.618 584.269 222.931 585.765 221.494C587.291 220.057 589.065 218.957 591.089 218.194C593.113 217.402 595.328 217.006 597.733 217.006C600.403 217.006 602.808 217.475 604.949 218.414C607.12 219.323 608.939 220.673 610.405 222.462L605.829 226.686C604.773 225.483 603.6 224.589 602.309 224.002C601.019 223.386 599.611 223.078 598.085 223.078C596.648 223.078 595.328 223.313 594.125 223.782C592.923 224.251 591.881 224.926 591.001 225.806C590.121 226.686 589.432 227.727 588.933 228.93C588.464 230.133 588.229 231.467 588.229 232.934C588.229 234.401 588.464 235.735 588.933 236.938C589.432 238.141 590.121 239.182 591.001 240.062C591.881 240.942 592.923 241.617 594.125 242.086C595.328 242.555 596.648 242.79 598.085 242.79C599.611 242.79 601.019 242.497 602.309 241.91C603.6 241.294 604.773 240.37 605.829 239.138L610.405 243.362C608.939 245.151 607.12 246.515 604.949 247.454C602.808 248.393 600.388 248.862 597.689 248.862ZM627.246 248.862C624.812 248.862 622.568 248.481 620.514 247.718C618.49 246.926 616.716 245.811 615.19 244.374C613.694 242.937 612.521 241.25 611.67 239.314C610.849 237.378 610.438 235.251 610.438 232.934C610.438 230.617 610.849 228.49 611.67 226.554C612.521 224.618 613.709 222.931 615.234 221.494C616.76 220.057 618.549 218.957 620.602 218.194C622.656 217.402 624.914 217.006 627.378 217.006C630.106 217.006 632.556 217.461 634.726 218.37C636.926 219.279 638.774 220.599 640.27 222.33L635.694 226.554C634.58 225.381 633.362 224.515 632.042 223.958C630.722 223.371 629.285 223.078 627.73 223.078C626.234 223.078 624.87 223.313 623.638 223.782C622.406 224.251 621.336 224.926 620.426 225.806C619.546 226.686 618.857 227.727 618.358 228.93C617.889 230.133 617.654 231.467 617.654 232.934C617.654 234.371 617.889 235.691 618.358 236.894C618.857 238.097 619.546 239.153 620.426 240.062C621.336 240.942 622.392 241.617 623.594 242.086C624.826 242.555 626.176 242.79 627.642 242.79C629.05 242.79 630.414 242.57 631.734 242.13C633.084 241.661 634.389 240.883 635.65 239.798L639.698 244.946C638.026 246.207 636.076 247.175 633.846 247.85C631.646 248.525 629.446 248.862 627.246 248.862ZM633.186 244.022V232.45H639.698V244.946L633.186 244.022ZM650.675 229.942H665.503V235.486H650.675V229.942ZM651.203 242.614H667.967V248.334H644.119V217.534H667.396V223.254H651.203V242.614ZM671.439 248.334V217.534H677.335L695.507 239.71H692.647V217.534H699.687V248.334H693.835L675.619 226.158H678.479V248.334H671.439Z" fill="white"/>
</g>
<g filter="url(#filter1_d_1329_141)">
<path d="M875.383 127.571H946.415L975.994 157.879V257.569H875.383V127.571Z" fill="#F2F2F2"/>
</g>
<g filter="url(#filter2_d_1329_141)">
<path d="M946.744 127.571L975.994 157.709H946.744V127.571Z" fill="#F9F9F9"/>
</g>
<rect x="875.383" y="218.917" width="100.611" height="38.6526" fill="#4E4E4E"/>
<path d="M899.696 227.917H903.596V248.917H899.696V227.917ZM888.836 248.917H884.936V227.917H888.836V248.917ZM899.996 239.917H888.506V236.587H899.996V239.917ZM912.883 248.917V231.217H905.923V227.917H923.743V231.217H916.783V248.917H912.883ZM926.07 248.917V227.917H929.28L938.46 243.247H936.78L945.81 227.917H949.02L949.05 248.917H945.36L945.33 233.707H946.11L938.43 246.517H936.69L928.89 233.707H929.79V248.917H926.07ZM954.122 248.917V227.917H958.022V245.617H969.002V248.917H954.122Z" fill="white"/>
<g filter="url(#filter3_d_1329_141)">
<path d="M1017.47 268.436H1088.5L1118.08 298.744V398.433H1017.47V268.436Z" fill="#F2F2F2"/>
</g>
<g filter="url(#filter4_d_1329_141)">
<path d="M1088.83 268.436L1118.08 298.573H1088.83V268.436Z" fill="#F9F9F9"/>
</g>
<rect x="1017.47" y="359.781" width="100.611" height="38.6526" fill="#7E4040"/>
<path d="M1038.51 389.781V368.781H1047.15C1049.01 368.781 1050.6 369.081 1051.92 369.681C1053.26 370.281 1054.29 371.141 1055.01 372.261C1055.73 373.381 1056.09 374.711 1056.09 376.251C1056.09 377.791 1055.73 379.121 1055.01 380.241C1054.29 381.361 1053.26 382.221 1051.92 382.821C1050.6 383.421 1049.01 383.721 1047.15 383.721H1040.67L1042.41 381.891V389.781H1038.51ZM1042.41 382.311L1040.67 380.421H1046.97C1048.69 380.421 1049.98 380.061 1050.84 379.341C1051.72 378.601 1052.16 377.571 1052.16 376.251C1052.16 374.911 1051.72 373.881 1050.84 373.161C1049.98 372.441 1048.69 372.081 1046.97 372.081H1040.67L1042.41 370.161V382.311ZM1059.39 389.781V368.781H1068.57C1070.85 368.781 1072.85 369.221 1074.57 370.101C1076.29 370.981 1077.63 372.201 1078.59 373.761C1079.55 375.321 1080.03 377.161 1080.03 379.281C1080.03 381.381 1079.55 383.221 1078.59 384.801C1077.63 386.361 1076.29 387.581 1074.57 388.461C1072.85 389.341 1070.85 389.781 1068.57 389.781H1059.39ZM1063.29 386.481H1068.39C1069.97 386.481 1071.33 386.181 1072.47 385.581C1073.63 384.981 1074.52 384.141 1075.14 383.061C1075.78 381.981 1076.1 380.721 1076.1 379.281C1076.1 377.821 1075.78 376.561 1075.14 375.501C1074.52 374.421 1073.63 373.581 1072.47 372.981C1071.33 372.381 1069.97 372.081 1068.39 372.081H1063.29V386.481ZM1087.14 378.441H1097.61V381.741H1087.14V378.441ZM1087.47 389.781H1083.57V368.781H1098.9V372.051H1087.47V389.781Z" fill="white"/>
<line x1="1028.6" y1="284.414" x2="1053.6" y2="284.414" stroke="#939393" stroke-width="2.5"/>
<line x1="1028.6" y1="304.268" x2="1053.6" y2="304.268" stroke="#939393" stroke-width="2.5"/>
<line x1="1028.6" y1="324.123" x2="1103.6" y2="324.123" stroke="#939393" stroke-width="2.5"/>
<line x1="1028.6" y1="343.978" x2="1103.6" y2="343.978" stroke="#939393" stroke-width="2.5"/>
<g filter="url(#filter5_d_1329_141)">
<path d="M237.51 27.7114H308.542L338.121 58.0194V157.709H237.51V27.7114Z" fill="#F2F2F2"/>
</g>
<g filter="url(#filter6_d_1329_141)">
<path d="M308.871 27.7114L338.121 57.8488H308.871V27.7114Z" fill="#F9F9F9"/>
</g>
<rect x="237.51" y="119.057" width="100.611" height="38.6526" fill="#010203"/>
<path d="M267.956 149.057V131.357H260.996V128.057H278.816V131.357H271.856V149.057H267.956ZM277.685 149.057L286.535 136.877V139.817L278.105 128.057H282.515L288.785 136.757L286.985 136.787L293.195 128.057H297.425L289.055 139.607V136.787L297.965 149.057H293.465L286.865 139.817H288.635L282.125 149.057H277.685ZM303.788 149.057V131.357H296.828V128.057H314.648V131.357H307.688V149.057H303.788Z" fill="white"/>
<line x1="248.642" y1="43.6899" x2="273.642" y2="43.6899" stroke="#939393" stroke-width="2.5"/>
<line x1="248.642" y1="63.5444" x2="273.642" y2="63.5444" stroke="#939393" stroke-width="2.5"/>
<line x1="248.642" y1="83.3989" x2="323.642" y2="83.3989" stroke="#939393" stroke-width="2.5"/>
<line x1="248.642" y1="103.254" x2="323.642" y2="103.254" stroke="#939393" stroke-width="2.5"/>
<g filter="url(#filter7_d_1329_141)">
<path d="M204.517 262.639H247.124L264.866 280.819V340.616H204.517V262.639Z" fill="#F2F2F2"/>
</g>
<g filter="url(#filter8_d_1329_141)">
<path d="M247.321 262.639L264.866 280.716H247.321V262.639Z" fill="#F9F9F9"/>
</g>
<rect x="204.517" y="317.43" width="60.3495" height="23.1849" fill="#237CE4"/>
<path d="M213.026 336.43V322.43H219.146C220.666 322.43 221.999 322.724 223.146 323.31C224.293 323.897 225.186 324.71 225.826 325.75C226.466 326.79 226.786 328.017 226.786 329.43C226.786 330.83 226.466 332.057 225.826 333.11C225.186 334.15 224.293 334.964 223.146 335.55C221.999 336.137 220.666 336.43 219.146 336.43H213.026ZM215.626 334.23H219.026C220.079 334.23 220.986 334.03 221.746 333.63C222.519 333.23 223.113 332.67 223.526 331.95C223.953 331.23 224.166 330.39 224.166 329.43C224.166 328.457 223.953 327.617 223.526 326.91C223.113 326.19 222.519 325.63 221.746 325.23C220.986 324.83 220.079 324.63 219.026 324.63H215.626V334.23ZM235.709 336.63C234.616 336.63 233.609 336.45 232.689 336.09C231.769 335.73 230.969 335.23 230.289 334.59C229.609 333.937 229.083 333.177 228.709 332.31C228.336 331.43 228.149 330.47 228.149 329.43C228.149 328.39 228.336 327.437 228.709 326.57C229.083 325.69 229.609 324.93 230.289 324.29C230.969 323.637 231.769 323.13 232.689 322.77C233.609 322.41 234.609 322.23 235.689 322.23C236.783 322.23 237.783 322.41 238.689 322.77C239.609 323.13 240.409 323.637 241.089 324.29C241.769 324.93 242.296 325.69 242.669 326.57C243.043 327.437 243.229 328.39 243.229 329.43C243.229 330.47 243.043 331.43 242.669 332.31C242.296 333.19 241.769 333.95 241.089 334.59C240.409 335.23 239.609 335.73 238.689 336.09C237.783 336.45 236.789 336.63 235.709 336.63ZM235.689 334.35C236.396 334.35 237.049 334.23 237.649 333.99C238.249 333.75 238.769 333.41 239.209 332.97C239.649 332.517 239.989 331.997 240.229 331.41C240.483 330.81 240.609 330.15 240.609 329.43C240.609 328.71 240.483 328.057 240.229 327.47C239.989 326.87 239.649 326.35 239.209 325.91C238.769 325.457 238.249 325.11 237.649 324.87C237.049 324.63 236.396 324.51 235.689 324.51C234.983 324.51 234.329 324.63 233.729 324.87C233.143 325.11 232.623 325.457 232.169 325.91C231.729 326.35 231.383 326.87 231.129 327.47C230.889 328.057 230.769 328.71 230.769 329.43C230.769 330.137 230.889 330.79 231.129 331.39C231.383 331.99 231.729 332.517 232.169 332.97C232.609 333.41 233.129 333.75 233.729 333.99C234.329 334.23 234.983 334.35 235.689 334.35ZM252.065 336.63C250.999 336.63 250.005 336.457 249.085 336.11C248.179 335.75 247.385 335.25 246.705 334.61C246.039 333.957 245.519 333.19 245.145 332.31C244.772 331.43 244.585 330.47 244.585 329.43C244.585 328.39 244.772 327.43 245.145 326.55C245.519 325.67 246.045 324.91 246.725 324.27C247.405 323.617 248.199 323.117 249.105 322.77C250.012 322.41 251.005 322.23 252.085 322.23C253.232 322.23 254.279 322.43 255.225 322.83C256.172 323.217 256.972 323.797 257.625 324.57L255.945 326.15C255.439 325.604 254.872 325.197 254.245 324.93C253.619 324.65 252.939 324.51 252.205 324.51C251.472 324.51 250.799 324.63 250.185 324.87C249.585 325.11 249.059 325.45 248.605 325.89C248.165 326.33 247.819 326.85 247.565 327.45C247.325 328.05 247.205 328.71 247.205 329.43C247.205 330.15 247.325 330.81 247.565 331.41C247.819 332.01 248.165 332.53 248.605 332.97C249.059 333.41 249.585 333.75 250.185 333.99C250.799 334.23 251.472 334.35 252.205 334.35C252.939 334.35 253.619 334.217 254.245 333.95C254.872 333.67 255.439 333.25 255.945 332.69L257.625 334.29C256.972 335.05 256.172 335.63 255.225 336.03C254.279 336.43 253.225 336.63 252.065 336.63Z" fill="white"/>
<line x1="211.193" y1="271.973" x2="236.193" y2="271.973" stroke="#939393" stroke-width="2"/>
<line x1="211.193" y1="283.882" x2="236.193" y2="283.882" stroke="#939393" stroke-width="2"/>
<line x1="211.193" y1="295.792" x2="256.181" y2="295.792" stroke="#939393" stroke-width="2"/>
<line x1="211.193" y1="307.701" x2="256.181" y2="307.701" stroke="#939393" stroke-width="2"/>
<g filter="url(#filter9_d_1329_141)">
<path d="M108.171 262.639H150.778L168.52 280.818V340.615H108.171V262.639Z" fill="#F2F2F2"/>
</g>
<g filter="url(#filter10_d_1329_141)">
<path d="M150.974 262.639L168.519 280.716H150.974V262.639Z" fill="#F9F9F9"/>
</g>
<rect x="108.171" y="317.43" width="60.3495" height="23.1849" fill="#616161"/>
<path d="M120.157 336.43V322.43H122.757V336.43H120.157ZM126.144 336.43V322.43H128.284L134.404 332.65H133.284L139.304 322.43H141.444L141.464 336.43H139.004L138.984 326.29H139.504L134.384 334.83H133.224L128.024 326.29H128.624V336.43H126.144ZM151.385 336.63C150.292 336.63 149.285 336.457 148.365 336.11C147.459 335.75 146.665 335.25 145.985 334.61C145.305 333.957 144.779 333.19 144.405 332.31C144.032 331.43 143.845 330.47 143.845 329.43C143.845 328.39 144.032 327.43 144.405 326.55C144.779 325.67 145.305 324.91 145.985 324.27C146.679 323.617 147.485 323.117 148.405 322.77C149.325 322.41 150.332 322.23 151.425 322.23C152.612 322.23 153.679 322.424 154.625 322.81C155.585 323.197 156.392 323.764 157.045 324.51L155.405 326.11C154.859 325.564 154.265 325.164 153.625 324.91C152.999 324.644 152.305 324.51 151.545 324.51C150.812 324.51 150.132 324.63 149.505 324.87C148.879 325.11 148.339 325.45 147.885 325.89C147.432 326.33 147.079 326.85 146.825 327.45C146.585 328.05 146.465 328.71 146.465 329.43C146.465 330.137 146.585 330.79 146.825 331.39C147.079 331.99 147.432 332.517 147.885 332.97C148.339 333.41 148.872 333.75 149.485 333.99C150.099 334.23 150.779 334.35 151.525 334.35C152.219 334.35 152.885 334.244 153.525 334.03C154.179 333.804 154.799 333.43 155.385 332.91L156.865 334.85C156.132 335.437 155.279 335.884 154.305 336.19C153.345 336.484 152.372 336.63 151.385 336.63ZM154.405 334.51V329.27H156.865V334.85L154.405 334.51Z" fill="white"/>
<circle cx="137.414" cy="292.376" r="13.56" fill="#6C6CF9"/>
<rect x="115.284" y="272.973" width="19.1736" height="19.0999" fill="#FF0000" fill-opacity="0.5"/>
<path opacity="0.5" d="M140.525 294.44L150.695 311.683H130.355L140.525 294.44Z" fill="#FFFF00"/>
<path d="M44.2686 82.6162L35.7726 57.4162H38.5086L46.4646 81.1402H45.0966L53.3046 57.4162H55.7526L63.8526 81.1402H62.5566L70.5846 57.4162H73.1406L64.6446 82.6162H61.8366L54.0966 60.1162H54.8166L47.0406 82.6162H44.2686ZM76.0268 82.6162V63.7162H78.4748V68.8642L78.2228 67.9642C78.7508 66.5242 79.6388 65.4322 80.8868 64.6882C82.1348 63.9202 83.6828 63.5362 85.5308 63.5362V66.0202C85.4348 66.0202 85.3388 66.0202 85.2428 66.0202C85.1468 65.9962 85.0508 65.9842 84.9548 65.9842C82.9628 65.9842 81.4028 66.5962 80.2748 67.8202C79.1468 69.0202 78.5828 70.7362 78.5828 72.9682V82.6162H76.0268ZM89.4748 82.6162V63.7162H92.0308V82.6162H89.4748ZM90.7708 59.5402C90.2428 59.5402 89.7988 59.3602 89.4388 59.0002C89.0788 58.6402 88.8988 58.2082 88.8988 57.7042C88.8988 57.2002 89.0788 56.7802 89.4388 56.4442C89.7988 56.0842 90.2428 55.9042 90.7708 55.9042C91.2988 55.9042 91.7428 56.0722 92.1028 56.4082C92.4628 56.7442 92.6428 57.1642 92.6428 57.6682C92.6428 58.1962 92.4628 58.6402 92.1028 59.0002C91.7668 59.3602 91.3228 59.5402 90.7708 59.5402ZM104.399 82.7962C102.623 82.7962 101.255 82.3162 100.295 81.3562C99.3347 80.3962 98.8547 79.0402 98.8547 77.2882V59.5402H101.411V77.1442C101.411 78.2482 101.687 79.1002 102.239 79.7002C102.815 80.3002 103.631 80.6002 104.687 80.6002C105.815 80.6002 106.751 80.2762 107.495 79.6282L108.395 81.4642C107.891 81.9202 107.279 82.2562 106.559 82.4722C105.863 82.6882 105.143 82.7962 104.399 82.7962ZM95.4707 65.8402V63.7162H107.171V65.8402H95.4707ZM119.688 82.7962C117.72 82.7962 115.992 82.3882 114.504 81.5722C113.016 80.7322 111.852 79.5922 111.012 78.1522C110.172 76.6882 109.752 75.0202 109.752 73.1482C109.752 71.2762 110.148 69.6202 110.94 68.1802C111.756 66.7402 112.86 65.6122 114.252 64.7962C115.668 63.9562 117.252 63.5362 119.004 63.5362C120.78 63.5362 122.352 63.9442 123.72 64.7602C125.112 65.5522 126.204 66.6802 126.996 68.1442C127.788 69.5842 128.184 71.2522 128.184 73.1482C128.184 73.2682 128.172 73.4002 128.148 73.5442C128.148 73.6642 128.148 73.7962 128.148 73.9402H111.696V72.0322H126.78L125.772 72.7882C125.772 71.4202 125.472 70.2082 124.872 69.1522C124.296 68.0722 123.504 67.2322 122.496 66.6322C121.488 66.0322 120.324 65.7322 119.004 65.7322C117.708 65.7322 116.544 66.0322 115.512 66.6322C114.48 67.2322 113.676 68.0722 113.1 69.1522C112.524 70.2322 112.236 71.4682 112.236 72.8602V73.2562C112.236 74.6962 112.548 75.9682 113.172 77.0722C113.82 78.1522 114.708 79.0042 115.836 79.6282C116.988 80.2282 118.296 80.5282 119.76 80.5282C120.912 80.5282 121.98 80.3242 122.964 79.9162C123.972 79.5082 124.836 78.8842 125.556 78.0442L126.996 79.7002C126.156 80.7082 125.1 81.4762 123.828 82.0042C122.58 82.5322 121.2 82.7962 119.688 82.7962ZM141.368 82.6162V63.7162H143.924V82.6162H141.368ZM142.664 59.5402C142.136 59.5402 141.692 59.3602 141.332 59.0002C140.972 58.6402 140.792 58.2082 140.792 57.7042C140.792 57.2002 140.972 56.7802 141.332 56.4442C141.692 56.0842 142.136 55.9042 142.664 55.9042C143.192 55.9042 143.636 56.0722 143.996 56.4082C144.356 56.7442 144.536 57.1642 144.536 57.6682C144.536 58.1962 144.356 58.6402 143.996 59.0002C143.66 59.3602 143.216 59.5402 142.664 59.5402ZM159.964 63.5362C161.5 63.5362 162.844 63.8362 163.996 64.4362C165.172 65.0122 166.084 65.9002 166.732 67.1002C167.404 68.3002 167.74 69.8122 167.74 71.6362V82.6162H165.184V71.8882C165.184 69.8962 164.68 68.3962 163.672 67.3882C162.688 66.3562 161.296 65.8402 159.496 65.8402C158.152 65.8402 156.976 66.1162 155.968 66.6682C154.984 67.1962 154.216 67.9762 153.664 69.0082C153.136 70.0162 152.872 71.2402 152.872 72.6802V82.6162H150.316V63.7162H152.764V68.9002L152.368 67.9282C152.968 66.5602 153.928 65.4922 155.248 64.7242C156.568 63.9322 158.14 63.5362 159.964 63.5362ZM32.0785 120.868C30.5185 120.868 29.0905 120.508 27.7945 119.788C26.5225 119.068 25.5025 117.988 24.7345 116.548C23.9905 115.084 23.6185 113.236 23.6185 111.004C23.6185 108.748 23.9785 106.9 24.6985 105.46C25.4425 104.02 26.4505 102.952 27.7225 102.256C28.9945 101.536 30.4465 101.176 32.0785 101.176C33.9745 101.176 35.6425 101.584 37.0825 102.4C38.5465 103.216 39.6985 104.356 40.5385 105.82C41.4025 107.284 41.8345 109.012 41.8345 111.004C41.8345 112.996 41.4025 114.736 40.5385 116.224C39.6985 117.688 38.5465 118.828 37.0825 119.644C35.6425 120.46 33.9745 120.868 32.0785 120.868ZM21.4225 127.6V101.392H25.7065V105.928L25.5625 111.04L25.9225 116.152V127.6H21.4225ZM31.5745 117.016C32.6545 117.016 33.6145 116.776 34.4545 116.296C35.3185 115.816 36.0025 115.12 36.5065 114.208C37.0105 113.296 37.2625 112.228 37.2625 111.004C37.2625 109.756 37.0105 108.688 36.5065 107.8C36.0025 106.888 35.3185 106.192 34.4545 105.712C33.6145 105.232 32.6545 104.992 31.5745 104.992C30.4945 104.992 29.5225 105.232 28.6585 105.712C27.7945 106.192 27.1105 106.888 26.6065 107.8C26.1025 108.688 25.8505 109.756 25.8505 111.004C25.8505 112.228 26.1025 113.296 26.6065 114.208C27.1105 115.12 27.7945 115.816 28.6585 116.296C29.5225 116.776 30.4945 117.016 31.5745 117.016ZM45.3822 120.616V93.9042H49.8822V120.616H45.3822ZM66.9125 120.616V116.728L66.6605 115.9V109.096C66.6605 107.776 66.2645 106.756 65.4725 106.036C64.6805 105.292 63.4805 104.92 61.8725 104.92C60.7925 104.92 59.7245 105.088 58.6685 105.424C57.6365 105.76 56.7605 106.228 56.0405 106.828L54.2765 103.552C55.3085 102.76 56.5325 102.172 57.9485 101.788C59.3885 101.38 60.8765 101.176 62.4125 101.176C65.1965 101.176 67.3445 101.848 68.8565 103.192C70.3925 104.512 71.1605 106.564 71.1605 109.348V120.616H66.9125ZM60.8645 120.868C59.4245 120.868 58.1645 120.628 57.0845 120.148C56.0045 119.644 55.1645 118.96 54.5645 118.096C53.9885 117.208 53.7005 116.212 53.7005 115.108C53.7005 114.028 53.9525 113.056 54.4565 112.192C54.9845 111.328 55.8365 110.644 57.0125 110.14C58.1885 109.636 59.7485 109.384 61.6925 109.384H67.2725V112.372H62.0165C60.4805 112.372 59.4485 112.624 58.9205 113.128C58.3925 113.608 58.1285 114.208 58.1285 114.928C58.1285 115.744 58.4525 116.392 59.1005 116.872C59.7485 117.352 60.6485 117.592 61.8005 117.592C62.9045 117.592 63.8885 117.34 64.7525 116.836C65.6405 116.332 66.2765 115.588 66.6605 114.604L67.4165 117.304C66.9845 118.432 66.2045 119.308 65.0765 119.932C63.9725 120.556 62.5685 120.868 60.8645 120.868ZM76.2156 120.616V101.392H80.7156V120.616H76.2156ZM78.4836 98.2242C77.6436 98.2242 76.9476 97.9602 76.3956 97.4322C75.8676 96.9042 75.6036 96.2682 75.6036 95.5242C75.6036 94.7562 75.8676 94.1202 76.3956 93.6162C76.9476 93.0882 77.6436 92.8242 78.4836 92.8242C79.3236 92.8242 80.0076 93.0762 80.5356 93.5802C81.0876 94.0602 81.3636 94.6722 81.3636 95.4162C81.3636 96.2082 81.0996 96.8802 80.5716 97.4322C80.0436 97.9602 79.3476 98.2242 78.4836 98.2242ZM96.8099 101.176C98.3459 101.176 99.7139 101.476 100.914 102.076C102.138 102.676 103.098 103.6 103.794 104.848C104.49 106.072 104.838 107.656 104.838 109.6V120.616H100.338V110.176C100.338 108.472 99.9299 107.2 99.1139 106.36C98.3219 105.52 97.2059 105.1 95.7659 105.1C94.7099 105.1 93.7739 105.316 92.9579 105.748C92.1419 106.18 91.5059 106.828 91.0499 107.692C90.6179 108.532 90.4019 109.6 90.4019 110.896V120.616H85.9019V101.392H90.1859V106.576L89.4299 104.992C90.1019 103.768 91.0739 102.832 92.3459 102.184C93.6419 101.512 95.1299 101.176 96.8099 101.176ZM126.292 120.868C124.18 120.868 122.548 120.328 121.396 119.248C120.244 118.144 119.668 116.524 119.668 114.388V97.1442H124.168V114.28C124.168 115.192 124.396 115.9 124.852 116.404C125.332 116.908 125.992 117.16 126.832 117.16C127.84 117.16 128.68 116.896 129.352 116.368L130.612 119.572C130.084 120.004 129.436 120.328 128.668 120.544C127.9 120.76 127.108 120.868 126.292 120.868ZM116.5 105.136V101.536H129.316V105.136H116.5ZM141.997 120.868C139.861 120.868 137.989 120.448 136.381 119.608C134.797 118.744 133.561 117.568 132.673 116.08C131.809 114.592 131.377 112.9 131.377 111.004C131.377 109.084 131.797 107.392 132.637 105.928C133.501 104.44 134.677 103.276 136.165 102.436C137.677 101.596 139.393 101.176 141.313 101.176C143.185 101.176 144.853 101.584 146.317 102.4C147.781 103.216 148.933 104.368 149.773 105.856C150.613 107.344 151.033 109.096 151.033 111.112C151.033 111.304 151.021 111.52 150.997 111.76C150.997 112 150.985 112.228 150.961 112.444H134.941V109.456H148.585L146.821 110.392C146.845 109.288 146.617 108.316 146.137 107.476C145.657 106.636 144.997 105.976 144.157 105.496C143.341 105.016 142.393 104.776 141.313 104.776C140.209 104.776 139.237 105.016 138.397 105.496C137.581 105.976 136.933 106.648 136.453 107.512C135.997 108.352 135.769 109.348 135.769 110.5V111.22C135.769 112.372 136.033 113.392 136.561 114.28C137.089 115.168 137.833 115.852 138.793 116.332C139.753 116.812 140.857 117.052 142.105 117.052C143.185 117.052 144.157 116.884 145.021 116.548C145.885 116.212 146.653 115.684 147.325 114.964L149.737 117.736C148.873 118.744 147.781 119.524 146.461 120.076C145.165 120.604 143.677 120.868 141.997 120.868ZM151.48 120.616L159.94 109.6L159.868 112.012L151.804 101.392H156.808L162.46 108.952H160.552L166.24 101.392H171.1L162.964 112.012L163 109.6L171.424 120.616H166.348L160.408 112.588L162.28 112.84L156.448 120.616H151.48ZM181.261 120.868C179.149 120.868 177.517 120.328 176.365 119.248C175.213 118.144 174.637 116.524 174.637 114.388V97.1442H179.137V114.28C179.137 115.192 179.365 115.9 179.821 116.404C180.301 116.908 180.961 117.16 181.801 117.16C182.809 117.16 183.649 116.896 184.321 116.368L185.581 119.572C185.053 120.004 184.405 120.328 183.637 120.544C182.869 120.76 182.077 120.868 181.261 120.868ZM171.469 105.136V101.536H184.285V105.136H171.469Z" fill="#010203"/>
<path d="M50.7745 377.713L61.6545 353.913H64.1365L75.0165 377.713H72.3645L62.3685 355.375H63.3885L53.3925 377.713H50.7745ZM55.0585 371.355L55.8065 369.315H69.6445L70.3925 371.355H55.0585ZM83.2416 377.883C81.5643 377.883 80.2723 377.43 79.3656 376.523C78.4589 375.616 78.0056 374.336 78.0056 372.681V355.919H80.4196V372.545C80.4196 373.588 80.6803 374.392 81.2016 374.959C81.7456 375.526 82.5163 375.809 83.5136 375.809C84.5789 375.809 85.4629 375.503 86.1656 374.891L87.0156 376.625C86.5396 377.056 85.9616 377.373 85.2816 377.577C84.6243 377.781 83.9443 377.883 83.2416 377.883ZM74.8096 361.869V359.863H85.8596V361.869H74.8096ZM95.9093 377.883C94.2319 377.883 92.9399 377.43 92.0333 376.523C91.1266 375.616 90.6733 374.336 90.6733 372.681V355.919H93.0873V372.545C93.0873 373.588 93.3479 374.392 93.8693 374.959C94.4133 375.526 95.1839 375.809 96.1813 375.809C97.2466 375.809 98.1306 375.503 98.8333 374.891L99.6833 376.625C99.2073 377.056 98.6293 377.373 97.9493 377.577C97.2919 377.781 96.6119 377.883 95.9093 377.883ZM87.4773 361.869V359.863H98.5273V361.869H87.4773ZM114.584 377.713V373.769L114.482 373.123V366.527C114.482 365.008 114.051 363.841 113.19 363.025C112.351 362.209 111.093 361.801 109.416 361.801C108.26 361.801 107.16 361.994 106.118 362.379C105.075 362.764 104.191 363.274 103.466 363.909L102.378 362.107C103.284 361.336 104.372 360.747 105.642 360.339C106.911 359.908 108.248 359.693 109.654 359.693C111.966 359.693 113.745 360.271 114.992 361.427C116.261 362.56 116.896 364.294 116.896 366.629V377.713H114.584ZM108.43 377.883C107.092 377.883 105.925 377.668 104.928 377.237C103.953 376.784 103.205 376.172 102.684 375.401C102.162 374.608 101.902 373.701 101.902 372.681C101.902 371.752 102.117 370.913 102.548 370.165C103.001 369.394 103.726 368.782 104.724 368.329C105.744 367.853 107.104 367.615 108.804 367.615H114.958V369.417H108.872C107.149 369.417 105.948 369.723 105.268 370.335C104.61 370.947 104.282 371.706 104.282 372.613C104.282 373.633 104.678 374.449 105.472 375.061C106.265 375.673 107.376 375.979 108.804 375.979C110.164 375.979 111.331 375.673 112.306 375.061C113.303 374.426 114.028 373.52 114.482 372.341L115.026 374.007C114.572 375.186 113.779 376.126 112.646 376.829C111.535 377.532 110.13 377.883 108.43 377.883ZM130.184 377.883C128.416 377.883 126.83 377.498 125.424 376.727C124.042 375.934 122.954 374.857 122.16 373.497C121.367 372.114 120.97 370.539 120.97 368.771C120.97 366.98 121.367 365.405 122.16 364.045C122.954 362.685 124.042 361.62 125.424 360.849C126.83 360.078 128.416 359.693 130.184 359.693C131.703 359.693 133.074 359.988 134.298 360.577C135.522 361.166 136.486 362.05 137.188 363.229L135.386 364.453C134.774 363.546 134.015 362.878 133.108 362.447C132.202 362.016 131.216 361.801 130.15 361.801C128.881 361.801 127.736 362.096 126.716 362.685C125.696 363.252 124.892 364.056 124.302 365.099C123.713 366.142 123.418 367.366 123.418 368.771C123.418 370.176 123.713 371.4 124.302 372.443C124.892 373.486 125.696 374.302 126.716 374.891C127.736 375.458 128.881 375.741 130.15 375.741C131.216 375.741 132.202 375.526 133.108 375.095C134.015 374.664 134.774 374.007 135.386 373.123L137.188 374.347C136.486 375.503 135.522 376.387 134.298 376.999C133.074 377.588 131.703 377.883 130.184 377.883ZM150.097 359.693C151.548 359.693 152.817 359.976 153.905 360.543C155.016 361.087 155.877 361.926 156.489 363.059C157.124 364.192 157.441 365.62 157.441 367.343V377.713H155.027V367.581C155.027 365.7 154.551 364.283 153.599 363.331C152.67 362.356 151.355 361.869 149.655 361.869C148.386 361.869 147.275 362.13 146.323 362.651C145.394 363.15 144.668 363.886 144.147 364.861C143.648 365.813 143.399 366.969 143.399 368.329V377.713H140.985V352.485H143.399V364.759L142.923 363.841C143.49 362.549 144.396 361.54 145.643 360.815C146.89 360.067 148.374 359.693 150.097 359.693ZM178.776 377.883C177.053 377.883 175.501 377.498 174.118 376.727C172.758 375.934 171.681 374.857 170.888 373.497C170.095 372.114 169.698 370.539 169.698 368.771C169.698 366.98 170.095 365.405 170.888 364.045C171.681 362.685 172.758 361.62 174.118 360.849C175.478 360.078 177.031 359.693 178.776 359.693C180.544 359.693 182.108 360.078 183.468 360.849C184.851 361.62 185.927 362.685 186.698 364.045C187.491 365.405 187.888 366.98 187.888 368.771C187.888 370.539 187.491 372.114 186.698 373.497C185.927 374.857 184.851 375.934 183.468 376.727C182.085 377.498 180.521 377.883 178.776 377.883ZM178.776 375.741C180.068 375.741 181.213 375.458 182.21 374.891C183.207 374.302 183.989 373.486 184.556 372.443C185.145 371.378 185.44 370.154 185.44 368.771C185.44 367.366 185.145 366.142 184.556 365.099C183.989 364.056 183.207 363.252 182.21 362.685C181.213 362.096 180.079 361.801 178.81 361.801C177.541 361.801 176.407 362.096 175.41 362.685C174.413 363.252 173.619 364.056 173.03 365.099C172.441 366.142 172.146 367.366 172.146 368.771C172.146 370.154 172.441 371.378 173.03 372.443C173.619 373.486 174.413 374.302 175.41 374.891C176.407 375.458 177.529 375.741 178.776 375.741ZM201.35 377.883C199.809 377.883 198.415 377.532 197.168 376.829C195.922 376.104 194.924 375.072 194.176 373.735C193.451 372.375 193.088 370.72 193.088 368.771C193.088 366.822 193.451 365.178 194.176 363.841C194.902 362.481 195.888 361.45 197.134 360.747C198.381 360.044 199.786 359.693 201.35 359.693C203.05 359.693 204.569 360.078 205.906 360.849C207.266 361.597 208.332 362.662 209.102 364.045C209.873 365.405 210.258 366.98 210.258 368.771C210.258 370.584 209.873 372.171 209.102 373.531C208.332 374.891 207.266 375.956 205.906 376.727C204.569 377.498 203.05 377.883 201.35 377.883ZM192.136 384.309V359.863H194.448V365.235L194.21 368.805L194.55 372.409V384.309H192.136ZM201.18 375.741C202.45 375.741 203.583 375.458 204.58 374.891C205.578 374.302 206.371 373.486 206.96 372.443C207.55 371.378 207.844 370.154 207.844 368.771C207.844 367.388 207.55 366.176 206.96 365.133C206.371 364.09 205.578 363.274 204.58 362.685C203.583 362.096 202.45 361.801 201.18 361.801C199.911 361.801 198.766 362.096 197.746 362.685C196.749 363.274 195.956 364.09 195.366 365.133C194.8 366.176 194.516 367.388 194.516 368.771C194.516 370.154 194.8 371.378 195.366 372.443C195.956 373.486 196.749 374.302 197.746 374.891C198.766 375.458 199.911 375.741 201.18 375.741ZM220.143 377.883C218.466 377.883 217.174 377.43 216.267 376.523C215.361 375.616 214.907 374.336 214.907 372.681V355.919H217.321V372.545C217.321 373.588 217.582 374.392 218.103 374.959C218.647 375.526 219.418 375.809 220.415 375.809C221.481 375.809 222.365 375.503 223.067 374.891L223.917 376.625C223.441 377.056 222.863 377.373 222.183 377.577C221.526 377.781 220.846 377.883 220.143 377.883ZM211.711 361.869V359.863H222.761V361.869H211.711ZM227.632 377.713V359.863H230.046V377.713H227.632ZM228.856 355.919C228.357 355.919 227.938 355.749 227.598 355.409C227.258 355.069 227.088 354.661 227.088 354.185C227.088 353.709 227.258 353.312 227.598 352.995C227.938 352.655 228.357 352.485 228.856 352.485C229.355 352.485 229.774 352.644 230.114 352.961C230.454 353.278 230.624 353.675 230.624 354.151C230.624 354.65 230.454 355.069 230.114 355.409C229.797 355.749 229.377 355.919 228.856 355.919ZM243.359 377.883C241.636 377.883 240.083 377.498 238.701 376.727C237.341 375.934 236.264 374.857 235.471 373.497C234.677 372.114 234.281 370.539 234.281 368.771C234.281 366.98 234.677 365.405 235.471 364.045C236.264 362.685 237.341 361.62 238.701 360.849C240.061 360.078 241.613 359.693 243.359 359.693C245.127 359.693 246.691 360.078 248.051 360.849C249.433 361.62 250.51 362.685 251.281 364.045C252.074 365.405 252.471 366.98 252.471 368.771C252.471 370.539 252.074 372.114 251.281 373.497C250.51 374.857 249.433 375.934 248.051 376.727C246.668 377.498 245.104 377.883 243.359 377.883ZM243.359 375.741C244.651 375.741 245.795 375.458 246.793 374.891C247.79 374.302 248.572 373.486 249.139 372.443C249.728 371.378 250.023 370.154 250.023 368.771C250.023 367.366 249.728 366.142 249.139 365.099C248.572 364.056 247.79 363.252 246.793 362.685C245.795 362.096 244.662 361.801 243.393 361.801C242.123 361.801 240.99 362.096 239.993 362.685C238.995 363.252 238.202 364.056 237.613 365.099C237.023 366.142 236.729 367.366 236.729 368.771C236.729 370.154 237.023 371.378 237.613 372.443C238.202 373.486 238.995 374.302 239.993 374.891C240.99 375.458 242.112 375.741 243.359 375.741ZM265.831 359.693C267.282 359.693 268.551 359.976 269.639 360.543C270.75 361.087 271.611 361.926 272.223 363.059C272.858 364.192 273.175 365.62 273.175 367.343V377.713H270.761V367.581C270.761 365.7 270.285 364.283 269.333 363.331C268.404 362.356 267.089 361.869 265.389 361.869C264.12 361.869 263.009 362.13 262.057 362.651C261.128 363.15 260.402 363.886 259.881 364.861C259.382 365.813 259.133 366.969 259.133 368.329V377.713H256.719V359.863H259.031V364.759L258.657 363.841C259.224 362.549 260.13 361.54 261.377 360.815C262.624 360.067 264.108 359.693 265.831 359.693ZM290.202 377.713V373.769L290.1 373.123V366.527C290.1 365.008 289.669 363.841 288.808 363.025C287.969 362.209 286.711 361.801 285.034 361.801C283.878 361.801 282.778 361.994 281.736 362.379C280.693 362.764 279.809 363.274 279.084 363.909L277.996 362.107C278.902 361.336 279.99 360.747 281.26 360.339C282.529 359.908 283.866 359.693 285.272 359.693C287.584 359.693 289.363 360.271 290.61 361.427C291.879 362.56 292.514 364.294 292.514 366.629V377.713H290.202ZM284.048 377.883C282.71 377.883 281.543 377.668 280.546 377.237C279.571 376.784 278.823 376.172 278.302 375.401C277.78 374.608 277.52 373.701 277.52 372.681C277.52 371.752 277.735 370.913 278.166 370.165C278.619 369.394 279.344 368.782 280.342 368.329C281.362 367.853 282.722 367.615 284.422 367.615H290.576V369.417H284.49C282.767 369.417 281.566 369.723 280.886 370.335C280.228 370.947 279.9 371.706 279.9 372.613C279.9 373.633 280.296 374.449 281.09 375.061C281.883 375.673 282.994 375.979 284.422 375.979C285.782 375.979 286.949 375.673 287.924 375.061C288.921 374.426 289.646 373.52 290.1 372.341L290.644 374.007C290.19 375.186 289.397 376.126 288.264 376.829C287.153 377.532 285.748 377.883 284.048 377.883ZM298.39 377.713V352.485H300.804V377.713H298.39ZM33.4619 415.951C31.7166 415.951 30.1412 415.566 28.7359 414.795C27.3532 414.002 26.2652 412.914 25.4719 411.531C24.6786 410.148 24.2819 408.516 24.2819 406.635C24.2819 404.754 24.6786 403.122 25.4719 401.739C26.2652 400.356 27.3532 399.28 28.7359 398.509C30.1412 397.738 31.7166 397.353 33.4619 397.353C34.9806 397.353 36.3406 397.693 37.5419 398.373C38.7432 399.03 39.6952 400.039 40.3979 401.399C41.1006 402.759 41.4519 404.504 41.4519 406.635C41.4519 408.743 41.1119 410.488 40.4319 411.871C39.7519 413.231 38.8112 414.251 37.6099 414.931C36.4086 415.611 35.0259 415.951 33.4619 415.951ZM33.9719 412.313C34.9919 412.313 35.8986 412.086 36.6919 411.633C37.5079 411.18 38.1539 410.522 38.6299 409.661C39.1286 408.8 39.3779 407.791 39.3779 406.635C39.3779 405.456 39.1286 404.448 38.6299 403.609C38.1539 402.748 37.5079 402.09 36.6919 401.637C35.8986 401.184 34.9919 400.957 33.9719 400.957C32.9519 400.957 32.0339 401.184 31.2179 401.637C30.4246 402.09 29.7786 402.748 29.2799 403.609C28.8039 404.448 28.5659 405.456 28.5659 406.635C28.5659 407.791 28.8039 408.8 29.2799 409.661C29.7786 410.522 30.4246 411.18 31.2179 411.633C32.0339 412.086 32.9519 412.313 33.9719 412.313ZM39.4799 415.713V411.429L39.6499 406.601L39.3099 401.773V390.485H43.5259V415.713H39.4799ZM48.4397 415.713V397.557H52.6897V415.713H48.4397ZM50.5817 394.565C49.7883 394.565 49.131 394.316 48.6097 393.817C48.111 393.318 47.8617 392.718 47.8617 392.015C47.8617 391.29 48.111 390.689 48.6097 390.213C49.131 389.714 49.7883 389.465 50.5817 389.465C51.375 389.465 52.021 389.703 52.5197 390.179C53.041 390.632 53.3017 391.21 53.3017 391.913C53.3017 392.661 53.0523 393.296 52.5537 393.817C52.055 394.316 51.3977 394.565 50.5817 394.565ZM68.7738 415.713V412.041L68.5358 411.259V404.833C68.5358 403.586 68.1618 402.623 67.4138 401.943C66.6658 401.24 65.5325 400.889 64.0138 400.889C62.9938 400.889 61.9851 401.048 60.9878 401.365C60.0131 401.682 59.1858 402.124 58.5058 402.691L56.8398 399.597C57.8145 398.849 58.9705 398.294 60.3078 397.931C61.6678 397.546 63.0731 397.353 64.5238 397.353C67.1531 397.353 69.1818 397.988 70.6098 399.257C72.0605 400.504 72.7858 402.442 72.7858 405.071V415.713H68.7738ZM63.0618 415.951C61.7018 415.951 60.5118 415.724 59.4918 415.271C58.4718 414.795 57.6785 414.149 57.1118 413.333C56.5678 412.494 56.2958 411.554 56.2958 410.511C56.2958 409.491 56.5338 408.573 57.0098 407.757C57.5085 406.941 58.3131 406.295 59.4238 405.819C60.5345 405.343 62.0078 405.105 63.8438 405.105H69.1138V407.927H64.1498C62.6991 407.927 61.7245 408.165 61.2258 408.641C60.7271 409.094 60.4778 409.661 60.4778 410.341C60.4778 411.112 60.7838 411.724 61.3958 412.177C62.0078 412.63 62.8578 412.857 63.9458 412.857C64.9885 412.857 65.9178 412.619 66.7338 412.143C67.5725 411.667 68.1731 410.964 68.5358 410.035L69.2498 412.585C68.8418 413.65 68.1051 414.478 67.0398 415.067C65.9971 415.656 64.6711 415.951 63.0618 415.951ZM85.8214 422.547C84.144 422.547 82.5007 422.32 80.8914 421.867C79.3047 421.436 78.0014 420.802 76.9814 419.963L78.8854 416.767C79.6787 417.424 80.676 417.946 81.8774 418.331C83.1014 418.739 84.3367 418.943 85.5834 418.943C87.578 418.943 89.04 418.478 89.9694 417.549C90.8987 416.642 91.3634 415.271 91.3634 413.435V410.205L91.7034 406.091L91.5674 401.977V397.557H95.6134V412.959C95.6134 416.246 94.7747 418.66 93.0974 420.201C91.42 421.765 88.9947 422.547 85.8214 422.547ZM85.2774 414.897C83.5547 414.897 81.9907 414.534 80.5854 413.809C79.2027 413.061 78.1034 412.03 77.2874 410.715C76.494 409.4 76.0974 407.859 76.0974 406.091C76.0974 404.346 76.494 402.816 77.2874 401.501C78.1034 400.186 79.2027 399.166 80.5854 398.441C81.9907 397.716 83.5547 397.353 85.2774 397.353C86.8187 397.353 88.2014 397.659 89.4254 398.271C90.6494 398.883 91.624 399.835 92.3494 401.127C93.0974 402.419 93.4714 404.074 93.4714 406.091C93.4714 408.108 93.0974 409.774 92.3494 411.089C91.624 412.381 90.6494 413.344 89.4254 413.979C88.2014 414.591 86.8187 414.897 85.2774 414.897ZM85.9234 411.293C86.9887 411.293 87.9407 411.078 88.7794 410.647C89.618 410.194 90.264 409.582 90.7174 408.811C91.1934 408.018 91.4314 407.111 91.4314 406.091C91.4314 405.071 91.1934 404.176 90.7174 403.405C90.264 402.612 89.618 402.011 88.7794 401.603C87.9407 401.172 86.9887 400.957 85.9234 400.957C84.858 400.957 83.8947 401.172 83.0334 401.603C82.1947 402.011 81.5374 402.612 81.0614 403.405C80.608 404.176 80.3814 405.071 80.3814 406.091C80.3814 407.111 80.608 408.018 81.0614 408.811C81.5374 409.582 82.1947 410.194 83.0334 410.647C83.8947 411.078 84.858 411.293 85.9234 411.293ZM100.521 415.713V397.557H104.567V402.555L104.091 401.093C104.635 399.869 105.485 398.94 106.641 398.305C107.819 397.67 109.281 397.353 111.027 397.353V401.399C110.845 401.354 110.675 401.331 110.517 401.331C110.358 401.308 110.199 401.297 110.041 401.297C108.431 401.297 107.151 401.773 106.199 402.725C105.247 403.654 104.771 405.048 104.771 406.907V415.713H100.521ZM123.843 415.713V412.041L123.605 411.259V404.833C123.605 403.586 123.231 402.623 122.483 401.943C121.735 401.24 120.602 400.889 119.083 400.889C118.063 400.889 117.055 401.048 116.057 401.365C115.083 401.682 114.255 402.124 113.575 402.691L111.909 399.597C112.884 398.849 114.04 398.294 115.377 397.931C116.737 397.546 118.143 397.353 119.593 397.353C122.223 397.353 124.251 397.988 125.679 399.257C127.13 400.504 127.855 402.442 127.855 405.071V415.713H123.843ZM118.131 415.951C116.771 415.951 115.581 415.724 114.561 415.271C113.541 414.795 112.748 414.149 112.181 413.333C111.637 412.494 111.365 411.554 111.365 410.511C111.365 409.491 111.603 408.573 112.079 407.757C112.578 406.941 113.383 406.295 114.493 405.819C115.604 405.343 117.077 405.105 118.913 405.105H124.183V407.927H119.219C117.769 407.927 116.794 408.165 116.295 408.641C115.797 409.094 115.547 409.661 115.547 410.341C115.547 411.112 115.853 411.724 116.465 412.177C117.077 412.63 117.927 412.857 119.015 412.857C120.058 412.857 120.987 412.619 121.803 412.143C122.642 411.667 123.243 410.964 123.605 410.035L124.319 412.585C123.911 413.65 123.175 414.478 122.109 415.067C121.067 415.656 119.741 415.951 118.131 415.951ZM155.546 397.353C156.996 397.353 158.277 397.636 159.388 398.203C160.521 398.77 161.405 399.642 162.04 400.821C162.674 401.977 162.992 403.473 162.992 405.309V415.713H158.742V405.853C158.742 404.244 158.39 403.042 157.688 402.249C156.985 401.456 155.976 401.059 154.662 401.059C153.732 401.059 152.905 401.263 152.18 401.671C151.477 402.079 150.922 402.68 150.514 403.473C150.128 404.266 149.936 405.275 149.936 406.499V415.713H145.686V405.853C145.686 404.244 145.334 403.042 144.632 402.249C143.929 401.456 142.92 401.059 141.606 401.059C140.676 401.059 139.849 401.263 139.124 401.671C138.421 402.079 137.866 402.68 137.458 403.473C137.072 404.266 136.88 405.275 136.88 406.499V415.713H132.63V397.557H136.676V402.385L135.962 400.957C136.574 399.778 137.458 398.883 138.614 398.271C139.792 397.659 141.13 397.353 142.626 397.353C144.326 397.353 145.799 397.772 147.046 398.611C148.315 399.45 149.154 400.719 149.562 402.419L147.896 401.841C148.485 400.481 149.46 399.393 150.82 398.577C152.18 397.761 153.755 397.353 155.546 397.353ZM173.352 415.951C171.834 415.951 170.372 415.758 168.966 415.373C167.584 414.965 166.484 414.478 165.668 413.911L167.3 410.681C168.116 411.202 169.091 411.633 170.224 411.973C171.358 412.313 172.491 412.483 173.624 412.483C174.962 412.483 175.925 412.302 176.514 411.939C177.126 411.576 177.432 411.089 177.432 410.477C177.432 409.978 177.228 409.604 176.82 409.355C176.412 409.083 175.88 408.879 175.222 408.743C174.565 408.607 173.828 408.482 173.012 408.369C172.219 408.256 171.414 408.108 170.598 407.927C169.805 407.723 169.08 407.44 168.422 407.077C167.765 406.692 167.232 406.182 166.824 405.547C166.416 404.912 166.212 404.074 166.212 403.031C166.212 401.875 166.541 400.878 167.198 400.039C167.856 399.178 168.774 398.52 169.952 398.067C171.154 397.591 172.57 397.353 174.202 397.353C175.426 397.353 176.662 397.489 177.908 397.761C179.155 398.033 180.186 398.418 181.002 398.917L179.37 402.147C178.509 401.626 177.636 401.274 176.752 401.093C175.891 400.889 175.03 400.787 174.168 400.787C172.876 400.787 171.913 400.98 171.278 401.365C170.666 401.75 170.36 402.238 170.36 402.827C170.36 403.371 170.564 403.779 170.972 404.051C171.38 404.323 171.913 404.538 172.57 404.697C173.228 404.856 173.953 404.992 174.746 405.105C175.562 405.196 176.367 405.343 177.16 405.547C177.954 405.751 178.679 406.034 179.336 406.397C180.016 406.737 180.56 407.224 180.968 407.859C181.376 408.494 181.58 409.321 181.58 410.341C181.58 411.474 181.24 412.46 180.56 413.299C179.903 414.138 178.962 414.795 177.738 415.271C176.514 415.724 175.052 415.951 173.352 415.951ZM204.543 415.713V411.769L204.441 411.123V404.527C204.441 403.008 204.01 401.841 203.149 401.025C202.31 400.209 201.052 399.801 199.375 399.801C198.219 399.801 197.12 399.994 196.077 400.379C195.034 400.764 194.15 401.274 193.425 401.909L192.337 400.107C193.244 399.336 194.332 398.747 195.601 398.339C196.87 397.908 198.208 397.693 199.613 397.693C201.925 397.693 203.704 398.271 204.951 399.427C206.22 400.56 206.855 402.294 206.855 404.629V415.713H204.543ZM198.389 415.883C197.052 415.883 195.884 415.668 194.887 415.237C193.912 414.784 193.164 414.172 192.643 413.401C192.122 412.608 191.861 411.701 191.861 410.681C191.861 409.752 192.076 408.913 192.507 408.165C192.96 407.394 193.686 406.782 194.683 406.329C195.703 405.853 197.063 405.615 198.763 405.615H204.917V407.417H198.831C197.108 407.417 195.907 407.723 195.227 408.335C194.57 408.947 194.241 409.706 194.241 410.613C194.241 411.633 194.638 412.449 195.431 413.061C196.224 413.673 197.335 413.979 198.763 413.979C200.123 413.979 201.29 413.673 202.265 413.061C203.262 412.426 203.988 411.52 204.441 410.341L204.985 412.007C204.532 413.186 203.738 414.126 202.605 414.829C201.494 415.532 200.089 415.883 198.389 415.883ZM221.844 397.693C223.294 397.693 224.564 397.976 225.652 398.543C226.762 399.087 227.624 399.926 228.236 401.059C228.87 402.192 229.188 403.62 229.188 405.343V415.713H226.774V405.581C226.774 403.7 226.298 402.283 225.346 401.331C224.416 400.356 223.102 399.869 221.402 399.869C220.132 399.869 219.022 400.13 218.07 400.651C217.14 401.15 216.415 401.886 215.894 402.861C215.395 403.813 215.146 404.969 215.146 406.329V415.713H212.732V397.863H215.044V402.759L214.67 401.841C215.236 400.549 216.143 399.54 217.39 398.815C218.636 398.067 220.121 397.693 221.844 397.693ZM242.134 415.883C240.434 415.883 238.904 415.498 237.544 414.727C236.207 413.956 235.153 412.891 234.382 411.531C233.612 410.148 233.226 408.562 233.226 406.771C233.226 404.958 233.612 403.371 234.382 402.011C235.153 400.651 236.207 399.597 237.544 398.849C238.904 398.078 240.434 397.693 242.134 397.693C243.698 397.693 245.092 398.044 246.316 398.747C247.563 399.45 248.549 400.481 249.274 401.841C250.022 403.178 250.396 404.822 250.396 406.771C250.396 408.698 250.034 410.341 249.308 411.701C248.583 413.061 247.597 414.104 246.35 414.829C245.126 415.532 243.721 415.883 242.134 415.883ZM242.304 413.741C243.574 413.741 244.707 413.458 245.704 412.891C246.724 412.302 247.518 411.486 248.084 410.443C248.674 409.378 248.968 408.154 248.968 406.771C248.968 405.366 248.674 404.142 248.084 403.099C247.518 402.056 246.724 401.252 245.704 400.685C244.707 400.096 243.574 399.801 242.304 399.801C241.058 399.801 239.936 400.096 238.938 400.685C237.941 401.252 237.148 402.056 236.558 403.099C235.969 404.142 235.674 405.366 235.674 406.771C235.674 408.154 235.969 409.378 236.558 410.443C237.148 411.486 237.941 412.302 238.938 412.891C239.936 413.458 241.058 413.741 242.304 413.741ZM249.036 415.713V410.341L249.274 406.737L248.934 403.133V390.485H251.348V415.713H249.036ZM265.61 415.713V396.537C265.61 394.633 266.165 393.114 267.276 391.981C268.409 390.825 270.018 390.247 272.104 390.247C272.852 390.247 273.554 390.326 274.212 390.485C274.892 390.644 275.458 390.893 275.912 391.233L274.756 394.429C274.438 394.18 274.076 393.998 273.668 393.885C273.26 393.749 272.84 393.681 272.41 393.681C271.526 393.681 270.857 393.93 270.404 394.429C269.95 394.905 269.724 395.63 269.724 396.605V398.645L269.86 400.549V415.713H265.61ZM262.618 401.093V397.693H274.722V401.093H262.618ZM277.714 415.713V397.557H281.964V415.713H277.714ZM279.856 394.565C279.062 394.565 278.405 394.316 277.884 393.817C277.385 393.318 277.136 392.718 277.136 392.015C277.136 391.29 277.385 390.689 277.884 390.213C278.405 389.714 279.062 389.465 279.856 389.465C280.649 389.465 281.295 389.703 281.794 390.179C282.315 390.632 282.576 391.21 282.576 391.913C282.576 392.661 282.326 393.296 281.828 393.817C281.329 394.316 280.672 394.565 279.856 394.565ZM286.863 415.713V390.485H291.113V415.713H286.863ZM304.545 415.951C302.528 415.951 300.76 415.554 299.241 414.761C297.745 413.945 296.578 412.834 295.739 411.429C294.923 410.024 294.515 408.426 294.515 406.635C294.515 404.822 294.912 403.224 295.705 401.841C296.521 400.436 297.632 399.336 299.037 398.543C300.465 397.75 302.086 397.353 303.899 397.353C305.667 397.353 307.243 397.738 308.625 398.509C310.008 399.28 311.096 400.368 311.889 401.773C312.683 403.178 313.079 404.833 313.079 406.737C313.079 406.918 313.068 407.122 313.045 407.349C313.045 407.576 313.034 407.791 313.011 407.995H297.881V405.173H310.767L309.101 406.057C309.124 405.014 308.909 404.096 308.455 403.303C308.002 402.51 307.379 401.886 306.585 401.433C305.815 400.98 304.919 400.753 303.899 400.753C302.857 400.753 301.939 400.98 301.145 401.433C300.375 401.886 299.763 402.521 299.309 403.337C298.879 404.13 298.663 405.071 298.663 406.159V406.839C298.663 407.927 298.913 408.89 299.411 409.729C299.91 410.568 300.613 411.214 301.519 411.667C302.426 412.12 303.469 412.347 304.647 412.347C305.667 412.347 306.585 412.188 307.401 411.871C308.217 411.554 308.943 411.055 309.577 410.375L311.855 412.993C311.039 413.945 310.008 414.682 308.761 415.203C307.537 415.702 306.132 415.951 304.545 415.951ZM322.092 415.951C320.573 415.951 319.111 415.758 317.706 415.373C316.323 414.965 315.224 414.478 314.408 413.911L316.04 410.681C316.856 411.202 317.831 411.633 318.964 411.973C320.097 412.313 321.231 412.483 322.364 412.483C323.701 412.483 324.665 412.302 325.254 411.939C325.866 411.576 326.172 411.089 326.172 410.477C326.172 409.978 325.968 409.604 325.56 409.355C325.152 409.083 324.619 408.879 323.962 408.743C323.305 408.607 322.568 408.482 321.752 408.369C320.959 408.256 320.154 408.108 319.338 407.927C318.545 407.723 317.819 407.44 317.162 407.077C316.505 406.692 315.972 406.182 315.564 405.547C315.156 404.912 314.952 404.074 314.952 403.031C314.952 401.875 315.281 400.878 315.938 400.039C316.595 399.178 317.513 398.52 318.692 398.067C319.893 397.591 321.31 397.353 322.942 397.353C324.166 397.353 325.401 397.489 326.648 397.761C327.895 398.033 328.926 398.418 329.742 398.917L328.11 402.147C327.249 401.626 326.376 401.274 325.492 401.093C324.631 400.889 323.769 400.787 322.908 400.787C321.616 400.787 320.653 400.98 320.018 401.365C319.406 401.75 319.1 402.238 319.1 402.827C319.1 403.371 319.304 403.779 319.712 404.051C320.12 404.323 320.653 404.538 321.31 404.697C321.967 404.856 322.693 404.992 323.486 405.105C324.302 405.196 325.107 405.343 325.9 405.547C326.693 405.751 327.419 406.034 328.076 406.397C328.756 406.737 329.3 407.224 329.708 407.859C330.116 408.494 330.32 409.321 330.32 410.341C330.32 411.474 329.98 412.46 329.3 413.299C328.643 414.138 327.702 414.795 326.478 415.271C325.254 415.724 323.792 415.951 322.092 415.951Z" fill="#010203"/>
<path d="M867.656 32.9015C865.736 32.9015 863.96 32.5895 862.328 31.9655C860.72 31.3175 859.316 30.4175 858.116 29.2655C856.94 28.1135 856.016 26.7575 855.344 25.1975C854.696 23.6375 854.372 21.9335 854.372 20.0855C854.372 18.2375 854.696 16.5335 855.344 14.9735C856.016 13.4135 856.952 12.0575 858.152 10.9055C859.352 9.75355 860.756 8.86555 862.364 8.24155C863.996 7.59355 865.772 7.26955 867.692 7.26955C869.612 7.26955 871.364 7.56955 872.948 8.16954C874.556 8.76955 875.924 9.68155 877.052 10.9055L875.396 12.5975C874.34 11.5415 873.176 10.7855 871.904 10.3295C870.632 9.87355 869.264 9.64555 867.8 9.64555C866.24 9.64555 864.8 9.90955 863.48 10.4375C862.184 10.9415 861.044 11.6735 860.06 12.6335C859.1 13.5695 858.344 14.6735 857.792 15.9455C857.264 17.1935 857 18.5735 857 20.0855C857 21.5735 857.264 22.9535 857.792 24.2255C858.344 25.4975 859.1 26.6135 860.06 27.5735C861.044 28.5095 862.184 29.2415 863.48 29.7695C864.8 30.2735 866.228 30.5255 867.764 30.5255C869.204 30.5255 870.56 30.3095 871.832 29.8775C873.128 29.4455 874.316 28.7135 875.396 27.6815L876.908 29.6975C875.708 30.7535 874.304 31.5575 872.696 32.1095C871.088 32.6375 869.408 32.9015 867.656 32.9015ZM874.352 29.3735V20.0855H876.908V29.6975L874.352 29.3735ZM891.216 32.8655C889.248 32.8655 887.52 32.4575 886.032 31.6415C884.544 30.8015 883.38 29.6615 882.54 28.2215C881.7 26.7575 881.28 25.0895 881.28 23.2175C881.28 21.3455 881.676 19.6895 882.468 18.2495C883.284 16.8095 884.388 15.6815 885.78 14.8655C887.196 14.0255 888.78 13.6055 890.532 13.6055C892.308 13.6055 893.88 14.0135 895.248 14.8295C896.64 15.6215 897.732 16.7495 898.524 18.2135C899.316 19.6535 899.712 21.3215 899.712 23.2175C899.712 23.3375 899.7 23.4695 899.676 23.6135C899.676 23.7335 899.676 23.8655 899.676 24.0095H883.224V22.1015H898.308L897.3 22.8575C897.3 21.4895 897 20.2775 896.4 19.2215C895.824 18.1415 895.032 17.3015 894.024 16.7015C893.016 16.1015 891.852 15.8015 890.532 15.8015C889.236 15.8015 888.072 16.1015 887.04 16.7015C886.008 17.3015 885.204 18.1415 884.628 19.2215C884.052 20.3015 883.764 21.5375 883.764 22.9295V23.3255C883.764 24.7655 884.076 26.0375 884.7 27.1415C885.348 28.2215 886.236 29.0735 887.364 29.6975C888.516 30.2975 889.824 30.5975 891.288 30.5975C892.44 30.5975 893.508 30.3935 894.492 29.9855C895.5 29.5775 896.364 28.9535 897.084 28.1135L898.524 29.7695C897.684 30.7775 896.628 31.5455 895.356 32.0735C894.108 32.6015 892.728 32.8655 891.216 32.8655ZM910.17 32.8655C908.394 32.8655 907.026 32.3855 906.066 31.4255C905.106 30.4655 904.626 29.1095 904.626 27.3575V9.60955H907.182V27.2135C907.182 28.3175 907.458 29.1695 908.01 29.7695C908.586 30.3695 909.402 30.6695 910.458 30.6695C911.586 30.6695 912.522 30.3455 913.266 29.6975L914.166 31.5335C913.662 31.9895 913.05 32.3255 912.33 32.5415C911.634 32.7575 910.914 32.8655 910.17 32.8655ZM901.242 15.9095V13.7855H912.942V15.9095H901.242ZM938.645 32.6855V28.5095L938.537 27.8255V20.8415C938.537 19.2335 938.081 17.9975 937.169 17.1335C936.281 16.2695 934.949 15.8375 933.173 15.8375C931.949 15.8375 930.785 16.0415 929.681 16.4495C928.577 16.8575 927.641 17.3975 926.873 18.0695L925.721 16.1615C926.681 15.3455 927.833 14.7215 929.177 14.2895C930.521 13.8335 931.937 13.6055 933.425 13.6055C935.873 13.6055 937.757 14.2175 939.077 15.4415C940.421 16.6415 941.093 18.4775 941.093 20.9495V32.6855H938.645ZM932.129 32.8655C930.713 32.8655 929.477 32.6375 928.421 32.1815C927.389 31.7015 926.597 31.0535 926.045 30.2375C925.493 29.3975 925.217 28.4375 925.217 27.3575C925.217 26.3735 925.445 25.4855 925.901 24.6935C926.381 23.8775 927.149 23.2295 928.205 22.7495C929.285 22.2455 930.725 21.9935 932.525 21.9935H939.041V23.9015H932.597C930.773 23.9015 929.501 24.2255 928.781 24.8735C928.085 25.5215 927.737 26.3255 927.737 27.2855C927.737 28.3655 928.157 29.2295 928.997 29.8775C929.837 30.5255 931.013 30.8495 932.525 30.8495C933.965 30.8495 935.201 30.5255 936.233 29.8775C937.289 29.2055 938.057 28.2455 938.537 26.9975L939.113 28.7615C938.633 30.0095 937.793 31.0055 936.593 31.7495C935.417 32.4935 933.929 32.8655 932.129 32.8655ZM965.773 32.8655C964.117 32.8655 962.629 32.4935 961.309 31.7495C959.989 30.9815 958.945 29.8775 958.177 28.4375C957.409 26.9975 957.025 25.2575 957.025 23.2175C957.025 21.1535 957.409 19.4135 958.177 17.9975C958.969 16.5575 960.025 15.4655 961.345 14.7215C962.665 13.9775 964.141 13.6055 965.773 13.6055C967.573 13.6055 969.181 14.0135 970.597 14.8295C972.037 15.6215 973.165 16.7375 973.981 18.1775C974.797 19.6175 975.205 21.2975 975.205 23.2175C975.205 25.1135 974.797 26.7935 973.981 28.2575C973.165 29.6975 972.037 30.8255 970.597 31.6415C969.181 32.4575 967.573 32.8655 965.773 32.8655ZM956.017 32.6855V5.97355H958.573V19.3655L958.213 23.1815L958.465 26.9975V32.6855H956.017ZM965.593 30.5975C966.937 30.5975 968.137 30.2975 969.193 29.6975C970.249 29.0735 971.089 28.2095 971.713 27.1055C972.337 25.9775 972.649 24.6815 972.649 23.2175C972.649 21.7295 972.337 20.4335 971.713 19.3295C971.089 18.2255 970.249 17.3735 969.193 16.7735C968.137 16.1495 966.937 15.8375 965.593 15.8375C964.249 15.8375 963.037 16.1495 961.957 16.7735C960.901 17.3735 960.061 18.2255 959.437 19.3295C958.837 20.4335 958.537 21.7295 958.537 23.2175C958.537 24.6815 958.837 25.9775 959.437 27.1055C960.061 28.2095 960.901 29.0735 961.957 29.6975C963.037 30.2975 964.249 30.5975 965.593 30.5975ZM979.696 32.6855V13.7855H982.144V18.9335L981.892 18.0335C982.42 16.5935 983.308 15.5015 984.556 14.7575C985.804 13.9895 987.352 13.6055 989.2 13.6055V16.0895C989.104 16.0895 989.008 16.0895 988.912 16.0895C988.816 16.0655 988.72 16.0535 988.624 16.0535C986.632 16.0535 985.072 16.6655 983.944 17.8895C982.816 19.0895 982.252 20.8055 982.252 23.0375V32.6855H979.696ZM1003.58 32.6855V28.5095L1003.47 27.8255V20.8415C1003.47 19.2335 1003.02 17.9975 1002.11 17.1335C1001.22 16.2695 999.886 15.8375 998.11 15.8375C996.886 15.8375 995.722 16.0415 994.618 16.4495C993.514 16.8575 992.578 17.3975 991.81 18.0695L990.658 16.1615C991.618 15.3455 992.77 14.7215 994.114 14.2895C995.458 13.8335 996.874 13.6055 998.362 13.6055C1000.81 13.6055 1002.69 14.2175 1004.01 15.4415C1005.36 16.6415 1006.03 18.4775 1006.03 20.9495V32.6855H1003.58ZM997.066 32.8655C995.65 32.8655 994.414 32.6375 993.358 32.1815C992.326 31.7015 991.534 31.0535 990.982 30.2375C990.43 29.3975 990.154 28.4375 990.154 27.3575C990.154 26.3735 990.382 25.4855 990.838 24.6935C991.318 23.8775 992.086 23.2295 993.142 22.7495C994.222 22.2455 995.662 21.9935 997.462 21.9935H1003.98V23.9015H997.534C995.71 23.9015 994.438 24.2255 993.718 24.8735C993.022 25.5215 992.674 26.3255 992.674 27.2855C992.674 28.3655 993.094 29.2295 993.934 29.8775C994.774 30.5255 995.95 30.8495 997.462 30.8495C998.902 30.8495 1000.14 30.5255 1001.17 29.8775C1002.23 29.2055 1002.99 28.2455 1003.47 26.9975L1004.05 28.7615C1003.57 30.0095 1002.73 31.0055 1001.53 31.7495C1000.35 32.4935 998.866 32.8655 997.066 32.8655ZM1021.9 13.6055C1023.44 13.6055 1024.78 13.9055 1025.93 14.5055C1027.11 15.0815 1028.02 15.9695 1028.67 17.1695C1029.34 18.3695 1029.68 19.8815 1029.68 21.7055V32.6855H1027.12V21.9575C1027.12 19.9655 1026.62 18.4655 1025.61 17.4575C1024.62 16.4255 1023.23 15.9095 1021.43 15.9095C1020.09 15.9095 1018.91 16.1855 1017.9 16.7375C1016.92 17.2655 1016.15 18.0455 1015.6 19.0775C1015.07 20.0855 1014.81 21.3095 1014.81 22.7495V32.6855H1012.25V13.7855H1014.7V18.9695L1014.3 17.9975C1014.9 16.6295 1015.86 15.5615 1017.18 14.7935C1018.5 14.0015 1020.08 13.6055 1021.9 13.6055ZM1043.38 32.8655C1041.58 32.8655 1039.96 32.4575 1038.52 31.6415C1037.11 30.8255 1035.99 29.6975 1035.18 28.2575C1034.36 26.7935 1033.95 25.1135 1033.95 23.2175C1033.95 21.2975 1034.36 19.6175 1035.18 18.1775C1035.99 16.7375 1037.11 15.6215 1038.52 14.8295C1039.96 14.0135 1041.58 13.6055 1043.38 13.6055C1045.04 13.6055 1046.52 13.9775 1047.81 14.7215C1049.13 15.4655 1050.18 16.5575 1050.94 17.9975C1051.74 19.4135 1052.13 21.1535 1052.13 23.2175C1052.13 25.2575 1051.75 26.9975 1050.98 28.4375C1050.21 29.8775 1049.17 30.9815 1047.85 31.7495C1046.55 32.4935 1045.06 32.8655 1043.38 32.8655ZM1043.56 30.5975C1044.91 30.5975 1046.11 30.2975 1047.16 29.6975C1048.24 29.0735 1049.08 28.2095 1049.68 27.1055C1050.31 25.9775 1050.62 24.6815 1050.62 23.2175C1050.62 21.7295 1050.31 20.4335 1049.68 19.3295C1049.08 18.2255 1048.24 17.3735 1047.16 16.7735C1046.11 16.1495 1044.91 15.8375 1043.56 15.8375C1042.24 15.8375 1041.06 16.1495 1040 16.7735C1038.94 17.3735 1038.1 18.2255 1037.48 19.3295C1036.86 20.4335 1036.54 21.7295 1036.54 23.2175C1036.54 24.6815 1036.86 25.9775 1037.48 27.1055C1038.1 28.2095 1038.94 29.0735 1040 29.6975C1041.06 30.2975 1042.24 30.5975 1043.56 30.5975ZM1050.69 32.6855V26.9975L1050.94 23.1815L1050.58 19.3655V5.97355H1053.14V32.6855H1050.69ZM1067.57 32.8655C1065.6 32.8655 1063.87 32.4575 1062.38 31.6415C1060.89 30.8015 1059.73 29.6615 1058.89 28.2215C1058.05 26.7575 1057.63 25.0895 1057.63 23.2175C1057.63 21.3455 1058.03 19.6895 1058.82 18.2495C1059.63 16.8095 1060.74 15.6815 1062.13 14.8655C1063.55 14.0255 1065.13 13.6055 1066.88 13.6055C1068.66 13.6055 1070.23 14.0135 1071.6 14.8295C1072.99 15.6215 1074.08 16.7495 1074.87 18.2135C1075.67 19.6535 1076.06 21.3215 1076.06 23.2175C1076.06 23.3375 1076.05 23.4695 1076.03 23.6135C1076.03 23.7335 1076.03 23.8655 1076.03 24.0095H1059.57V22.1015H1074.66L1073.65 22.8575C1073.65 21.4895 1073.35 20.2775 1072.75 19.2215C1072.17 18.1415 1071.38 17.3015 1070.37 16.7015C1069.37 16.1015 1068.2 15.8015 1066.88 15.8015C1065.59 15.8015 1064.42 16.1015 1063.39 16.7015C1062.36 17.3015 1061.55 18.1415 1060.98 19.2215C1060.4 20.3015 1060.11 21.5375 1060.11 22.9295V23.3255C1060.11 24.7655 1060.43 26.0375 1061.05 27.1415C1061.7 28.2215 1062.59 29.0735 1063.71 29.6975C1064.87 30.2975 1066.17 30.5975 1067.64 30.5975C1068.79 30.5975 1069.86 30.3935 1070.84 29.9855C1071.85 29.5775 1072.71 28.9535 1073.43 28.1135L1074.87 29.7695C1074.03 30.7775 1072.98 31.5455 1071.71 32.0735C1070.46 32.6015 1069.08 32.8655 1067.57 32.8655ZM1088.07 32.8655C1086.27 32.8655 1084.65 32.4575 1083.21 31.6415C1081.79 30.8255 1080.68 29.6975 1079.86 28.2575C1079.05 26.7935 1078.64 25.1135 1078.64 23.2175C1078.64 21.2975 1079.05 19.6175 1079.86 18.1775C1080.68 16.7375 1081.79 15.6215 1083.21 14.8295C1084.65 14.0135 1086.27 13.6055 1088.07 13.6055C1089.73 13.6055 1091.2 13.9775 1092.5 14.7215C1093.82 15.4655 1094.86 16.5575 1095.63 17.9975C1096.42 19.4135 1096.82 21.1535 1096.82 23.2175C1096.82 25.2575 1096.43 26.9975 1095.67 28.4375C1094.9 29.8775 1093.85 30.9815 1092.53 31.7495C1091.24 32.4935 1089.75 32.8655 1088.07 32.8655ZM1088.25 30.5975C1089.59 30.5975 1090.79 30.2975 1091.85 29.6975C1092.93 29.0735 1093.77 28.2095 1094.37 27.1055C1094.99 25.9775 1095.31 24.6815 1095.31 23.2175C1095.31 21.7295 1094.99 20.4335 1094.37 19.3295C1093.77 18.2255 1092.93 17.3735 1091.85 16.7735C1090.79 16.1495 1089.59 15.8375 1088.25 15.8375C1086.93 15.8375 1085.74 16.1495 1084.69 16.7735C1083.63 17.3735 1082.79 18.2255 1082.17 19.3295C1081.54 20.4335 1081.23 21.7295 1081.23 23.2175C1081.23 24.6815 1081.54 25.9775 1082.17 27.1055C1082.79 28.2095 1083.63 29.0735 1084.69 29.6975C1085.74 30.2975 1086.93 30.5975 1088.25 30.5975ZM1095.38 32.6855V26.9975L1095.63 23.1815L1095.27 19.3655V5.97355H1097.83V32.6855H1095.38ZM798.561 45.4855H803.241V70.6855H798.561V45.4855ZM785.529 70.6855H780.849V45.4855H785.529V70.6855ZM798.921 59.8855H785.133V55.8895H798.921V59.8855ZM814.386 70.6855V49.4455H806.034V45.4855H827.418V49.4455H819.066V70.6855H814.386ZM830.21 70.6855V45.4855H834.062L845.078 63.8815H843.062L853.898 45.4855H857.75L857.786 70.6855H853.358L853.322 52.4335H854.258L845.042 67.8055H842.954L833.594 52.4335H834.674V70.6855H830.21ZM863.873 70.6855V45.4855H868.553V66.7255H881.729V70.6855H863.873ZM905.43 70.6855V66.5095L905.322 65.8255V58.8415C905.322 57.2335 904.866 55.9975 903.954 55.1335C903.066 54.2695 901.734 53.8375 899.958 53.8375C898.734 53.8375 897.57 54.0415 896.466 54.4495C895.362 54.8575 894.426 55.3975 893.658 56.0695L892.506 54.1615C893.466 53.3455 894.618 52.7215 895.962 52.2895C897.306 51.8335 898.722 51.6055 900.21 51.6055C902.658 51.6055 904.542 52.2175 905.862 53.4415C907.206 54.6415 907.878 56.4775 907.878 58.9495V70.6855H905.43ZM898.914 70.8655C897.498 70.8655 896.262 70.6375 895.206 70.1815C894.174 69.7015 893.382 69.0535 892.83 68.2375C892.278 67.3975 892.002 66.4375 892.002 65.3575C892.002 64.3735 892.23 63.4855 892.686 62.6935C893.166 61.8775 893.934 61.2295 894.99 60.7495C896.07 60.2455 897.51 59.9935 899.31 59.9935H905.826V61.9015H899.382C897.558 61.9015 896.286 62.2255 895.566 62.8735C894.87 63.5215 894.522 64.3255 894.522 65.2855C894.522 66.3655 894.942 67.2295 895.782 67.8775C896.622 68.5255 897.798 68.8495 899.31 68.8495C900.75 68.8495 901.986 68.5255 903.018 67.8775C904.074 67.2055 904.842 66.2455 905.322 64.9975L905.898 66.7615C905.418 68.0095 904.578 69.0055 903.378 69.7495C902.202 70.4935 900.714 70.8655 898.914 70.8655ZM923.748 51.6055C925.284 51.6055 926.628 51.9055 927.78 52.5055C928.956 53.0815 929.868 53.9695 930.516 55.1695C931.188 56.3695 931.524 57.8815 931.524 59.7055V70.6855H928.968V59.9575C928.968 57.9655 928.464 56.4655 927.456 55.4575C926.472 54.4255 925.08 53.9095 923.28 53.9095C921.936 53.9095 920.76 54.1855 919.752 54.7375C918.768 55.2655 918 56.0455 917.448 57.0775C916.92 58.0855 916.656 59.3095 916.656 60.7495V70.6855H914.1V51.7855H916.548V56.9695L916.152 55.9975C916.752 54.6295 917.712 53.5615 919.032 52.7935C920.352 52.0015 921.924 51.6055 923.748 51.6055ZM945.232 70.8655C943.432 70.8655 941.812 70.4575 940.372 69.6415C938.956 68.8255 937.84 67.6975 937.024 66.2575C936.208 64.7935 935.8 63.1135 935.8 61.2175C935.8 59.2975 936.208 57.6175 937.024 56.1775C937.84 54.7375 938.956 53.6215 940.372 52.8295C941.812 52.0135 943.432 51.6055 945.232 51.6055C946.888 51.6055 948.364 51.9775 949.66 52.7215C950.98 53.4655 952.024 54.5575 952.792 55.9975C953.584 57.4135 953.98 59.1535 953.98 61.2175C953.98 63.2575 953.596 64.9975 952.828 66.4375C952.06 67.8775 951.016 68.9815 949.696 69.7495C948.4 70.4935 946.912 70.8655 945.232 70.8655ZM945.412 68.5975C946.756 68.5975 947.956 68.2975 949.012 67.6975C950.092 67.0735 950.932 66.2095 951.532 65.1055C952.156 63.9775 952.468 62.6815 952.468 61.2175C952.468 59.7295 952.156 58.4335 951.532 57.3295C950.932 56.2255 950.092 55.3735 949.012 54.7735C947.956 54.1495 946.756 53.8375 945.412 53.8375C944.092 53.8375 942.904 54.1495 941.848 54.7735C940.792 55.3735 939.952 56.2255 939.328 57.3295C938.704 58.4335 938.392 59.7295 938.392 61.2175C938.392 62.6815 938.704 63.9775 939.328 65.1055C939.952 66.2095 940.792 67.0735 941.848 67.6975C942.904 68.2975 944.092 68.5975 945.412 68.5975ZM952.54 70.6855V64.9975L952.792 61.1815L952.432 57.3655V43.9735H954.988V70.6855H952.54ZM969.908 70.6855V45.4855H980.276C982.508 45.4855 984.416 45.8455 986 46.5655C987.608 47.2855 988.844 48.3175 989.708 49.6615C990.572 51.0055 991.004 52.6015 991.004 54.4495C991.004 56.2975 990.572 57.8935 989.708 59.2375C988.844 60.5815 987.608 61.6135 986 62.3335C984.416 63.0535 982.508 63.4135 980.276 63.4135H972.5L974.588 61.2175V70.6855H969.908ZM974.588 61.7215L972.5 59.4535H980.06C982.124 59.4535 983.672 59.0215 984.704 58.1575C985.76 57.2695 986.288 56.0335 986.288 54.4495C986.288 52.8415 985.76 51.6055 984.704 50.7415C983.672 49.8775 982.124 49.4455 980.06 49.4455H972.5L974.588 47.1415V61.7215ZM994.958 70.6855V45.4855H1005.97C1008.71 45.4855 1011.11 46.0135 1013.17 47.0695C1015.24 48.1255 1016.85 49.5895 1018 51.4615C1019.15 53.3335 1019.73 55.5415 1019.73 58.0855C1019.73 60.6055 1019.15 62.8135 1018 64.7095C1016.85 66.5815 1015.24 68.0455 1013.17 69.1015C1011.11 70.1575 1008.71 70.6855 1005.97 70.6855H994.958ZM999.638 66.7255H1005.76C1007.65 66.7255 1009.29 66.3655 1010.65 65.6455C1012.05 64.9255 1013.11 63.9175 1013.86 62.6215C1014.63 61.3255 1015.01 59.8135 1015.01 58.0855C1015.01 56.3335 1014.63 54.8215 1013.86 53.5495C1013.11 52.2535 1012.05 51.2455 1010.65 50.5255C1009.29 49.8055 1007.65 49.4455 1005.76 49.4455H999.638V66.7255ZM1028.26 57.0775H1040.83V61.0375H1028.26V57.0775ZM1028.66 70.6855H1023.98V45.4855H1042.38V49.4095H1028.66V70.6855ZM1059.92 70.6855L1051.54 51.7855H1054.2L1061.9 69.3175H1060.64L1068.46 51.7855H1070.98L1062.55 70.6855H1059.92ZM1081.36 70.8655C1079.39 70.8655 1077.66 70.4575 1076.17 69.6415C1074.68 68.8015 1073.52 67.6615 1072.68 66.2215C1071.84 64.7575 1071.42 63.0895 1071.42 61.2175C1071.42 59.3455 1071.82 57.6895 1072.61 56.2495C1073.42 54.8095 1074.53 53.6815 1075.92 52.8655C1077.34 52.0255 1078.92 51.6055 1080.67 51.6055C1082.45 51.6055 1084.02 52.0135 1085.39 52.8295C1086.78 53.6215 1087.87 54.7495 1088.66 56.2135C1089.46 57.6535 1089.85 59.3215 1089.85 61.2175C1089.85 61.3375 1089.84 61.4695 1089.82 61.6135C1089.82 61.7335 1089.82 61.8655 1089.82 62.0095H1073.36V60.1015H1088.45L1087.44 60.8575C1087.44 59.4895 1087.14 58.2775 1086.54 57.2215C1085.96 56.1415 1085.17 55.3015 1084.16 54.7015C1083.16 54.1015 1081.99 53.8015 1080.67 53.8015C1079.38 53.8015 1078.21 54.1015 1077.18 54.7015C1076.15 55.3015 1075.34 56.1415 1074.77 57.2215C1074.19 58.3015 1073.9 59.5375 1073.9 60.9295V61.3255C1073.9 62.7655 1074.22 64.0375 1074.84 65.1415C1075.49 66.2215 1076.38 67.0735 1077.5 67.6975C1078.66 68.2975 1079.96 68.5975 1081.43 68.5975C1082.58 68.5975 1083.65 68.3935 1084.63 67.9855C1085.64 67.5775 1086.5 66.9535 1087.22 66.1135L1088.66 67.7695C1087.82 68.7775 1086.77 69.5455 1085.5 70.0735C1084.25 70.6015 1082.87 70.8655 1081.36 70.8655ZM1094.33 70.6855V51.7855H1096.78V56.9335L1096.53 56.0335C1097.06 54.5935 1097.95 53.5015 1099.19 52.7575C1100.44 51.9895 1101.99 51.6055 1103.84 51.6055V54.0895C1103.74 54.0895 1103.65 54.0895 1103.55 54.0895C1103.45 54.0655 1103.36 54.0535 1103.26 54.0535C1101.27 54.0535 1099.71 54.6655 1098.58 55.8895C1097.45 57.0895 1096.89 58.8055 1096.89 61.0375V70.6855H1094.33ZM1113.07 70.8655C1111.51 70.8655 1110.03 70.6495 1108.64 70.2175C1107.25 69.7615 1106.16 69.1975 1105.37 68.5255L1106.52 66.5095C1107.29 67.0855 1108.27 67.5895 1109.47 68.0215C1110.67 68.4295 1111.93 68.6335 1113.25 68.6335C1115.05 68.6335 1116.35 68.3575 1117.14 67.8055C1117.93 67.2295 1118.33 66.4735 1118.33 65.5375C1118.33 64.8415 1118.1 64.3015 1117.64 63.9175C1117.21 63.5095 1116.63 63.2095 1115.91 63.0175C1115.19 62.8015 1114.39 62.6215 1113.5 62.4775C1112.61 62.3335 1111.73 62.1655 1110.84 61.9735C1109.97 61.7815 1109.18 61.5055 1108.46 61.1455C1107.74 60.7615 1107.15 60.2455 1106.7 59.5975C1106.27 58.9495 1106.05 58.0855 1106.05 57.0055C1106.05 55.9735 1106.34 55.0495 1106.91 54.2335C1107.49 53.4175 1108.33 52.7815 1109.43 52.3255C1110.56 51.8455 1111.93 51.6055 1113.54 51.6055C1114.76 51.6055 1115.99 51.7735 1117.21 52.1095C1118.43 52.4215 1119.44 52.8415 1120.23 53.3695L1119.12 55.4215C1118.28 54.8455 1117.38 54.4375 1116.42 54.1975C1115.46 53.9335 1114.5 53.8015 1113.54 53.8015C1111.83 53.8015 1110.57 54.1015 1109.76 54.7015C1108.97 55.2775 1108.57 56.0215 1108.57 56.9335C1108.57 57.6535 1108.79 58.2175 1109.22 58.6255C1109.67 59.0335 1110.26 59.3575 1110.98 59.5975C1111.73 59.8135 1112.53 59.9935 1113.39 60.1375C1114.28 60.2815 1115.16 60.4615 1116.02 60.6775C1116.91 60.8695 1117.71 61.1455 1118.43 61.5055C1119.18 61.8415 1119.77 62.3335 1120.2 62.9815C1120.65 63.6055 1120.88 64.4335 1120.88 65.4655C1120.88 66.5695 1120.57 67.5295 1119.95 68.3455C1119.35 69.1375 1118.46 69.7615 1117.28 70.2175C1116.13 70.6495 1114.73 70.8655 1113.07 70.8655ZM1124.85 70.6855V51.7855H1127.41V70.6855H1124.85ZM1126.15 47.6095C1125.62 47.6095 1125.18 47.4295 1124.82 47.0695C1124.46 46.7095 1124.28 46.2775 1124.28 45.7735C1124.28 45.2695 1124.46 44.8495 1124.82 44.5135C1125.18 44.1535 1125.62 43.9735 1126.15 43.9735C1126.68 43.9735 1127.12 44.1415 1127.48 44.4775C1127.84 44.8135 1128.02 45.2335 1128.02 45.7375C1128.02 46.2655 1127.84 46.7095 1127.48 47.0695C1127.14 47.4295 1126.7 47.6095 1126.15 47.6095ZM1141.5 70.8655C1139.68 70.8655 1138.04 70.4575 1136.57 69.6415C1135.13 68.8015 1133.99 67.6615 1133.15 66.2215C1132.31 64.7575 1131.89 63.0895 1131.89 61.2175C1131.89 59.3215 1132.31 57.6535 1133.15 56.2135C1133.99 54.7735 1135.13 53.6455 1136.57 52.8295C1138.01 52.0135 1139.66 51.6055 1141.5 51.6055C1143.38 51.6055 1145.03 52.0135 1146.47 52.8295C1147.94 53.6455 1149.08 54.7735 1149.89 56.2135C1150.73 57.6535 1151.15 59.3215 1151.15 61.2175C1151.15 63.0895 1150.73 64.7575 1149.89 66.2215C1149.08 67.6615 1147.94 68.8015 1146.47 69.6415C1145.01 70.4575 1143.35 70.8655 1141.5 70.8655ZM1141.5 68.5975C1142.87 68.5975 1144.08 68.2975 1145.14 67.6975C1146.2 67.0735 1147.02 66.2095 1147.62 65.1055C1148.25 63.9775 1148.56 62.6815 1148.56 61.2175C1148.56 59.7295 1148.25 58.4335 1147.62 57.3295C1147.02 56.2255 1146.2 55.3735 1145.14 54.7735C1144.08 54.1495 1142.88 53.8375 1141.54 53.8375C1140.2 53.8375 1139 54.1495 1137.94 54.7735C1136.88 55.3735 1136.04 56.2255 1135.42 57.3295C1134.8 58.4335 1134.48 59.7295 1134.48 61.2175C1134.48 62.6815 1134.8 63.9775 1135.42 65.1055C1136.04 66.2095 1136.88 67.0735 1137.94 67.6975C1139 68.2975 1140.18 68.5975 1141.5 68.5975ZM1165.3 51.6055C1166.83 51.6055 1168.18 51.9055 1169.33 52.5055C1170.51 53.0815 1171.42 53.9695 1172.07 55.1695C1172.74 56.3695 1173.07 57.8815 1173.07 59.7055V70.6855H1170.52V59.9575C1170.52 57.9655 1170.01 56.4655 1169.01 55.4575C1168.02 54.4255 1166.63 53.9095 1164.83 53.9095C1163.49 53.9095 1162.31 54.1855 1161.3 54.7375C1160.32 55.2655 1159.55 56.0455 1159 57.0775C1158.47 58.0855 1158.21 59.3095 1158.21 60.7495V70.6855H1155.65V51.7855H1158.1V56.9695L1157.7 55.9975C1158.3 54.6295 1159.26 53.5615 1160.58 52.7935C1161.9 52.0015 1163.47 51.6055 1165.3 51.6055Z" fill="#010203"/>
<path d="M356.954 109.825C356.373 108.572 354.886 108.028 353.634 108.609C352.381 109.19 351.837 110.677 352.418 111.929L356.954 109.825ZM380.177 151.662L378.36 153.379L380.177 151.662ZM424.786 181.614L425.813 179.334L424.786 181.614ZM477.244 197.096C478.359 196.281 478.602 194.717 477.787 193.602L464.511 175.437C463.696 174.322 462.132 174.079 461.017 174.894C459.902 175.708 459.659 177.272 460.474 178.387L472.275 194.534L456.128 206.336C455.013 207.15 454.77 208.714 455.585 209.829C456.4 210.944 457.964 211.187 459.078 210.372L477.244 197.096ZM354.686 110.877C352.418 111.929 352.418 111.929 352.418 111.93C352.418 111.93 352.419 111.931 352.419 111.931C352.419 111.932 352.42 111.934 352.421 111.936C352.423 111.94 352.425 111.945 352.429 111.952C352.435 111.967 352.445 111.988 352.458 112.015C352.483 112.069 352.52 112.148 352.569 112.252C352.667 112.459 352.811 112.763 352.999 113.153C353.373 113.932 353.922 115.058 354.619 116.45C356.014 119.233 358.009 123.087 360.412 127.373C365.19 135.894 371.686 146.318 378.36 153.379L381.994 149.945C375.766 143.356 369.517 133.388 364.774 124.928C362.417 120.724 360.458 116.941 359.089 114.21C358.405 112.845 357.869 111.744 357.505 110.987C357.323 110.608 357.184 110.315 357.091 110.118C357.045 110.02 357.01 109.945 356.987 109.896C356.975 109.871 356.967 109.853 356.961 109.841C356.958 109.835 356.956 109.831 356.955 109.828C356.954 109.827 356.954 109.826 356.954 109.825C356.954 109.825 356.954 109.825 356.954 109.825C356.954 109.825 356.954 109.825 354.686 110.877ZM378.36 153.379C393.089 168.962 404.481 175.21 423.76 183.893L425.813 179.334C406.827 170.784 396.093 164.861 381.994 149.945L378.36 153.379ZM423.76 183.893C433.394 188.232 446.349 191.642 456.777 193.957C462.015 195.12 466.66 196.017 469.996 196.623C471.665 196.926 473.008 197.156 473.936 197.312C474.4 197.389 474.76 197.448 475.005 197.487C475.127 197.507 475.221 197.522 475.285 197.532C475.317 197.537 475.341 197.541 475.358 197.544C475.366 197.545 475.373 197.546 475.377 197.547C475.379 197.547 475.381 197.547 475.382 197.547C475.383 197.548 475.384 197.548 475.384 197.548C475.384 197.548 475.385 197.548 475.769 195.077C476.153 192.607 476.153 192.607 476.153 192.607C476.153 192.607 476.153 192.607 476.152 192.607C476.151 192.607 476.15 192.607 476.149 192.606C476.145 192.606 476.14 192.605 476.133 192.604C476.118 192.602 476.096 192.598 476.066 192.594C476.007 192.584 475.918 192.57 475.8 192.551C475.564 192.513 475.214 192.456 474.761 192.38C473.854 192.228 472.534 192.002 470.89 191.703C467.601 191.106 463.021 190.222 457.861 189.076C447.491 186.774 434.955 183.452 425.813 179.334L423.76 183.893Z" fill="black"/>
<path d="M403.119 284.802L404.046 287.124L403.119 284.802ZM461.589 258.771C461.995 257.451 461.254 256.053 459.934 255.647L438.428 249.034C437.108 248.628 435.709 249.369 435.304 250.689C434.898 252.008 435.639 253.407 436.958 253.813L456.075 259.691L450.197 278.808C449.791 280.128 450.532 281.526 451.852 281.932C453.172 282.338 454.57 281.597 454.976 280.277L461.589 258.771ZM308.573 306.219C307.203 306.384 306.224 307.628 306.389 308.999C306.553 310.37 307.798 311.348 309.169 311.184L308.573 306.219ZM358.51 300.097L359.137 302.517L358.51 300.097ZM404.046 287.124C415.414 282.585 429.509 275.855 440.723 270.283C446.339 267.493 451.248 264.985 454.753 263.174C456.506 262.269 457.909 261.537 458.874 261.032C459.356 260.779 459.73 260.583 459.982 260.45C460.109 260.383 460.205 260.332 460.27 260.298C460.303 260.281 460.327 260.268 460.344 260.259C460.352 260.255 460.359 260.251 460.363 260.249C460.365 260.248 460.367 260.247 460.368 260.247C460.368 260.246 460.369 260.246 460.369 260.246C460.369 260.246 460.37 260.246 459.199 258.036C458.029 255.827 458.029 255.827 458.029 255.827C458.029 255.827 458.029 255.827 458.028 255.828C458.027 255.828 458.026 255.829 458.024 255.83C458.02 255.832 458.014 255.835 458.006 255.839C457.99 255.848 457.967 255.86 457.935 255.877C457.872 255.91 457.777 255.96 457.652 256.026C457.403 256.158 457.033 256.352 456.554 256.603C455.597 257.104 454.203 257.831 452.459 258.732C448.971 260.533 444.086 263.029 438.498 265.806C427.306 271.367 413.361 278.02 402.192 282.48L404.046 287.124ZM308.871 308.702C309.169 311.184 309.169 311.184 309.169 311.184C309.17 311.184 309.17 311.184 309.171 311.184C309.172 311.184 309.173 311.183 309.175 311.183C309.179 311.183 309.185 311.182 309.193 311.181C309.208 311.179 309.231 311.176 309.261 311.173C309.32 311.166 309.408 311.155 309.524 311.141C309.755 311.112 310.096 311.07 310.535 311.015C311.414 310.904 312.689 310.741 314.279 310.529C317.457 310.107 321.892 309.492 326.927 308.721C336.971 307.185 349.485 305.018 359.137 302.517L357.882 297.677C348.489 300.111 336.184 302.247 326.17 303.779C321.176 304.543 316.773 305.154 313.619 305.573C312.043 305.783 310.779 305.945 309.911 306.054C309.476 306.109 309.141 306.15 308.915 306.178C308.802 306.192 308.716 306.202 308.658 306.209C308.63 306.213 308.608 306.215 308.594 306.217C308.587 306.218 308.582 306.218 308.578 306.219C308.576 306.219 308.575 306.219 308.574 306.219C308.574 306.219 308.574 306.219 308.574 306.219C308.573 306.219 308.573 306.219 308.871 308.702ZM359.137 302.517C377.125 297.854 386.926 293.96 404.046 287.124L402.192 282.48C385.105 289.303 375.549 293.098 357.882 297.677L359.137 302.517Z" fill="black"/>
<path d="M737.742 175.914C736.822 176.943 736.91 178.523 737.939 179.444C738.968 180.364 740.548 180.276 741.469 179.247L737.742 175.914ZM761.336 159.687L762.407 161.946L761.336 159.687ZM800.451 155.962L800.112 158.439L800.451 155.962ZM835.345 170.764C836.662 170.35 837.395 168.948 836.982 167.63L830.249 146.161C829.836 144.844 828.433 144.11 827.116 144.524C825.799 144.937 825.065 146.34 825.479 147.657L831.463 166.741L812.379 172.725C811.062 173.138 810.329 174.541 810.742 175.859C811.155 177.176 812.558 177.909 813.876 177.496L835.345 170.764ZM739.606 177.58C741.469 179.247 741.469 179.247 741.469 179.247C741.469 179.247 741.469 179.247 741.469 179.247C741.469 179.247 741.469 179.247 741.47 179.247C741.47 179.246 741.472 179.244 741.474 179.241C741.479 179.236 741.487 179.228 741.497 179.216C741.517 179.194 741.549 179.159 741.591 179.113C741.675 179.02 741.802 178.881 741.967 178.702C742.299 178.343 742.787 177.822 743.405 177.18C744.642 175.896 746.392 174.135 748.445 172.232C752.606 168.375 757.805 164.126 762.407 161.946L760.266 157.428C754.933 159.954 749.267 164.652 745.046 168.565C742.908 170.547 741.089 172.377 739.803 173.712C739.16 174.381 738.649 174.926 738.296 175.307C738.12 175.498 737.984 175.647 737.89 175.75C737.844 175.801 737.808 175.841 737.783 175.868C737.771 175.882 737.761 175.893 737.754 175.901C737.751 175.904 737.748 175.907 737.746 175.909C737.745 175.911 737.744 175.911 737.744 175.912C737.743 175.913 737.743 175.913 737.743 175.913C737.743 175.913 737.742 175.914 739.606 177.58ZM762.407 161.946C775.588 155.702 785.019 156.377 800.112 158.439L800.789 153.485C785.476 151.394 774.818 150.534 760.266 157.428L762.407 161.946ZM800.112 158.439C806.796 159.351 815.078 162.343 821.823 165.193C825.166 166.605 828.077 167.959 830.152 168.96C831.189 169.46 832.016 169.871 832.581 170.156C832.863 170.298 833.08 170.409 833.225 170.484C833.298 170.521 833.352 170.549 833.388 170.568C833.406 170.577 833.419 170.584 833.428 170.588C833.432 170.59 833.435 170.592 833.437 170.593C833.438 170.593 833.439 170.594 833.439 170.594C833.439 170.594 833.439 170.594 833.439 170.594C833.439 170.594 833.439 170.594 834.597 168.378C835.754 166.162 835.754 166.162 835.754 166.162C835.754 166.162 835.753 166.162 835.753 166.161C835.752 166.161 835.75 166.16 835.749 166.16C835.746 166.158 835.742 166.156 835.736 166.153C835.725 166.147 835.709 166.139 835.689 166.128C835.648 166.107 835.588 166.076 835.51 166.036C835.354 165.956 835.126 165.839 834.831 165.691C834.243 165.394 833.39 164.97 832.324 164.456C830.193 163.429 827.205 162.039 823.769 160.587C816.955 157.708 808.164 154.492 800.789 153.485L800.112 158.439Z" fill="black"/>
<path d="M745.456 255.593C744.404 254.699 742.826 254.827 741.933 255.88C741.039 256.932 741.167 258.51 742.219 259.403L745.456 255.593ZM799.715 296.206L800.803 293.955L799.715 296.206ZM854.35 314.211L853.655 316.612L854.35 314.211ZM911.469 328.491L912.054 326.06L911.469 328.491ZM964.953 342.731C966.122 341.995 966.472 340.452 965.736 339.283L953.746 320.244C953.011 319.076 951.467 318.725 950.299 319.461C949.13 320.197 948.78 321.74 949.516 322.909L960.173 339.832L943.25 350.49C942.081 351.226 941.731 352.77 942.466 353.938C943.202 355.106 944.746 355.457 945.914 354.721L964.953 342.731ZM743.838 257.498C742.219 259.403 742.22 259.404 742.22 259.404C742.22 259.404 742.221 259.405 742.221 259.405C742.223 259.406 742.224 259.408 742.226 259.409C742.231 259.413 742.237 259.418 742.245 259.425C742.261 259.439 742.285 259.459 742.317 259.486C742.38 259.539 742.472 259.617 742.594 259.72C742.838 259.924 743.196 260.225 743.661 260.611C744.589 261.382 745.94 262.495 747.635 263.866C751.024 266.607 755.793 270.383 761.313 274.522C772.318 282.773 786.447 292.573 798.628 298.457L800.803 293.955C789.08 288.292 775.271 278.738 764.313 270.522C758.852 266.427 754.133 262.691 750.78 259.979C749.103 258.623 747.77 257.524 746.856 256.765C746.399 256.385 746.048 256.091 745.811 255.892C745.693 255.793 745.604 255.717 745.544 255.667C745.514 255.642 745.492 255.623 745.477 255.61C745.47 255.604 745.465 255.6 745.461 255.597C745.459 255.595 745.458 255.594 745.457 255.593C745.457 255.593 745.457 255.593 745.456 255.593C745.456 255.593 745.456 255.593 743.838 257.498ZM798.628 298.457C819.108 308.351 832.31 310.426 853.655 316.612L855.046 311.81C833.237 305.489 820.779 303.606 800.803 293.955L798.628 298.457ZM853.655 316.612C875.812 323.034 888.607 325.557 910.884 330.921L912.054 326.06C889.624 320.659 877.057 318.189 855.046 311.81L853.655 316.612ZM910.884 330.921C921.061 333.372 934.109 336.405 944.607 338.825C949.857 340.035 954.472 341.092 957.774 341.847C959.425 342.224 960.748 342.526 961.659 342.733C962.114 342.837 962.466 342.917 962.704 342.971C962.823 342.998 962.914 343.019 962.975 343.033C963.005 343.039 963.028 343.045 963.044 343.048C963.052 343.05 963.057 343.051 963.061 343.052C963.063 343.053 963.065 343.053 963.066 343.053C963.066 343.053 963.067 343.053 963.067 343.053C963.067 343.053 963.067 343.054 963.621 340.616C964.175 338.178 964.175 338.178 964.174 338.178C964.174 338.178 964.174 338.178 964.173 338.177C964.172 338.177 964.171 338.177 964.169 338.176C964.165 338.176 964.16 338.174 964.152 338.173C964.137 338.169 964.114 338.164 964.083 338.157C964.023 338.143 963.932 338.123 963.813 338.096C963.575 338.041 963.224 337.961 962.769 337.858C961.86 337.651 960.538 337.349 958.888 336.972C955.588 336.218 950.976 335.162 945.73 333.953C935.234 331.534 922.206 328.505 912.054 326.06L910.884 330.921Z" fill="black"/>
<defs>
<filter id="filter0_d_1329_141" x="465.996" y="115.503" width="265.551" height="186" filterUnits="userSpaceOnUse" color-interpolation-filters="sRGB">
<feFlood flood-opacity="0" result="BackgroundImageFix"/>
<feColorMatrix in="SourceAlpha" type="matrix" values="0 0 0 0 0 0 0 0 0 0 0 0 0 0 0 0 0 0 127 0" result="hardAlpha"/>
<feOffset dx="-8" dy="8"/>
<feGaussianBlur stdDeviation="12.5"/>
<feComposite in2="hardAlpha" operator="out"/>
<feColorMatrix type="matrix" values="0 0 0 0 0 0 0 0 0 0 0 0 0 0 0 0 0 0 0.35 0"/>
<feBlend mode="normal" in2="BackgroundImageFix" result="effect1_dropShadow_1329_141"/>
<feBlend mode="normal" in="SourceGraphic" in2="effect1_dropShadow_1329_141" result="shape"/>
</filter>
<filter id="filter1_d_1329_141" x="854.383" y="118.571" width="130.611" height="159.998" filterUnits="userSpaceOnUse" color-interpolation-filters="sRGB">
<feFlood flood-opacity="0" result="BackgroundImageFix"/>
<feColorMatrix in="SourceAlpha" type="matrix" values="0 0 0 0 0 0 0 0 0 0 0 0 0 0 0 0 0 0 127 0" result="hardAlpha"/>
<feOffset dx="-6" dy="6"/>
<feGaussianBlur stdDeviation="7.5"/>
<feComposite in2="hardAlpha" operator="out"/>
<feColorMatrix type="matrix" values="0 0 0 0 0 0 0 0 0 0 0 0 0 0 0 0 0 0 0.3 0"/>
<feBlend mode="normal" in2="BackgroundImageFix" result="effect1_dropShadow_1329_141"/>
<feBlend mode="normal" in="SourceGraphic" in2="effect1_dropShadow_1329_141" result="shape"/>
</filter>
<filter id="filter2_d_1329_141" x="942.744" y="125.571" width="35.25" height="36.1372" filterUnits="userSpaceOnUse" color-interpolation-filters="sRGB">
<feFlood flood-opacity="0" result="BackgroundImageFix"/>
<feColorMatrix in="SourceAlpha" type="matrix" values="0 0 0 0 0 0 0 0 0 0 0 0 0 0 0 0 0 0 127 0" result="hardAlpha"/>
<feOffset dx="-1" dy="1"/>
<feGaussianBlur stdDeviation="1.5"/>
<feComposite in2="hardAlpha" operator="out"/>
<feColorMatrix type="matrix" values="0 0 0 0 0 0 0 0 0 0 0 0 0 0 0 0 0 0 0.3 0"/>
<feBlend mode="normal" in2="BackgroundImageFix" result="effect1_dropShadow_1329_141"/>
<feBlend mode="normal" in="SourceGraphic" in2="effect1_dropShadow_1329_141" result="shape"/>
</filter>
<filter id="filter3_d_1329_141" x="996.47" y="259.436" width="130.611" height="159.998" filterUnits="userSpaceOnUse" color-interpolation-filters="sRGB">
<feFlood flood-opacity="0" result="BackgroundImageFix"/>
<feColorMatrix in="SourceAlpha" type="matrix" values="0 0 0 0 0 0 0 0 0 0 0 0 0 0 0 0 0 0 127 0" result="hardAlpha"/>
<feOffset dx="-6" dy="6"/>
<feGaussianBlur stdDeviation="7.5"/>
<feComposite in2="hardAlpha" operator="out"/>
<feColorMatrix type="matrix" values="0 0 0 0 0 0 0 0 0 0 0 0 0 0 0 0 0 0 0.3 0"/>
<feBlend mode="normal" in2="BackgroundImageFix" result="effect1_dropShadow_1329_141"/>
<feBlend mode="normal" in="SourceGraphic" in2="effect1_dropShadow_1329_141" result="shape"/>
</filter>
<filter id="filter4_d_1329_141" x="1084.83" y="266.436" width="35.2505" height="36.1372" filterUnits="userSpaceOnUse" color-interpolation-filters="sRGB">
<feFlood flood-opacity="0" result="BackgroundImageFix"/>
<feColorMatrix in="SourceAlpha" type="matrix" values="0 0 0 0 0 0 0 0 0 0 0 0 0 0 0 0 0 0 127 0" result="hardAlpha"/>
<feOffset dx="-1" dy="1"/>
<feGaussianBlur stdDeviation="1.5"/>
<feComposite in2="hardAlpha" operator="out"/>
<feColorMatrix type="matrix" values="0 0 0 0 0 0 0 0 0 0 0 0 0 0 0 0 0 0 0.3 0"/>
<feBlend mode="normal" in2="BackgroundImageFix" result="effect1_dropShadow_1329_141"/>
<feBlend mode="normal" in="SourceGraphic" in2="effect1_dropShadow_1329_141" result="shape"/>
</filter>
<filter id="filter5_d_1329_141" x="216.51" y="18.7114" width="130.611" height="159.998" filterUnits="userSpaceOnUse" color-interpolation-filters="sRGB">
<feFlood flood-opacity="0" result="BackgroundImageFix"/>
<feColorMatrix in="SourceAlpha" type="matrix" values="0 0 0 0 0 0 0 0 0 0 0 0 0 0 0 0 0 0 127 0" result="hardAlpha"/>
<feOffset dx="-6" dy="6"/>
<feGaussianBlur stdDeviation="7.5"/>
<feComposite in2="hardAlpha" operator="out"/>
<feColorMatrix type="matrix" values="0 0 0 0 0 0 0 0 0 0 0 0 0 0 0 0 0 0 0.3 0"/>
<feBlend mode="normal" in2="BackgroundImageFix" result="effect1_dropShadow_1329_141"/>
<feBlend mode="normal" in="SourceGraphic" in2="effect1_dropShadow_1329_141" result="shape"/>
</filter>
<filter id="filter6_d_1329_141" x="304.871" y="25.7114" width="35.25" height="36.1372" filterUnits="userSpaceOnUse" color-interpolation-filters="sRGB">
<feFlood flood-opacity="0" result="BackgroundImageFix"/>
<feColorMatrix in="SourceAlpha" type="matrix" values="0 0 0 0 0 0 0 0 0 0 0 0 0 0 0 0 0 0 127 0" result="hardAlpha"/>
<feOffset dx="-1" dy="1"/>
<feGaussianBlur stdDeviation="1.5"/>
<feComposite in2="hardAlpha" operator="out"/>
<feColorMatrix type="matrix" values="0 0 0 0 0 0 0 0 0 0 0 0 0 0 0 0 0 0 0.3 0"/>
<feBlend mode="normal" in2="BackgroundImageFix" result="effect1_dropShadow_1329_141"/>
<feBlend mode="normal" in="SourceGraphic" in2="effect1_dropShadow_1329_141" result="shape"/>
</filter>
<filter id="filter7_d_1329_141" x="190.517" y="256.639" width="80.3496" height="97.9766" filterUnits="userSpaceOnUse" color-interpolation-filters="sRGB">
<feFlood flood-opacity="0" result="BackgroundImageFix"/>
<feColorMatrix in="SourceAlpha" type="matrix" values="0 0 0 0 0 0 0 0 0 0 0 0 0 0 0 0 0 0 127 0" result="hardAlpha"/>
<feOffset dx="-4" dy="4"/>
<feGaussianBlur stdDeviation="5"/>
<feComposite in2="hardAlpha" operator="out"/>
<feColorMatrix type="matrix" values="0 0 0 0 0 0 0 0 0 0 0 0 0 0 0 0 0 0 0.25 0"/>
<feBlend mode="normal" in2="BackgroundImageFix" result="effect1_dropShadow_1329_141"/>
<feBlend mode="normal" in="SourceGraphic" in2="effect1_dropShadow_1329_141" result="shape"/>
</filter>
<filter id="filter8_d_1329_141" x="243.321" y="260.639" width="23.5449" height="24.0771" filterUnits="userSpaceOnUse" color-interpolation-filters="sRGB">
<feFlood flood-opacity="0" result="BackgroundImageFix"/>
<feColorMatrix in="SourceAlpha" type="matrix" values="0 0 0 0 0 0 0 0 0 0 0 0 0 0 0 0 0 0 127 0" result="hardAlpha"/>
<feOffset dx="-1" dy="1"/>
<feGaussianBlur stdDeviation="1.5"/>
<feComposite in2="hardAlpha" operator="out"/>
<feColorMatrix type="matrix" values="0 0 0 0 0 0 0 0 0 0 0 0 0 0 0 0 0 0 0.3 0"/>
<feBlend mode="normal" in2="BackgroundImageFix" result="effect1_dropShadow_1329_141"/>
<feBlend mode="normal" in="SourceGraphic" in2="effect1_dropShadow_1329_141" result="shape"/>
</filter>
<filter id="filter9_d_1329_141" x="94.1709" y="256.639" width="80.3496" height="97.9766" filterUnits="userSpaceOnUse" color-interpolation-filters="sRGB">
<feFlood flood-opacity="0" result="BackgroundImageFix"/>
<feColorMatrix in="SourceAlpha" type="matrix" values="0 0 0 0 0 0 0 0 0 0 0 0 0 0 0 0 0 0 127 0" result="hardAlpha"/>
<feOffset dx="-4" dy="4"/>
<feGaussianBlur stdDeviation="5"/>
<feComposite in2="hardAlpha" operator="out"/>
<feColorMatrix type="matrix" values="0 0 0 0 0 0 0 0 0 0 0 0 0 0 0 0 0 0 0.25 0"/>
<feBlend mode="normal" in2="BackgroundImageFix" result="effect1_dropShadow_1329_141"/>
<feBlend mode="normal" in="SourceGraphic" in2="effect1_dropShadow_1329_141" result="shape"/>
</filter>
<filter id="filter10_d_1329_141" x="146.974" y="260.639" width="23.5449" height="24.0771" filterUnits="userSpaceOnUse" color-interpolation-filters="sRGB">
<feFlood flood-opacity="0" result="BackgroundImageFix"/>
<feColorMatrix in="SourceAlpha" type="matrix" values="0 0 0 0 0 0 0 0 0 0 0 0 0 0 0 0 0 0 127 0" result="hardAlpha"/>
<feOffset dx="-1" dy="1"/>
<feGaussianBlur stdDeviation="1.5"/>
<feComposite in2="hardAlpha" operator="out"/>
<feColorMatrix type="matrix" values="0 0 0 0 0 0 0 0 0 0 0 0 0 0 0 0 0 0 0.3 0"/>
<feBlend mode="normal" in2="BackgroundImageFix" result="effect1_dropShadow_1329_141"/>
<feBlend mode="normal" in="SourceGraphic" in2="effect1_dropShadow_1329_141" result="shape"/>
</filter>
</defs>
</svg>
