<svg width="417" height="101" viewBox="0 0 417 101" fill="none" xmlns="http://www.w3.org/2000/svg">
<path d="M80.0297 0.904297V35.2876L104.013 46.8376L67.9297 64.4543V100.554L132.763 68.1376C135.68 66.6876 137.513 63.7043 137.513 60.4543V34.9876C137.513 31.7376 135.68 28.7543 132.763 27.3043L80.0297 0.937625V0.904297Z" fill="#010203"/>
<path d="M69.7279 0.904434L4.89453 33.3211C1.97787 34.7711 0.144531 37.7544 0.144531 41.0044V66.4711C0.144531 69.7211 1.97787 72.7044 4.89453 74.1544L57.6279 100.521V64.4211L33.6445 52.8711L69.7279 35.2544V0.871094V0.904434Z" fill="#010203"/>
<path d="M166.145 20.0547H178.628V74.0213H166.145V20.0547Z" fill="#010203"/>
<path d="M248.645 20.0547V74.0213H238.395L211.478 41.2547V74.0213H199.145V20.0547H209.478L236.311 52.8213V20.0547H248.645Z" fill="#010203"/>
<path d="M291.71 52.8213L284.46 60.3713V74.0213H272.043V20.0547H284.46V45.2713L308.36 20.0547H322.243L299.876 44.1047L323.543 74.0213H308.976L291.71 52.8213Z" fill="#010203"/>
<path d="M338.293 20.0547H350.776V74.0213H338.293V20.0547Z" fill="#010203"/>
<path d="M387.028 30.238H369.762V20.0547H416.795V30.238H399.528V74.038H387.045V30.238H387.028Z" fill="#010203"/>
</svg>
