<svg width="69" height="17" viewBox="0 0 69 17" fill="none" xmlns="http://www.w3.org/2000/svg">
<path d="M13.5633 0.0917969V5.70872L17.4786 7.59555L11.5879 10.4734V16.3708L22.1722 11.0752C22.6483 10.8383 22.9476 10.3509 22.9476 9.82V5.65971C22.9476 5.12879 22.6483 4.64143 22.1722 4.40455L13.5633 0.0972414V0.0917969Z" fill="#010203"/>
<path d="M11.8812 0.0918723L1.29694 5.38752C0.820782 5.6244 0.521484 6.11176 0.521484 6.64268V10.803C0.521484 11.3339 0.820782 11.8213 1.29694 12.0581L9.90583 16.3654V10.4681L5.99047 8.58125L11.8812 5.70335V0.0864258V0.0918723Z" fill="#010203"/>
<path d="M27.6211 3.22021H29.659V12.0363H27.6211V3.22021Z" fill="#010203"/>
<path d="M41.0898 3.22021V12.0363H39.4165L35.0222 6.68349V12.0363H33.0088V3.22021H34.6957L39.0764 8.57304V3.22021H41.0898Z" fill="#010203"/>
<path d="M48.1208 8.57304L46.9372 9.80642V12.0363H44.9102V3.22021H46.9372V7.33966L50.839 3.22021H53.1055L49.454 7.14907L53.3177 12.0363H50.9396L48.1208 8.57304Z" fill="#010203"/>
<path d="M55.7256 3.22021H57.7635V12.0363H55.7256V3.22021Z" fill="#010203"/>
<path d="M63.6812 4.88378H60.8623V3.22021H68.5407V4.88378H65.7218V12.039H63.6839V4.88378H63.6812Z" fill="#010203"/>
</svg>
