<svg width="75" height="75" viewBox="0 0 75 75" fill="none" xmlns="http://www.w3.org/2000/svg">
<g clip-path="url(#clip0_1336_10296)">
<g clip-path="url(#clip1_1336_10296)">
<path d="M23.8257 34.0571C21.2049 34.0571 19.0605 36.2014 19.0605 38.8223C19.0605 41.4431 21.2049 43.5874 23.8257 43.5874C26.4465 43.5874 28.5908 41.4431 28.5908 38.8223C28.5908 36.2014 26.4465 34.0571 23.8257 34.0571ZM52.4166 34.0571C49.7958 34.0571 47.6515 36.2014 47.6515 38.8223C47.6515 41.4431 49.7958 43.5874 52.4166 43.5874C55.0374 43.5874 57.1818 41.4431 57.1818 38.8223C57.1818 36.2014 55.0374 34.0571 52.4166 34.0571Z" fill="#2E71E5"/>
<path d="M38.1148 34.0581C35.4939 34.0581 33.3496 36.2024 33.3496 38.8233C33.3496 41.4441 35.4939 43.5884 38.1148 43.5884C40.7356 43.5884 42.8799 41.4441 42.8799 38.8233C42.8799 36.2024 40.7356 34.0581 38.1148 34.0581Z" fill="#010203"/>
</g>
<path d="M51.8369 52.5363C51.7198 52.4192 51.7197 52.2294 51.8367 52.1122L65.5352 38.3838C65.6521 38.2667 65.6521 38.0771 65.5352 37.96L51.8367 24.2315C51.7197 24.1143 51.7198 23.9245 51.8369 23.8075L55.7604 19.884C55.8775 19.7668 56.0675 19.7668 56.1846 19.884L74.2604 37.9597C74.3775 38.0769 74.3775 38.2668 74.2604 38.384L56.1846 56.4597C56.0675 56.5769 55.8775 56.5769 55.7604 56.4597L51.8369 52.5363Z" fill="#010203"/>
<path d="M22.6651 52.2868C22.7821 52.1697 22.7822 51.9799 22.6653 51.8627L8.96673 38.1343C8.84988 38.0172 8.84988 37.8276 8.96673 37.7105L22.6653 23.982C22.7822 23.8648 22.7821 23.675 22.6651 23.558L18.7416 19.6345C18.6244 19.5173 18.4345 19.5173 18.3173 19.6345L0.241587 37.7102C0.12443 37.8274 0.124432 38.0173 0.241589 38.1345L18.3173 56.2102C18.4345 56.3274 18.6244 56.3274 18.7416 56.2102L22.6651 52.2868Z" fill="#010203"/>
</g>
<defs>
<clipPath id="clip0_1336_10296">
<rect width="74" height="74" fill="white" transform="translate(0.250977 0.140625)"/>
</clipPath>
<clipPath id="clip1_1336_10296">
<rect width="57.1818" height="57.1818" fill="white" transform="translate(7.69141 10.2314)"/>
</clipPath>
</defs>
</svg>
