<svg width="50" height="53" viewBox="0 0 50 53" fill="none" xmlns="http://www.w3.org/2000/svg">
<path d="M44.267 26.3429C44.267 25.3889 44.1582 24.5073 44.0316 23.6074C43.9848 23.2746 44.1071 22.9403 44.3586 22.7174L49.2587 18.3761C49.6145 18.0609 49.6992 17.5387 49.4613 17.1272L45.0919 9.56813C44.8535 9.1557 44.3573 8.9687 43.906 9.1212L37.6934 11.2207C37.3618 11.3327 36.9971 11.2616 36.723 11.044C35.3158 9.92666 33.7658 9.02354 32.073 8.33467C31.7533 8.20456 31.5147 7.92696 31.4465 7.58856L30.1612 1.20496C30.0672 0.738135 29.6571 0.402344 29.1809 0.402344H20.4421C19.9659 0.402344 19.5558 0.738135 19.4618 1.20496L18.1765 7.58856C18.1084 7.92696 17.8698 8.20456 17.55 8.33467C15.8572 9.02354 14.3072 9.92666 12.9001 11.044C12.626 11.2616 12.2612 11.3327 11.9297 11.2207L5.71704 9.1212C5.26575 8.9687 4.76952 9.1557 4.53113 9.56813L0.161735 17.1272C-0.0761596 17.5387 0.00855333 18.0609 0.364362 18.3761L5.26444 22.7174C5.516 22.9403 5.63825 23.2746 5.59143 23.6074C5.46484 24.5073 5.35609 25.3889 5.35609 26.3429C5.35609 27.297 5.46484 28.1785 5.59143 29.0785C5.63825 29.4113 5.516 29.7455 5.26444 29.9684L0.364362 34.3097C0.00855306 34.6249 -0.0761603 35.1471 0.161734 35.5587L4.53113 43.1177C4.76952 43.5301 5.26575 43.7171 5.71704 43.5646L11.9297 41.4652C12.2612 41.3531 12.626 41.4242 12.9001 41.6418C14.3072 42.7592 15.8572 43.6623 17.55 44.3512C17.8698 44.4813 18.1084 44.7589 18.1765 45.0973L19.4618 51.4809C19.5558 51.9477 19.9659 52.2835 20.4421 52.2835H29.1809C29.6571 52.2835 30.0672 51.9477 30.1612 51.4809L31.4465 45.0973C31.5147 44.7589 31.7533 44.4813 32.073 44.3512C33.7658 43.6623 35.3158 42.7592 36.723 41.6418C36.9971 41.4242 37.3618 41.3531 37.6934 41.4652L43.906 43.5646C44.3573 43.7171 44.8535 43.5301 45.0919 43.1177L49.4613 35.5587C49.6992 35.1471 49.6145 34.6249 49.2587 34.3097L44.3586 29.9684C44.1071 29.7455 43.9848 29.4113 44.0316 29.0785C44.1582 28.1785 44.267 27.297 44.267 26.3429ZM24.8115 36.7191C19.1046 36.7191 14.4353 32.0498 14.4353 26.3429C14.4353 20.636 19.1046 15.9667 24.8115 15.9667C30.5184 15.9667 35.1878 20.636 35.1878 26.3429C35.1878 32.0498 30.5184 36.7191 24.8115 36.7191Z" fill="#010203"/>
</svg>
