<svg width="58" height="63" viewBox="0 0 58 63" fill="none" xmlns="http://www.w3.org/2000/svg">
<path d="M9.00601 26.9787L9.00601 26.9787C9.04332 27.7341 9.66104 28.3118 10.4305 28.3411L10.4305 28.3413L10.4383 28.3413L38.6901 28.3263C39.4695 28.3516 40.1058 27.7476 40.0678 26.9761L40.0678 26.9761C40.0305 26.2206 39.4128 25.6429 38.6433 25.6136L38.6433 25.6135L38.6355 25.6135L10.3803 25.6284L10.3703 25.6284L10.3603 25.6294C9.94125 25.6719 9.5915 25.8067 9.34913 26.0421C9.10239 26.2818 8.98765 26.6057 9.00601 26.9787Z" fill="black" stroke="black" stroke-width="0.4"/>
<path d="M32.5078 37.2744H36.2256" stroke="#010203" stroke-width="4" stroke-linecap="square"/>
<path d="M9.0051 37.196L9.0051 37.196C9.01468 37.545 9.09871 37.866 9.24109 38.1098C9.38152 38.3503 9.59775 38.5434 9.87601 38.5625L9.87597 38.563L9.88987 38.563L25.5815 38.548C25.8724 38.563 26.097 38.3675 26.2337 38.1287C26.374 37.8837 26.4492 37.5548 26.4395 37.2021C26.43 36.8531 26.3459 36.5321 26.2036 36.2883C26.0631 36.0478 25.8469 35.8547 25.5686 35.8356L25.5687 35.8351L25.5548 35.8352L9.85742 35.8501L9.83944 35.8501L9.82175 35.8533C9.54368 35.904 9.32726 36.0654 9.18848 36.308C9.05321 36.5445 8.99563 36.8498 9.0051 37.196Z" fill="black" stroke="black" stroke-width="0.4"/>
<path d="M10.7314 37.1987H25.1221" stroke="#010203" stroke-width="4" stroke-linecap="square"/>
<path d="M38.0775 0.325H38.092L38.1064 0.3264L38.5001 0.364565C38.5332 0.367774 38.566 0.373731 38.5981 0.382374L38.5203 0.671472L38.5981 0.382374L39.036 0.500207C39.1277 0.524867 39.2122 0.570916 39.2826 0.634572L56.9882 16.6455L56.9887 16.6459L57.2469 16.8785L57.0462 17.1014L57.2469 16.8785C57.3566 16.9772 57.426 17.1129 57.4419 17.2595L57.4701 17.5194L57.4719 17.5355V17.5518V61.6659C57.4719 61.9972 57.2032 62.2659 56.8719 62.2659H1.58321C1.25183 62.2659 0.983204 61.9972 0.983204 61.6659V0.924999C0.983204 0.593623 1.25184 0.325 1.58321 0.325H38.0775ZM4.21212 3.50797V59.6819H54.0337L54.0337 19.3424H36.9286C36.5963 19.3424 36.3273 19.0724 36.3286 18.7401L36.3882 3.38847L4.21212 3.50797ZM51.7554 16.4412L39.535 5.39125L39.3936 16.4569L51.7554 16.4412Z" fill="black" stroke="black" stroke-width="0.6"/>
<path d="M30.8607 37.2525L30.8607 37.2526C30.9013 38.0189 31.5688 38.5857 32.3752 38.6143L32.3752 38.6143L32.3798 38.6144L34.9598 38.6464C35.7735 38.6719 36.4655 38.082 36.424 37.2955L36.424 37.2955C36.3834 36.5291 35.7158 35.9624 34.9094 35.9337L34.9094 35.9337L34.9048 35.9336L32.3229 35.9016L32.3122 35.9014L32.3015 35.9025C31.858 35.9444 31.4877 36.0776 31.2303 36.3104C30.9668 36.5487 30.8407 36.8744 30.8607 37.2525Z" fill="black" stroke="black" stroke-width="0.4"/>
<path d="M10.7314 26.9771H39.5127" stroke="#010203" stroke-width="4" stroke-linecap="square"/>
<rect x="31.5645" y="48.7456" width="17.0363" height="6.77218" rx="0.3" fill="#2E71E5"/>
<rect x="10.5645" y="11.5581" width="7.997" height="5.50732" stroke="black" stroke-width="3"/>
</svg>
