<svg width="58" height="63" viewBox="0 0 58 63" fill="none" xmlns="http://www.w3.org/2000/svg">
<rect x="1.25293" y="26.4956" width="44.1146" height="25.0631" rx="1" fill="#2E71E5"/>
<path d="M37.8446 0.539844H37.8591L37.8736 0.541243L38.265 0.579188C38.2981 0.582397 38.3309 0.588354 38.363 0.596996L38.2851 0.886391L38.363 0.596997L38.798 0.71405C38.8897 0.73871 38.9741 0.784759 39.0445 0.848414L56.6534 16.7718L56.6539 16.7722L56.9103 17.0031L56.7095 17.226L56.9103 17.0031C57.0199 17.1018 57.0893 17.2375 57.1052 17.3842L57.1332 17.642L57.135 17.6581V17.6744V61.5464C57.135 61.8778 56.8663 62.1464 56.535 62.1464H1.55087C1.21951 62.1464 0.950874 61.8778 0.950874 61.5464V1.13984C0.950874 0.808473 1.21951 0.539844 1.55087 0.539844H37.8446ZM4.16547 3.70873V59.5732H53.7122L53.7122 19.4569H36.7036C36.3713 19.4569 36.1023 19.1868 36.1036 18.8546L36.1629 3.58989L4.16547 3.70873ZM51.4437 16.5682L39.2958 5.58376L39.1552 16.5839L51.4437 16.5682Z" fill="#010203" stroke="#010203" stroke-width="0.6"/>
<path d="M11.8046 44.4956V34.6956H15.8366C16.7046 34.6956 17.4466 34.8356 18.0626 35.1156C18.6879 35.3956 19.1686 35.7969 19.5046 36.3196C19.8406 36.8423 20.0086 37.4629 20.0086 38.1816C20.0086 38.9003 19.8406 39.5209 19.5046 40.0436C19.1686 40.5663 18.6879 40.9676 18.0626 41.2476C17.4466 41.5276 16.7046 41.6676 15.8366 41.6676H12.8126L13.6246 40.8136V44.4956H11.8046ZM13.6246 41.0096L12.8126 40.1276H15.7526C16.5552 40.1276 17.1572 39.9596 17.5586 39.6236C17.9692 39.2783 18.1746 38.7976 18.1746 38.1816C18.1746 37.5563 17.9692 37.0756 17.5586 36.7396C17.1572 36.4036 16.5552 36.2356 15.7526 36.2356H12.8126L13.6246 35.3396V41.0096ZM21.1261 44.4956V34.6956H25.4101C26.4741 34.6956 27.4074 34.9009 28.2101 35.3116C29.0127 35.7223 29.6381 36.2916 30.0861 37.0196C30.5341 37.7476 30.7581 38.6063 30.7581 39.5956C30.7581 40.5756 30.5341 41.4343 30.0861 42.1716C29.6381 42.8996 29.0127 43.4689 28.2101 43.8796C27.4074 44.2903 26.4741 44.4956 25.4101 44.4956H21.1261ZM22.9461 42.9556H25.3261C26.0634 42.9556 26.6981 42.8156 27.2301 42.5356C27.7714 42.2556 28.1867 41.8636 28.4761 41.3596C28.7747 40.8556 28.9241 40.2676 28.9241 39.5956C28.9241 38.9143 28.7747 38.3263 28.4761 37.8316C28.1867 37.3276 27.7714 36.9356 27.2301 36.6556C26.6981 36.3756 26.0634 36.2356 25.3261 36.2356H22.9461V42.9556ZM33.6585 39.2036H38.5445V40.7436H33.6585V39.2036ZM33.8125 44.4956H31.9925V34.6956H39.1465V36.2216H33.8125V44.4956Z" fill="white"/>
<path d="M14.3164 13.9717H26.5178" stroke="#010203" stroke-width="4" stroke-linecap="square"/>
</svg>
