<svg width="47" height="45" viewBox="0 0 47 45" fill="none" xmlns="http://www.w3.org/2000/svg">
<path d="M21.3264 1.96641C21.9251 0.123786 24.5319 0.123786 25.1306 1.96641L29.1727 14.4065C29.4404 15.2305 30.2083 15.7885 31.0748 15.7885H44.155C46.0925 15.7885 46.898 18.2677 45.3306 19.4065L34.7484 27.0949C34.0475 27.6042 33.7542 28.5069 34.0219 29.3309L38.0639 41.771C38.6626 43.6136 36.5537 45.1459 34.9862 44.0071L24.4041 36.3187C23.7031 35.8094 22.7539 35.8094 22.0529 36.3187L11.4708 44.0071C9.90335 45.1459 7.7944 43.6136 8.3931 41.771L12.4351 29.3309C12.7029 28.5069 12.4096 27.6042 11.7086 27.0949L1.12642 19.4065C-0.441007 18.2677 0.364544 15.7885 2.30199 15.7885H15.3823C16.2487 15.7885 17.0166 15.2305 17.2844 14.4065L21.3264 1.96641Z" fill="#010203"/>
</svg>
