<svg width="1189" height="454" viewBox="0 0 1189 454" fill="none" xmlns="http://www.w3.org/2000/svg">
<g filter="url(#filter0_d_1329_141)">
<rect x="498.996" y="131.522" width="215.551" height="136" rx="15" fill="#237CE4"/>
<path d="M649.753 170.085C649.418 168.784 648.954 167.628 648.462 166.444C648.333 166.133 648.368 165.779 648.556 165.5L653.72 157.842C653.985 157.448 653.937 156.921 653.604 156.582L645.011 147.837C644.677 147.497 644.15 147.44 643.751 147.701L635.996 152.764C635.703 152.955 635.332 152.978 635.013 152.833C632.704 151.785 630.269 151.097 627.708 150.771C627.366 150.727 627.065 150.517 626.915 150.207L622.905 141.931C622.697 141.502 622.216 141.28 621.755 141.398L609.873 144.464C609.412 144.583 609.099 145.011 609.124 145.487L609.619 154.669C609.638 155.014 609.477 155.343 609.198 155.547C607.115 157.072 605.316 158.852 603.803 160.886C603.594 161.167 603.258 161.327 602.909 161.301L593.673 160.622C593.198 160.587 592.764 160.892 592.636 161.351L589.347 173.162C589.22 173.62 589.432 174.105 589.856 174.321L598.08 178.525C598.379 178.677 598.582 178.971 598.619 179.305C598.762 180.579 598.915 181.816 599.25 183.116C599.586 184.416 600.05 185.573 600.542 186.757C600.671 187.067 600.636 187.422 600.448 187.7L595.284 195.359C595.018 195.753 595.067 196.28 595.4 196.619L603.993 205.364C604.327 205.703 604.854 205.761 605.253 205.5L613.007 200.437C613.3 200.246 613.672 200.223 613.99 200.368C616.3 201.416 618.735 202.103 621.295 202.43C621.638 202.474 621.938 202.683 622.089 202.994L626.099 211.27C626.306 211.698 626.787 211.921 627.248 211.802L639.13 208.736C639.592 208.617 639.905 208.19 639.879 207.714L639.384 198.531C639.366 198.187 639.527 197.858 639.806 197.654C641.889 196.129 643.687 194.349 645.201 192.314C645.41 192.034 645.746 191.874 646.095 191.9L655.331 192.578C655.806 192.613 656.24 192.308 656.367 191.849L659.656 180.038C659.784 179.58 659.571 179.096 659.148 178.88L650.923 174.676C650.624 174.523 650.422 174.23 650.385 173.896C650.242 172.622 650.089 171.385 649.753 170.085ZM627.977 190.068C620.57 191.979 612.946 187.483 611.034 180.075C609.123 172.668 613.62 165.044 621.027 163.133C628.434 161.221 636.058 165.718 637.969 173.125C639.881 180.532 635.384 188.157 627.977 190.068Z" fill="white"/>
<path d="M696.117 170.236C696.411 169.313 696.577 168.427 696.732 167.517C696.788 167.186 697.006 166.905 697.314 166.769L703.392 164.08C703.826 163.888 704.066 163.416 703.964 162.952L702.068 154.296C701.966 153.83 701.55 153.501 701.074 153.51L694.417 153.625C694.068 153.631 693.742 153.453 693.547 153.162C692.531 151.647 691.31 150.296 689.884 149.108C689.619 148.887 689.476 148.55 689.514 148.207L690.239 141.636C690.291 141.163 690.002 140.718 689.548 140.574L681.098 137.88C680.644 137.736 680.151 137.931 679.92 138.347L676.709 144.126C676.541 144.428 676.229 144.62 675.885 144.646C674.035 144.79 672.258 145.186 670.553 145.834C670.225 145.958 669.856 145.915 669.574 145.707L664.212 141.761C663.829 141.479 663.299 141.506 662.947 141.827L656.392 147.79C656.04 148.11 655.962 148.633 656.206 149.042L659.607 154.751C659.779 155.04 659.794 155.396 659.648 155.698C659.248 156.53 658.871 157.349 658.577 158.271C658.283 159.194 658.117 160.08 657.962 160.989C657.905 161.321 657.687 161.602 657.38 161.738L651.302 164.427C650.867 164.619 650.628 165.091 650.73 165.555L652.625 174.211C652.727 174.677 653.143 175.006 653.62 174.997L660.276 174.882C660.626 174.876 660.952 175.054 661.147 175.345C662.163 176.86 663.384 178.211 664.809 179.399C665.075 179.62 665.218 179.957 665.18 180.3L664.455 186.871C664.403 187.344 664.692 187.789 665.145 187.933L673.596 190.627C674.05 190.771 674.542 190.576 674.774 190.16L677.985 184.381C678.153 184.079 678.464 183.887 678.808 183.86C680.658 183.717 682.436 183.321 684.141 182.673C684.468 182.549 684.837 182.592 685.119 182.8L690.481 186.746C690.865 187.028 691.395 187 691.747 186.68L698.302 180.717C698.654 180.397 698.731 179.874 698.488 179.465L695.087 173.756C694.915 173.467 694.9 173.111 695.046 172.808C695.446 171.977 695.823 171.158 696.117 170.236ZM674.156 174.264C668.651 172.509 665.581 166.569 667.336 161.063C669.091 155.557 675.031 152.488 680.537 154.243C686.043 155.998 689.112 161.938 687.357 167.444C685.603 172.95 679.662 176.019 674.156 174.264Z" fill="white"/>
<path d="M513.873 247.353V216.553H527.865C531.209 216.553 534.157 217.198 536.709 218.489C539.261 219.75 541.255 221.525 542.693 223.813C544.13 226.101 544.849 228.814 544.849 231.953C544.849 235.062 544.13 237.775 542.693 240.093C541.255 242.381 539.261 244.17 536.709 245.461C534.157 246.722 531.209 247.353 527.865 247.353H513.873ZM521.001 241.501H527.513C529.566 241.501 531.341 241.119 532.837 240.357C534.362 239.565 535.535 238.45 536.357 237.013C537.207 235.575 537.633 233.889 537.633 231.953C537.633 229.987 537.207 228.301 536.357 226.893C535.535 225.455 534.362 224.355 532.837 223.593C531.341 222.801 529.566 222.405 527.513 222.405H521.001V241.501ZM562.984 247.881C560.55 247.881 558.291 247.485 556.208 246.693C554.155 245.901 552.366 244.786 550.84 243.349C549.344 241.911 548.171 240.225 547.32 238.289C546.499 236.353 546.088 234.241 546.088 231.953C546.088 229.665 546.499 227.553 547.32 225.617C548.171 223.681 549.359 221.994 550.884 220.557C552.41 219.119 554.199 218.005 556.252 217.213C558.306 216.421 560.535 216.025 562.94 216.025C565.375 216.025 567.604 216.421 569.628 217.213C571.682 218.005 573.456 219.119 574.952 220.557C576.478 221.994 577.666 223.681 578.516 225.617C579.367 227.523 579.792 229.635 579.792 231.953C579.792 234.241 579.367 236.367 578.516 238.333C577.666 240.269 576.478 241.955 574.952 243.393C573.456 244.801 571.682 245.901 569.628 246.693C567.604 247.485 565.39 247.881 562.984 247.881ZM562.94 241.809C564.319 241.809 565.58 241.574 566.724 241.105C567.898 240.635 568.924 239.961 569.804 239.081C570.684 238.201 571.359 237.159 571.828 235.957C572.327 234.754 572.576 233.419 572.576 231.953C572.576 230.486 572.327 229.151 571.828 227.949C571.359 226.746 570.684 225.705 569.804 224.825C568.954 223.945 567.942 223.27 566.768 222.801C565.595 222.331 564.319 222.097 562.94 222.097C561.562 222.097 560.286 222.331 559.112 222.801C557.968 223.27 556.956 223.945 556.076 224.825C555.196 225.705 554.507 226.746 554.008 227.949C553.539 229.151 553.304 230.486 553.304 231.953C553.304 233.39 553.539 234.725 554.008 235.957C554.507 237.159 555.182 238.201 556.032 239.081C556.912 239.961 557.939 240.635 559.112 241.105C560.286 241.574 561.562 241.809 562.94 241.809ZM597.689 247.881C595.313 247.881 593.099 247.499 591.045 246.737C589.021 245.945 587.261 244.83 585.765 243.393C584.269 241.955 583.096 240.269 582.245 238.333C581.424 236.397 581.013 234.27 581.013 231.953C581.013 229.635 581.424 227.509 582.245 225.573C583.096 223.637 584.269 221.95 585.765 220.513C587.291 219.075 589.065 217.975 591.089 217.213C593.113 216.421 595.328 216.025 597.733 216.025C600.403 216.025 602.808 216.494 604.949 217.433C607.12 218.342 608.939 219.691 610.405 221.481L605.829 225.705C604.773 224.502 603.6 223.607 602.309 223.021C601.019 222.405 599.611 222.097 598.085 222.097C596.648 222.097 595.328 222.331 594.125 222.801C592.923 223.27 591.881 223.945 591.001 224.825C590.121 225.705 589.432 226.746 588.933 227.949C588.464 229.151 588.229 230.486 588.229 231.953C588.229 233.419 588.464 234.754 588.933 235.957C589.432 237.159 590.121 238.201 591.001 239.081C591.881 239.961 592.923 240.635 594.125 241.105C595.328 241.574 596.648 241.809 598.085 241.809C599.611 241.809 601.019 241.515 602.309 240.929C603.6 240.313 604.773 239.389 605.829 238.157L610.405 242.381C608.939 244.17 607.12 245.534 604.949 246.473C602.808 247.411 600.388 247.881 597.689 247.881ZM627.246 247.881C624.812 247.881 622.568 247.499 620.514 246.737C618.49 245.945 616.716 244.83 615.19 243.393C613.694 241.955 612.521 240.269 611.67 238.333C610.849 236.397 610.438 234.27 610.438 231.953C610.438 229.635 610.849 227.509 611.67 225.573C612.521 223.637 613.709 221.95 615.234 220.513C616.76 219.075 618.549 217.975 620.602 217.213C622.656 216.421 624.914 216.025 627.378 216.025C630.106 216.025 632.556 216.479 634.726 217.389C636.926 218.298 638.774 219.618 640.27 221.349L635.694 225.573C634.58 224.399 633.362 223.534 632.042 222.977C630.722 222.39 629.285 222.097 627.73 222.097C626.234 222.097 624.87 222.331 623.638 222.801C622.406 223.27 621.336 223.945 620.426 224.825C619.546 225.705 618.857 226.746 618.358 227.949C617.889 229.151 617.654 230.486 617.654 231.953C617.654 233.39 617.889 234.71 618.358 235.913C618.857 237.115 619.546 238.171 620.426 239.081C621.336 239.961 622.392 240.635 623.594 241.105C624.826 241.574 626.176 241.809 627.642 241.809C629.05 241.809 630.414 241.589 631.734 241.149C633.084 240.679 634.389 239.902 635.65 238.817L639.698 243.965C638.026 245.226 636.076 246.194 633.846 246.869C631.646 247.543 629.446 247.881 627.246 247.881ZM633.186 243.041V231.469H639.698V243.965L633.186 243.041ZM650.675 228.961H665.503V234.505H650.675V228.961ZM651.203 241.633H667.967V247.353H644.119V216.553H667.396V222.273H651.203V241.633ZM671.439 247.353V216.553H677.335L695.507 238.729H692.647V216.553H699.687V247.353H693.835L675.619 225.177H678.479V247.353H671.439Z" fill="white"/>
</g>
<g filter="url(#filter1_d_1329_141)">
<path d="M875.383 126.59H946.415L975.994 156.898V256.588H875.383V126.59Z" fill="#F2F2F2"/>
</g>
<g filter="url(#filter2_d_1329_141)">
<path d="M946.744 126.59L975.994 156.727H946.744V126.59Z" fill="#F9F9F9"/>
</g>
<rect x="875.383" y="217.935" width="100.611" height="38.6526" fill="#4E4E4E"/>
<path d="M899.696 226.935H903.596V247.935H899.696V226.935ZM888.836 247.935H884.936V226.935H888.836V247.935ZM899.996 238.935H888.506V235.605H899.996V238.935ZM912.883 247.935V230.235H905.923V226.935H923.743V230.235H916.783V247.935H912.883ZM926.07 247.935V226.935H929.28L938.46 242.265H936.78L945.81 226.935H949.02L949.05 247.935H945.36L945.33 232.725H946.11L938.43 245.535H936.69L928.89 232.725H929.79V247.935H926.07ZM954.122 247.935V226.935H958.022V244.635H969.002V247.935H954.122Z" fill="white"/>
<g filter="url(#filter3_d_1329_141)">
<path d="M1017.47 267.436H1088.5L1118.08 297.744V397.434H1017.47V267.436Z" fill="#F2F2F2"/>
</g>
<g filter="url(#filter4_d_1329_141)">
<path d="M1088.83 267.436L1118.08 297.573H1088.83V267.436Z" fill="#F9F9F9"/>
</g>
<rect x="1017.47" y="358.781" width="100.611" height="38.6526" fill="#7E4040"/>
<path d="M1038.51 388.781V367.781H1047.15C1049.01 367.781 1050.6 368.081 1051.92 368.681C1053.26 369.281 1054.29 370.141 1055.01 371.261C1055.73 372.381 1056.09 373.711 1056.09 375.251C1056.09 376.791 1055.73 378.121 1055.01 379.241C1054.29 380.361 1053.26 381.221 1051.92 381.821C1050.6 382.421 1049.01 382.721 1047.15 382.721H1040.67L1042.41 380.891V388.781H1038.51ZM1042.41 381.311L1040.67 379.421H1046.97C1048.69 379.421 1049.98 379.061 1050.84 378.341C1051.72 377.601 1052.16 376.571 1052.16 375.251C1052.16 373.911 1051.72 372.881 1050.84 372.161C1049.98 371.441 1048.69 371.081 1046.97 371.081H1040.67L1042.41 369.161V381.311ZM1059.39 388.781V367.781H1068.57C1070.85 367.781 1072.85 368.221 1074.57 369.101C1076.29 369.981 1077.63 371.201 1078.59 372.761C1079.55 374.321 1080.03 376.161 1080.03 378.281C1080.03 380.381 1079.55 382.221 1078.59 383.801C1077.63 385.361 1076.29 386.581 1074.57 387.461C1072.85 388.341 1070.85 388.781 1068.57 388.781H1059.39ZM1063.29 385.481H1068.39C1069.97 385.481 1071.33 385.181 1072.47 384.581C1073.63 383.981 1074.52 383.141 1075.14 382.061C1075.78 380.981 1076.1 379.721 1076.1 378.281C1076.1 376.821 1075.78 375.561 1075.14 374.501C1074.52 373.421 1073.63 372.581 1072.47 371.981C1071.33 371.381 1069.97 371.081 1068.39 371.081H1063.29V385.481ZM1087.14 377.441H1097.61V380.741H1087.14V377.441ZM1087.47 388.781H1083.57V367.781H1098.9V371.051H1087.47V388.781Z" fill="white"/>
<line x1="1028.6" y1="283.414" x2="1053.6" y2="283.414" stroke="#939393" stroke-width="2.5"/>
<line x1="1028.6" y1="303.269" x2="1053.6" y2="303.269" stroke="#939393" stroke-width="2.5"/>
<line x1="1028.6" y1="323.123" x2="1103.6" y2="323.123" stroke="#939393" stroke-width="2.5"/>
<line x1="1028.6" y1="342.978" x2="1103.6" y2="342.978" stroke="#939393" stroke-width="2.5"/>
<g filter="url(#filter5_d_1329_141)">
<path d="M237.51 26.73H308.542L338.121 57.038V156.728H237.51V26.73Z" fill="#F2F2F2"/>
</g>
<g filter="url(#filter6_d_1329_141)">
<path d="M308.871 26.73L338.121 56.8673H308.871V26.73Z" fill="#F9F9F9"/>
</g>
<rect x="237.51" y="118.076" width="100.611" height="38.6526" fill="#010203"/>
<path d="M265.956 148.076V130.376H258.996V127.076H276.816V130.376H269.856V148.076H265.956ZM275.685 148.076L284.535 135.896V138.836L276.105 127.076H280.515L286.785 135.776L284.985 135.806L291.195 127.076H295.425L287.055 138.626V135.806L295.965 148.076H291.465L284.865 138.836H286.635L280.125 148.076H275.685ZM301.788 148.076V130.376H294.828V127.076H312.648V130.376H305.688V148.076H301.788Z" fill="white"/>
<line x1="248.642" y1="42.7085" x2="273.642" y2="42.7085" stroke="#939393" stroke-width="2.5"/>
<line x1="248.642" y1="62.563" x2="273.642" y2="62.563" stroke="#939393" stroke-width="2.5"/>
<line x1="248.642" y1="82.4175" x2="323.642" y2="82.4175" stroke="#939393" stroke-width="2.5"/>
<line x1="248.642" y1="102.272" x2="323.642" y2="102.272" stroke="#939393" stroke-width="2.5"/>
<g filter="url(#filter7_d_1329_141)">
<path d="M204.517 261.64H247.124L264.866 279.819V339.616H204.517V261.64Z" fill="#F2F2F2"/>
</g>
<g filter="url(#filter8_d_1329_141)">
<path d="M247.321 261.64L264.866 279.717H247.321V261.64Z" fill="#F9F9F9"/>
</g>
<rect x="204.517" y="316.431" width="60.3495" height="23.1849" fill="#237CE4"/>
<path d="M213.026 335.431V321.431H219.146C220.666 321.431 221.999 321.724 223.146 322.311C224.293 322.897 225.186 323.711 225.826 324.751C226.466 325.791 226.786 327.017 226.786 328.431C226.786 329.831 226.466 331.057 225.826 332.111C225.186 333.151 224.293 333.964 223.146 334.551C221.999 335.137 220.666 335.431 219.146 335.431H213.026ZM215.626 333.231H219.026C220.079 333.231 220.986 333.031 221.746 332.631C222.519 332.231 223.113 331.671 223.526 330.951C223.953 330.231 224.166 329.391 224.166 328.431C224.166 327.457 223.953 326.617 223.526 325.911C223.113 325.191 222.519 324.631 221.746 324.231C220.986 323.831 220.079 323.631 219.026 323.631H215.626V333.231ZM235.709 335.631C234.616 335.631 233.609 335.451 232.689 335.091C231.769 334.731 230.969 334.231 230.289 333.591C229.609 332.937 229.083 332.177 228.709 331.311C228.336 330.431 228.149 329.471 228.149 328.431C228.149 327.391 228.336 326.437 228.709 325.571C229.083 324.691 229.609 323.931 230.289 323.291C230.969 322.637 231.769 322.131 232.689 321.771C233.609 321.411 234.609 321.231 235.689 321.231C236.783 321.231 237.783 321.411 238.689 321.771C239.609 322.131 240.409 322.637 241.089 323.291C241.769 323.931 242.296 324.691 242.669 325.571C243.043 326.437 243.229 327.391 243.229 328.431C243.229 329.471 243.043 330.431 242.669 331.311C242.296 332.191 241.769 332.951 241.089 333.591C240.409 334.231 239.609 334.731 238.689 335.091C237.783 335.451 236.789 335.631 235.709 335.631ZM235.689 333.351C236.396 333.351 237.049 333.231 237.649 332.991C238.249 332.751 238.769 332.411 239.209 331.971C239.649 331.517 239.989 330.997 240.229 330.411C240.483 329.811 240.609 329.151 240.609 328.431C240.609 327.711 240.483 327.057 240.229 326.471C239.989 325.871 239.649 325.351 239.209 324.911C238.769 324.457 238.249 324.111 237.649 323.871C237.049 323.631 236.396 323.511 235.689 323.511C234.983 323.511 234.329 323.631 233.729 323.871C233.143 324.111 232.623 324.457 232.169 324.911C231.729 325.351 231.383 325.871 231.129 326.471C230.889 327.057 230.769 327.711 230.769 328.431C230.769 329.137 230.889 329.791 231.129 330.391C231.383 330.991 231.729 331.517 232.169 331.971C232.609 332.411 233.129 332.751 233.729 332.991C234.329 333.231 234.983 333.351 235.689 333.351ZM252.065 335.631C250.999 335.631 250.005 335.457 249.085 335.111C248.179 334.751 247.385 334.251 246.705 333.611C246.039 332.957 245.519 332.191 245.145 331.311C244.772 330.431 244.585 329.471 244.585 328.431C244.585 327.391 244.772 326.431 245.145 325.551C245.519 324.671 246.045 323.911 246.725 323.271C247.405 322.617 248.199 322.117 249.105 321.771C250.012 321.411 251.005 321.231 252.085 321.231C253.232 321.231 254.279 321.431 255.225 321.831C256.172 322.217 256.972 322.797 257.625 323.571L255.945 325.151C255.439 324.604 254.872 324.197 254.245 323.931C253.619 323.651 252.939 323.511 252.205 323.511C251.472 323.511 250.799 323.631 250.185 323.871C249.585 324.111 249.059 324.451 248.605 324.891C248.165 325.331 247.819 325.851 247.565 326.451C247.325 327.051 247.205 327.711 247.205 328.431C247.205 329.151 247.325 329.811 247.565 330.411C247.819 331.011 248.165 331.531 248.605 331.971C249.059 332.411 249.585 332.751 250.185 332.991C250.799 333.231 251.472 333.351 252.205 333.351C252.939 333.351 253.619 333.217 254.245 332.951C254.872 332.671 255.439 332.251 255.945 331.691L257.625 333.291C256.972 334.051 256.172 334.631 255.225 335.031C254.279 335.431 253.225 335.631 252.065 335.631Z" fill="white"/>
<line x1="211.193" y1="270.974" x2="236.193" y2="270.974" stroke="#939393" stroke-width="2"/>
<line x1="211.193" y1="282.883" x2="236.193" y2="282.883" stroke="#939393" stroke-width="2"/>
<line x1="211.193" y1="294.792" x2="256.181" y2="294.792" stroke="#939393" stroke-width="2"/>
<line x1="211.193" y1="306.702" x2="256.181" y2="306.702" stroke="#939393" stroke-width="2"/>
<g filter="url(#filter9_d_1329_141)">
<path d="M108.171 261.639H150.778L168.52 279.819V339.616H108.171V261.639Z" fill="#F2F2F2"/>
</g>
<g filter="url(#filter10_d_1329_141)">
<path d="M150.974 261.639L168.519 279.716H150.974V261.639Z" fill="#F9F9F9"/>
</g>
<rect x="108.171" y="316.431" width="60.3495" height="23.1849" fill="#616161"/>
<path d="M120.157 335.431V321.431H122.757V335.431H120.157ZM126.144 335.431V321.431H128.284L134.404 331.651H133.284L139.304 321.431H141.444L141.464 335.431H139.004L138.984 325.291H139.504L134.384 333.831H133.224L128.024 325.291H128.624V335.431H126.144ZM151.385 335.631C150.292 335.631 149.285 335.457 148.365 335.111C147.459 334.751 146.665 334.251 145.985 333.611C145.305 332.957 144.779 332.191 144.405 331.311C144.032 330.431 143.845 329.471 143.845 328.431C143.845 327.391 144.032 326.431 144.405 325.551C144.779 324.671 145.305 323.911 145.985 323.271C146.679 322.617 147.485 322.117 148.405 321.771C149.325 321.411 150.332 321.231 151.425 321.231C152.612 321.231 153.679 321.424 154.625 321.811C155.585 322.197 156.392 322.764 157.045 323.511L155.405 325.111C154.859 324.564 154.265 324.164 153.625 323.911C152.999 323.644 152.305 323.511 151.545 323.511C150.812 323.511 150.132 323.631 149.505 323.871C148.879 324.111 148.339 324.451 147.885 324.891C147.432 325.331 147.079 325.851 146.825 326.451C146.585 327.051 146.465 327.711 146.465 328.431C146.465 329.137 146.585 329.791 146.825 330.391C147.079 330.991 147.432 331.517 147.885 331.971C148.339 332.411 148.872 332.751 149.485 332.991C150.099 333.231 150.779 333.351 151.525 333.351C152.219 333.351 152.885 333.244 153.525 333.031C154.179 332.804 154.799 332.431 155.385 331.911L156.865 333.851C156.132 334.437 155.279 334.884 154.305 335.191C153.345 335.484 152.372 335.631 151.385 335.631ZM154.405 333.511V328.271H156.865V333.851L154.405 333.511Z" fill="white"/>
<circle cx="137.414" cy="291.376" r="13.56" fill="#6C6CF9"/>
<rect x="115.284" y="271.974" width="19.1736" height="19.0999" fill="#FF0000" fill-opacity="0.5"/>
<path opacity="0.5" d="M140.525 293.441L150.695 310.683H130.355L140.525 293.441Z" fill="#FFFF00"/>
<path d="M44.2686 81.6348L35.7726 56.4348H38.5086L46.4646 80.1588H45.0966L53.3046 56.4348H55.7526L63.8526 80.1588H62.5566L70.5846 56.4348H73.1406L64.6446 81.6348H61.8366L54.0966 59.1348H54.8166L47.0406 81.6348H44.2686ZM76.0268 81.6348V62.7348H78.4748V67.8828L78.2228 66.9828C78.7508 65.5428 79.6388 64.4508 80.8868 63.7068C82.1348 62.9388 83.6828 62.5548 85.5308 62.5548V65.0388C85.4348 65.0388 85.3388 65.0388 85.2428 65.0388C85.1468 65.0148 85.0508 65.0028 84.9548 65.0028C82.9628 65.0028 81.4028 65.6148 80.2748 66.8388C79.1468 68.0388 78.5828 69.7548 78.5828 71.9868V81.6348H76.0268ZM89.4748 81.6348V62.7348H92.0308V81.6348H89.4748ZM90.7708 58.5588C90.2428 58.5588 89.7988 58.3788 89.4388 58.0188C89.0788 57.6588 88.8988 57.2268 88.8988 56.7228C88.8988 56.2188 89.0788 55.7988 89.4388 55.4628C89.7988 55.1028 90.2428 54.9228 90.7708 54.9228C91.2988 54.9228 91.7428 55.0908 92.1028 55.4268C92.4628 55.7628 92.6428 56.1828 92.6428 56.6868C92.6428 57.2148 92.4628 57.6588 92.1028 58.0188C91.7668 58.3788 91.3228 58.5588 90.7708 58.5588ZM104.399 81.8148C102.623 81.8148 101.255 81.3348 100.295 80.3748C99.3347 79.4148 98.8547 78.0588 98.8547 76.3068V58.5588H101.411V76.1628C101.411 77.2668 101.687 78.1188 102.239 78.7188C102.815 79.3188 103.631 79.6188 104.687 79.6188C105.815 79.6188 106.751 79.2948 107.495 78.6468L108.395 80.4828C107.891 80.9388 107.279 81.2748 106.559 81.4908C105.863 81.7068 105.143 81.8148 104.399 81.8148ZM95.4707 64.8588V62.7348H107.171V64.8588H95.4707ZM119.688 81.8148C117.72 81.8148 115.992 81.4068 114.504 80.5908C113.016 79.7508 111.852 78.6108 111.012 77.1708C110.172 75.7068 109.752 74.0388 109.752 72.1668C109.752 70.2948 110.148 68.6388 110.94 67.1988C111.756 65.7588 112.86 64.6308 114.252 63.8148C115.668 62.9748 117.252 62.5548 119.004 62.5548C120.78 62.5548 122.352 62.9628 123.72 63.7788C125.112 64.5708 126.204 65.6988 126.996 67.1628C127.788 68.6028 128.184 70.2708 128.184 72.1668C128.184 72.2868 128.172 72.4188 128.148 72.5628C128.148 72.6828 128.148 72.8148 128.148 72.9588H111.696V71.0508H126.78L125.772 71.8068C125.772 70.4388 125.472 69.2268 124.872 68.1708C124.296 67.0908 123.504 66.2508 122.496 65.6508C121.488 65.0508 120.324 64.7508 119.004 64.7508C117.708 64.7508 116.544 65.0508 115.512 65.6508C114.48 66.2508 113.676 67.0908 113.1 68.1708C112.524 69.2508 112.236 70.4868 112.236 71.8788V72.2748C112.236 73.7148 112.548 74.9868 113.172 76.0908C113.82 77.1708 114.708 78.0228 115.836 78.6468C116.988 79.2468 118.296 79.5468 119.76 79.5468C120.912 79.5468 121.98 79.3428 122.964 78.9348C123.972 78.5268 124.836 77.9028 125.556 77.0628L126.996 78.7188C126.156 79.7268 125.1 80.4948 123.828 81.0228C122.58 81.5508 121.2 81.8148 119.688 81.8148ZM141.368 81.6348V62.7348H143.924V81.6348H141.368ZM142.664 58.5588C142.136 58.5588 141.692 58.3788 141.332 58.0188C140.972 57.6588 140.792 57.2268 140.792 56.7228C140.792 56.2188 140.972 55.7988 141.332 55.4628C141.692 55.1028 142.136 54.9228 142.664 54.9228C143.192 54.9228 143.636 55.0908 143.996 55.4268C144.356 55.7628 144.536 56.1828 144.536 56.6868C144.536 57.2148 144.356 57.6588 143.996 58.0188C143.66 58.3788 143.216 58.5588 142.664 58.5588ZM159.964 62.5548C161.5 62.5548 162.844 62.8548 163.996 63.4548C165.172 64.0308 166.084 64.9188 166.732 66.1188C167.404 67.3188 167.74 68.8308 167.74 70.6548V81.6348H165.184V70.9068C165.184 68.9148 164.68 67.4148 163.672 66.4068C162.688 65.3748 161.296 64.8588 159.496 64.8588C158.152 64.8588 156.976 65.1348 155.968 65.6868C154.984 66.2148 154.216 66.9948 153.664 68.0268C153.136 69.0348 152.872 70.2588 152.872 71.6988V81.6348H150.316V62.7348H152.764V67.9188L152.368 66.9468C152.968 65.5788 153.928 64.5108 155.248 63.7428C156.568 62.9508 158.14 62.5548 159.964 62.5548ZM32.0785 119.887C30.5185 119.887 29.0905 119.527 27.7945 118.807C26.5225 118.087 25.5025 117.007 24.7345 115.567C23.9905 114.103 23.6185 112.255 23.6185 110.023C23.6185 107.767 23.9785 105.919 24.6985 104.479C25.4425 103.039 26.4505 101.971 27.7225 101.275C28.9945 100.555 30.4465 100.195 32.0785 100.195C33.9745 100.195 35.6425 100.603 37.0825 101.419C38.5465 102.235 39.6985 103.375 40.5385 104.839C41.4025 106.303 41.8345 108.031 41.8345 110.023C41.8345 112.015 41.4025 113.755 40.5385 115.243C39.6985 116.707 38.5465 117.847 37.0825 118.663C35.6425 119.479 33.9745 119.887 32.0785 119.887ZM21.4225 126.619V100.411H25.7065V104.947L25.5625 110.059L25.9225 115.171V126.619H21.4225ZM31.5745 116.035C32.6545 116.035 33.6145 115.795 34.4545 115.315C35.3185 114.835 36.0025 114.139 36.5065 113.227C37.0105 112.315 37.2625 111.247 37.2625 110.023C37.2625 108.775 37.0105 107.707 36.5065 106.819C36.0025 105.907 35.3185 105.211 34.4545 104.731C33.6145 104.251 32.6545 104.011 31.5745 104.011C30.4945 104.011 29.5225 104.251 28.6585 104.731C27.7945 105.211 27.1105 105.907 26.6065 106.819C26.1025 107.707 25.8505 108.775 25.8505 110.023C25.8505 111.247 26.1025 112.315 26.6065 113.227C27.1105 114.139 27.7945 114.835 28.6585 115.315C29.5225 115.795 30.4945 116.035 31.5745 116.035ZM45.3822 119.635V92.9228H49.8822V119.635H45.3822ZM66.9125 119.635V115.747L66.6605 114.919V108.115C66.6605 106.795 66.2645 105.775 65.4725 105.055C64.6805 104.311 63.4805 103.939 61.8725 103.939C60.7925 103.939 59.7245 104.107 58.6685 104.443C57.6365 104.779 56.7605 105.247 56.0405 105.847L54.2765 102.571C55.3085 101.779 56.5325 101.191 57.9485 100.807C59.3885 100.399 60.8765 100.195 62.4125 100.195C65.1965 100.195 67.3445 100.867 68.8565 102.211C70.3925 103.531 71.1605 105.583 71.1605 108.367V119.635H66.9125ZM60.8645 119.887C59.4245 119.887 58.1645 119.647 57.0845 119.167C56.0045 118.663 55.1645 117.979 54.5645 117.115C53.9885 116.227 53.7005 115.231 53.7005 114.127C53.7005 113.047 53.9525 112.075 54.4565 111.211C54.9845 110.347 55.8365 109.663 57.0125 109.159C58.1885 108.655 59.7485 108.403 61.6925 108.403H67.2725V111.391H62.0165C60.4805 111.391 59.4485 111.643 58.9205 112.147C58.3925 112.627 58.1285 113.227 58.1285 113.947C58.1285 114.763 58.4525 115.411 59.1005 115.891C59.7485 116.371 60.6485 116.611 61.8005 116.611C62.9045 116.611 63.8885 116.359 64.7525 115.855C65.6405 115.351 66.2765 114.607 66.6605 113.623L67.4165 116.323C66.9845 117.451 66.2045 118.327 65.0765 118.951C63.9725 119.575 62.5685 119.887 60.8645 119.887ZM76.2156 119.635V100.411H80.7156V119.635H76.2156ZM78.4836 97.2428C77.6436 97.2428 76.9476 96.9788 76.3956 96.4508C75.8676 95.9228 75.6036 95.2868 75.6036 94.5428C75.6036 93.7748 75.8676 93.1388 76.3956 92.6348C76.9476 92.1068 77.6436 91.8428 78.4836 91.8428C79.3236 91.8428 80.0076 92.0948 80.5356 92.5988C81.0876 93.0788 81.3636 93.6908 81.3636 94.4348C81.3636 95.2268 81.0996 95.8988 80.5716 96.4508C80.0436 96.9788 79.3476 97.2428 78.4836 97.2428ZM96.8099 100.195C98.3459 100.195 99.7139 100.495 100.914 101.095C102.138 101.695 103.098 102.619 103.794 103.867C104.49 105.091 104.838 106.675 104.838 108.619V119.635H100.338V109.195C100.338 107.491 99.9299 106.219 99.1139 105.379C98.3219 104.539 97.2059 104.119 95.7659 104.119C94.7099 104.119 93.7739 104.335 92.9579 104.767C92.1419 105.199 91.5059 105.847 91.0499 106.711C90.6179 107.551 90.4019 108.619 90.4019 109.915V119.635H85.9019V100.411H90.1859V105.595L89.4299 104.011C90.1019 102.787 91.0739 101.851 92.3459 101.203C93.6419 100.531 95.1299 100.195 96.8099 100.195ZM126.292 119.887C124.18 119.887 122.548 119.347 121.396 118.267C120.244 117.163 119.668 115.543 119.668 113.407V96.1628H124.168V113.299C124.168 114.211 124.396 114.919 124.852 115.423C125.332 115.927 125.992 116.179 126.832 116.179C127.84 116.179 128.68 115.915 129.352 115.387L130.612 118.591C130.084 119.023 129.436 119.347 128.668 119.563C127.9 119.779 127.108 119.887 126.292 119.887ZM116.5 104.155V100.555H129.316V104.155H116.5ZM141.997 119.887C139.861 119.887 137.989 119.467 136.381 118.627C134.797 117.763 133.561 116.587 132.673 115.099C131.809 113.611 131.377 111.919 131.377 110.023C131.377 108.103 131.797 106.411 132.637 104.947C133.501 103.459 134.677 102.295 136.165 101.455C137.677 100.615 139.393 100.195 141.313 100.195C143.185 100.195 144.853 100.603 146.317 101.419C147.781 102.235 148.933 103.387 149.773 104.875C150.613 106.363 151.033 108.115 151.033 110.131C151.033 110.323 151.021 110.539 150.997 110.779C150.997 111.019 150.985 111.247 150.961 111.463H134.941V108.475H148.585L146.821 109.411C146.845 108.307 146.617 107.335 146.137 106.495C145.657 105.655 144.997 104.995 144.157 104.515C143.341 104.035 142.393 103.795 141.313 103.795C140.209 103.795 139.237 104.035 138.397 104.515C137.581 104.995 136.933 105.667 136.453 106.531C135.997 107.371 135.769 108.367 135.769 109.519V110.239C135.769 111.391 136.033 112.411 136.561 113.299C137.089 114.187 137.833 114.871 138.793 115.351C139.753 115.831 140.857 116.071 142.105 116.071C143.185 116.071 144.157 115.903 145.021 115.567C145.885 115.231 146.653 114.703 147.325 113.983L149.737 116.755C148.873 117.763 147.781 118.543 146.461 119.095C145.165 119.623 143.677 119.887 141.997 119.887ZM151.48 119.635L159.94 108.619L159.868 111.031L151.804 100.411H156.808L162.46 107.971H160.552L166.24 100.411H171.1L162.964 111.031L163 108.619L171.424 119.635H166.348L160.408 111.607L162.28 111.859L156.448 119.635H151.48ZM181.261 119.887C179.149 119.887 177.517 119.347 176.365 118.267C175.213 117.163 174.637 115.543 174.637 113.407V96.1628H179.137V113.299C179.137 114.211 179.365 114.919 179.821 115.423C180.301 115.927 180.961 116.179 181.801 116.179C182.809 116.179 183.649 115.915 184.321 115.387L185.581 118.591C185.053 119.023 184.405 119.347 183.637 119.563C182.869 119.779 182.077 119.887 181.261 119.887ZM171.469 104.155V100.555H184.285V104.155H171.469Z" fill="#010203"/>
<path d="M55.6836 406L66.5636 382.2H69.0456L79.9256 406H77.2736L67.2776 383.662H68.2976L58.3016 406H55.6836ZM59.9676 399.642L60.7156 397.602H74.5536L75.3016 399.642H59.9676ZM88.1507 406.17C86.4734 406.17 85.1814 405.717 84.2747 404.81C83.368 403.903 82.9147 402.623 82.9147 400.968V384.206H85.3287V400.832C85.3287 401.875 85.5894 402.679 86.1107 403.246C86.6547 403.813 87.4254 404.096 88.4227 404.096C89.488 404.096 90.372 403.79 91.0747 403.178L91.9247 404.912C91.4487 405.343 90.8707 405.66 90.1907 405.864C89.5334 406.068 88.8534 406.17 88.1507 406.17ZM79.7187 390.156V388.15H90.7687V390.156H79.7187ZM100.818 406.17C99.141 406.17 97.849 405.717 96.9424 404.81C96.0357 403.903 95.5824 402.623 95.5824 400.968V384.206H97.9964V400.832C97.9964 401.875 98.257 402.679 98.7784 403.246C99.3224 403.813 100.093 404.096 101.09 404.096C102.156 404.096 103.04 403.79 103.742 403.178L104.592 404.912C104.116 405.343 103.538 405.66 102.858 405.864C102.201 406.068 101.521 406.17 100.818 406.17ZM92.3864 390.156V388.15H103.436V390.156H92.3864ZM119.493 406V402.056L119.391 401.41V394.814C119.391 393.295 118.96 392.128 118.099 391.312C117.26 390.496 116.002 390.088 114.325 390.088C113.169 390.088 112.07 390.281 111.027 390.666C109.984 391.051 109.1 391.561 108.375 392.196L107.287 390.394C108.194 389.623 109.282 389.034 110.551 388.626C111.82 388.195 113.158 387.98 114.563 387.98C116.875 387.98 118.654 388.558 119.901 389.714C121.17 390.847 121.805 392.581 121.805 394.916V406H119.493ZM113.339 406.17C112.002 406.17 110.834 405.955 109.837 405.524C108.862 405.071 108.114 404.459 107.593 403.688C107.072 402.895 106.811 401.988 106.811 400.968C106.811 400.039 107.026 399.2 107.457 398.452C107.91 397.681 108.636 397.069 109.633 396.616C110.653 396.14 112.013 395.902 113.713 395.902H119.867V397.704H113.781C112.058 397.704 110.857 398.01 110.177 398.622C109.52 399.234 109.191 399.993 109.191 400.9C109.191 401.92 109.588 402.736 110.381 403.348C111.174 403.96 112.285 404.266 113.713 404.266C115.073 404.266 116.24 403.96 117.215 403.348C118.212 402.713 118.938 401.807 119.391 400.628L119.935 402.294C119.482 403.473 118.688 404.413 117.555 405.116C116.444 405.819 115.039 406.17 113.339 406.17ZM135.094 406.17C133.326 406.17 131.739 405.785 130.334 405.014C128.951 404.221 127.863 403.144 127.07 401.784C126.276 400.401 125.88 398.826 125.88 397.058C125.88 395.267 126.276 393.692 127.07 392.332C127.863 390.972 128.951 389.907 130.334 389.136C131.739 388.365 133.326 387.98 135.094 387.98C136.612 387.98 137.984 388.275 139.208 388.864C140.432 389.453 141.395 390.337 142.098 391.516L140.296 392.74C139.684 391.833 138.924 391.165 138.018 390.734C137.111 390.303 136.125 390.088 135.06 390.088C133.79 390.088 132.646 390.383 131.626 390.972C130.606 391.539 129.801 392.343 129.212 393.386C128.622 394.429 128.328 395.653 128.328 397.058C128.328 398.463 128.622 399.687 129.212 400.73C129.801 401.773 130.606 402.589 131.626 403.178C132.646 403.745 133.79 404.028 135.06 404.028C136.125 404.028 137.111 403.813 138.018 403.382C138.924 402.951 139.684 402.294 140.296 401.41L142.098 402.634C141.395 403.79 140.432 404.674 139.208 405.286C137.984 405.875 136.612 406.17 135.094 406.17ZM155.006 387.98C156.457 387.98 157.726 388.263 158.814 388.83C159.925 389.374 160.786 390.213 161.398 391.346C162.033 392.479 162.35 393.907 162.35 395.63V406H159.936V395.868C159.936 393.987 159.46 392.57 158.508 391.618C157.579 390.643 156.264 390.156 154.564 390.156C153.295 390.156 152.184 390.417 151.232 390.938C150.303 391.437 149.577 392.173 149.056 393.148C148.557 394.1 148.308 395.256 148.308 396.616V406H145.894V380.772H148.308V393.046L147.832 392.128C148.399 390.836 149.305 389.827 150.552 389.102C151.799 388.354 153.283 387.98 155.006 387.98ZM183.685 406.17C181.962 406.17 180.41 405.785 179.027 405.014C177.667 404.221 176.59 403.144 175.797 401.784C175.004 400.401 174.607 398.826 174.607 397.058C174.607 395.267 175.004 393.692 175.797 392.332C176.59 390.972 177.667 389.907 179.027 389.136C180.387 388.365 181.94 387.98 183.685 387.98C185.453 387.98 187.017 388.365 188.377 389.136C189.76 389.907 190.836 390.972 191.607 392.332C192.4 393.692 192.797 395.267 192.797 397.058C192.797 398.826 192.4 400.401 191.607 401.784C190.836 403.144 189.76 404.221 188.377 405.014C186.994 405.785 185.43 406.17 183.685 406.17ZM183.685 404.028C184.977 404.028 186.122 403.745 187.119 403.178C188.116 402.589 188.898 401.773 189.465 400.73C190.054 399.665 190.349 398.441 190.349 397.058C190.349 395.653 190.054 394.429 189.465 393.386C188.898 392.343 188.116 391.539 187.119 390.972C186.122 390.383 184.988 390.088 183.719 390.088C182.45 390.088 181.316 390.383 180.319 390.972C179.322 391.539 178.528 392.343 177.939 393.386C177.35 394.429 177.055 395.653 177.055 397.058C177.055 398.441 177.35 399.665 177.939 400.73C178.528 401.773 179.322 402.589 180.319 403.178C181.316 403.745 182.438 404.028 183.685 404.028ZM206.26 406.17C204.718 406.17 203.324 405.819 202.078 405.116C200.831 404.391 199.834 403.359 199.086 402.022C198.36 400.662 197.998 399.007 197.998 397.058C197.998 395.109 198.36 393.465 199.086 392.128C199.811 390.768 200.797 389.737 202.044 389.034C203.29 388.331 204.696 387.98 206.26 387.98C207.96 387.98 209.478 388.365 210.816 389.136C212.176 389.884 213.241 390.949 214.012 392.332C214.782 393.692 215.168 395.267 215.168 397.058C215.168 398.871 214.782 400.458 214.012 401.818C213.241 403.178 212.176 404.243 210.816 405.014C209.478 405.785 207.96 406.17 206.26 406.17ZM197.046 412.596V388.15H199.358V393.522L199.12 397.092L199.46 400.696V412.596H197.046ZM206.09 404.028C207.359 404.028 208.492 403.745 209.49 403.178C210.487 402.589 211.28 401.773 211.87 400.73C212.459 399.665 212.754 398.441 212.754 397.058C212.754 395.675 212.459 394.463 211.87 393.42C211.28 392.377 210.487 391.561 209.49 390.972C208.492 390.383 207.359 390.088 206.09 390.088C204.82 390.088 203.676 390.383 202.656 390.972C201.658 391.561 200.865 392.377 200.276 393.42C199.709 394.463 199.426 395.675 199.426 397.058C199.426 398.441 199.709 399.665 200.276 400.73C200.865 401.773 201.658 402.589 202.656 403.178C203.676 403.745 204.82 404.028 206.09 404.028ZM225.053 406.17C223.375 406.17 222.083 405.717 221.177 404.81C220.27 403.903 219.817 402.623 219.817 400.968V384.206H222.231V400.832C222.231 401.875 222.491 402.679 223.013 403.246C223.557 403.813 224.327 404.096 225.325 404.096C226.39 404.096 227.274 403.79 227.977 403.178L228.827 404.912C228.351 405.343 227.773 405.66 227.093 405.864C226.435 406.068 225.755 406.17 225.053 406.17ZM216.621 390.156V388.15H227.671V390.156H216.621ZM232.541 406V388.15H234.955V406H232.541ZM233.765 384.206C233.266 384.206 232.847 384.036 232.507 383.696C232.167 383.356 231.997 382.948 231.997 382.472C231.997 381.996 232.167 381.599 232.507 381.282C232.847 380.942 233.266 380.772 233.765 380.772C234.264 380.772 234.683 380.931 235.023 381.248C235.363 381.565 235.533 381.962 235.533 382.438C235.533 382.937 235.363 383.356 235.023 383.696C234.706 384.036 234.286 384.206 233.765 384.206ZM248.268 406.17C246.545 406.17 244.993 405.785 243.61 405.014C242.25 404.221 241.173 403.144 240.38 401.784C239.587 400.401 239.19 398.826 239.19 397.058C239.19 395.267 239.587 393.692 240.38 392.332C241.173 390.972 242.25 389.907 243.61 389.136C244.97 388.365 246.523 387.98 248.268 387.98C250.036 387.98 251.6 388.365 252.96 389.136C254.343 389.907 255.419 390.972 256.19 392.332C256.983 393.692 257.38 395.267 257.38 397.058C257.38 398.826 256.983 400.401 256.19 401.784C255.419 403.144 254.343 404.221 252.96 405.014C251.577 405.785 250.013 406.17 248.268 406.17ZM248.268 404.028C249.56 404.028 250.705 403.745 251.702 403.178C252.699 402.589 253.481 401.773 254.048 400.73C254.637 399.665 254.932 398.441 254.932 397.058C254.932 395.653 254.637 394.429 254.048 393.386C253.481 392.343 252.699 391.539 251.702 390.972C250.705 390.383 249.571 390.088 248.302 390.088C247.033 390.088 245.899 390.383 244.902 390.972C243.905 391.539 243.111 392.343 242.522 393.386C241.933 394.429 241.638 395.653 241.638 397.058C241.638 398.441 241.933 399.665 242.522 400.73C243.111 401.773 243.905 402.589 244.902 403.178C245.899 403.745 247.021 404.028 248.268 404.028ZM270.74 387.98C272.191 387.98 273.46 388.263 274.548 388.83C275.659 389.374 276.52 390.213 277.132 391.346C277.767 392.479 278.084 393.907 278.084 395.63V406H275.67V395.868C275.67 393.987 275.194 392.57 274.242 391.618C273.313 390.643 271.998 390.156 270.298 390.156C269.029 390.156 267.918 390.417 266.966 390.938C266.037 391.437 265.312 392.173 264.79 393.148C264.292 394.1 264.042 395.256 264.042 396.616V406H261.628V388.15H263.94V393.046L263.566 392.128C264.133 390.836 265.04 389.827 266.286 389.102C267.533 388.354 269.018 387.98 270.74 387.98ZM295.111 406V402.056L295.009 401.41V394.814C295.009 393.295 294.578 392.128 293.717 391.312C292.878 390.496 291.62 390.088 289.943 390.088C288.787 390.088 287.688 390.281 286.645 390.666C285.602 391.051 284.718 391.561 283.993 392.196L282.905 390.394C283.812 389.623 284.9 389.034 286.169 388.626C287.438 388.195 288.776 387.98 290.181 387.98C292.493 387.98 294.272 388.558 295.519 389.714C296.788 390.847 297.423 392.581 297.423 394.916V406H295.111ZM288.957 406.17C287.62 406.17 286.452 405.955 285.455 405.524C284.48 405.071 283.732 404.459 283.211 403.688C282.69 402.895 282.429 401.988 282.429 400.968C282.429 400.039 282.644 399.2 283.075 398.452C283.528 397.681 284.254 397.069 285.251 396.616C286.271 396.14 287.631 395.902 289.331 395.902H295.485V397.704H289.399C287.676 397.704 286.475 398.01 285.795 398.622C285.138 399.234 284.809 399.993 284.809 400.9C284.809 401.92 285.206 402.736 285.999 403.348C286.792 403.96 287.903 404.266 289.331 404.266C290.691 404.266 291.858 403.96 292.833 403.348C293.83 402.713 294.556 401.807 295.009 400.628L295.553 402.294C295.1 403.473 294.306 404.413 293.173 405.116C292.062 405.819 290.657 406.17 288.957 406.17ZM303.3 406V380.772H305.714V406H303.3ZM38.371 444.238C36.6257 444.238 35.0503 443.853 33.645 443.082C32.2623 442.289 31.1743 441.201 30.381 439.818C29.5877 438.435 29.191 436.803 29.191 434.922C29.191 433.041 29.5877 431.409 30.381 430.026C31.1743 428.643 32.2623 427.567 33.645 426.796C35.0503 426.025 36.6257 425.64 38.371 425.64C39.8897 425.64 41.2497 425.98 42.451 426.66C43.6523 427.317 44.6043 428.326 45.307 429.686C46.0097 431.046 46.361 432.791 46.361 434.922C46.361 437.03 46.021 438.775 45.341 440.158C44.661 441.518 43.7203 442.538 42.519 443.218C41.3177 443.898 39.935 444.238 38.371 444.238ZM38.881 440.6C39.901 440.6 40.8077 440.373 41.601 439.92C42.417 439.467 43.063 438.809 43.539 437.948C44.0377 437.087 44.287 436.078 44.287 434.922C44.287 433.743 44.0377 432.735 43.539 431.896C43.063 431.035 42.417 430.377 41.601 429.924C40.8077 429.471 39.901 429.244 38.881 429.244C37.861 429.244 36.943 429.471 36.127 429.924C35.3337 430.377 34.6877 431.035 34.189 431.896C33.713 432.735 33.475 433.743 33.475 434.922C33.475 436.078 33.713 437.087 34.189 437.948C34.6877 438.809 35.3337 439.467 36.127 439.92C36.943 440.373 37.861 440.6 38.881 440.6ZM44.389 444V439.716L44.559 434.888L44.219 430.06V418.772H48.435V444H44.389ZM53.3488 444V425.844H57.5988V444H53.3488ZM55.4908 422.852C54.6975 422.852 54.0401 422.603 53.5188 422.104C53.0201 421.605 52.7708 421.005 52.7708 420.302C52.7708 419.577 53.0201 418.976 53.5188 418.5C54.0401 418.001 54.6975 417.752 55.4908 417.752C56.2841 417.752 56.9301 417.99 57.4288 418.466C57.9501 418.919 58.2108 419.497 58.2108 420.2C58.2108 420.948 57.9615 421.583 57.4628 422.104C56.9641 422.603 56.3068 422.852 55.4908 422.852ZM73.6829 444V440.328L73.4449 439.546V433.12C73.4449 431.873 73.0709 430.91 72.3229 430.23C71.5749 429.527 70.4416 429.176 68.9229 429.176C67.9029 429.176 66.8942 429.335 65.8969 429.652C64.9222 429.969 64.0949 430.411 63.4149 430.978L61.7489 427.884C62.7236 427.136 63.8796 426.581 65.2169 426.218C66.5769 425.833 67.9822 425.64 69.4329 425.64C72.0622 425.64 74.0909 426.275 75.5189 427.544C76.9696 428.791 77.6949 430.729 77.6949 433.358V444H73.6829ZM67.9709 444.238C66.6109 444.238 65.4209 444.011 64.4009 443.558C63.3809 443.082 62.5876 442.436 62.0209 441.62C61.4769 440.781 61.2049 439.841 61.2049 438.798C61.2049 437.778 61.4429 436.86 61.9189 436.044C62.4176 435.228 63.2222 434.582 64.3329 434.106C65.4436 433.63 66.9169 433.392 68.7529 433.392H74.0229V436.214H69.0589C67.6082 436.214 66.6336 436.452 66.1349 436.928C65.6362 437.381 65.3869 437.948 65.3869 438.628C65.3869 439.399 65.6929 440.011 66.3049 440.464C66.9169 440.917 67.7669 441.144 68.8549 441.144C69.8976 441.144 70.8269 440.906 71.6429 440.43C72.4816 439.954 73.0822 439.251 73.4449 438.322L74.1589 440.872C73.7509 441.937 73.0142 442.765 71.9489 443.354C70.9062 443.943 69.5802 444.238 67.9709 444.238ZM90.7305 450.834C89.0531 450.834 87.4098 450.607 85.8005 450.154C84.2138 449.723 82.9105 449.089 81.8905 448.25L83.7945 445.054C84.5878 445.711 85.5851 446.233 86.7865 446.618C88.0105 447.026 89.2458 447.23 90.4925 447.23C92.4871 447.23 93.9491 446.765 94.8785 445.836C95.8078 444.929 96.2725 443.558 96.2725 441.722V438.492L96.6125 434.378L96.4765 430.264V425.844H100.522V441.246C100.522 444.533 99.6838 446.947 98.0065 448.488C96.3291 450.052 93.9038 450.834 90.7305 450.834ZM90.1865 443.184C88.4638 443.184 86.8998 442.821 85.4945 442.096C84.1118 441.348 83.0125 440.317 82.1965 439.002C81.4031 437.687 81.0065 436.146 81.0065 434.378C81.0065 432.633 81.4031 431.103 82.1965 429.788C83.0125 428.473 84.1118 427.453 85.4945 426.728C86.8998 426.003 88.4638 425.64 90.1865 425.64C91.7278 425.64 93.1105 425.946 94.3345 426.558C95.5585 427.17 96.5331 428.122 97.2585 429.414C98.0065 430.706 98.3805 432.361 98.3805 434.378C98.3805 436.395 98.0065 438.061 97.2585 439.376C96.5331 440.668 95.5585 441.631 94.3345 442.266C93.1105 442.878 91.7278 443.184 90.1865 443.184ZM90.8325 439.58C91.8978 439.58 92.8498 439.365 93.6885 438.934C94.5271 438.481 95.1731 437.869 95.6265 437.098C96.1025 436.305 96.3405 435.398 96.3405 434.378C96.3405 433.358 96.1025 432.463 95.6265 431.692C95.1731 430.899 94.5271 430.298 93.6885 429.89C92.8498 429.459 91.8978 429.244 90.8325 429.244C89.7671 429.244 88.8038 429.459 87.9425 429.89C87.1038 430.298 86.4465 430.899 85.9705 431.692C85.5171 432.463 85.2905 433.358 85.2905 434.378C85.2905 435.398 85.5171 436.305 85.9705 437.098C86.4465 437.869 87.1038 438.481 87.9425 438.934C88.8038 439.365 89.7671 439.58 90.8325 439.58ZM105.43 444V425.844H109.476V430.842L109 429.38C109.544 428.156 110.394 427.227 111.55 426.592C112.729 425.957 114.191 425.64 115.936 425.64V429.686C115.755 429.641 115.585 429.618 115.426 429.618C115.267 429.595 115.109 429.584 114.95 429.584C113.341 429.584 112.06 430.06 111.108 431.012C110.156 431.941 109.68 433.335 109.68 435.194V444H105.43ZM128.752 444V440.328L128.514 439.546V433.12C128.514 431.873 128.14 430.91 127.392 430.23C126.644 429.527 125.511 429.176 123.992 429.176C122.972 429.176 121.964 429.335 120.966 429.652C119.992 429.969 119.164 430.411 118.484 430.978L116.818 427.884C117.793 427.136 118.949 426.581 120.286 426.218C121.646 425.833 123.052 425.64 124.502 425.64C127.132 425.64 129.16 426.275 130.588 427.544C132.039 428.791 132.764 430.729 132.764 433.358V444H128.752ZM123.04 444.238C121.68 444.238 120.49 444.011 119.47 443.558C118.45 443.082 117.657 442.436 117.09 441.62C116.546 440.781 116.274 439.841 116.274 438.798C116.274 437.778 116.512 436.86 116.988 436.044C117.487 435.228 118.292 434.582 119.402 434.106C120.513 433.63 121.986 433.392 123.822 433.392H129.092V436.214H124.128C122.678 436.214 121.703 436.452 121.204 436.928C120.706 437.381 120.456 437.948 120.456 438.628C120.456 439.399 120.762 440.011 121.374 440.464C121.986 440.917 122.836 441.144 123.924 441.144C124.967 441.144 125.896 440.906 126.712 440.43C127.551 439.954 128.152 439.251 128.514 438.322L129.228 440.872C128.82 441.937 128.084 442.765 127.018 443.354C125.976 443.943 124.65 444.238 123.04 444.238ZM160.455 425.64C161.905 425.64 163.186 425.923 164.297 426.49C165.43 427.057 166.314 427.929 166.949 429.108C167.583 430.264 167.901 431.76 167.901 433.596V444H163.651V434.14C163.651 432.531 163.299 431.329 162.597 430.536C161.894 429.743 160.885 429.346 159.571 429.346C158.641 429.346 157.814 429.55 157.089 429.958C156.386 430.366 155.831 430.967 155.423 431.76C155.037 432.553 154.845 433.562 154.845 434.786V444H150.595V434.14C150.595 432.531 150.243 431.329 149.541 430.536C148.838 429.743 147.829 429.346 146.515 429.346C145.585 429.346 144.758 429.55 144.033 429.958C143.33 430.366 142.775 430.967 142.367 431.76C141.981 432.553 141.789 433.562 141.789 434.786V444H137.539V425.844H141.585V430.672L140.871 429.244C141.483 428.065 142.367 427.17 143.523 426.558C144.701 425.946 146.039 425.64 147.535 425.64C149.235 425.64 150.708 426.059 151.955 426.898C153.224 427.737 154.063 429.006 154.471 430.706L152.805 430.128C153.394 428.768 154.369 427.68 155.729 426.864C157.089 426.048 158.664 425.64 160.455 425.64ZM178.262 444.238C176.743 444.238 175.281 444.045 173.876 443.66C172.493 443.252 171.394 442.765 170.578 442.198L172.21 438.968C173.026 439.489 174 439.92 175.134 440.26C176.267 440.6 177.4 440.77 178.534 440.77C179.871 440.77 180.834 440.589 181.424 440.226C182.036 439.863 182.342 439.376 182.342 438.764C182.342 438.265 182.138 437.891 181.73 437.642C181.322 437.37 180.789 437.166 180.132 437.03C179.474 436.894 178.738 436.769 177.922 436.656C177.128 436.543 176.324 436.395 175.508 436.214C174.714 436.01 173.989 435.727 173.332 435.364C172.674 434.979 172.142 434.469 171.734 433.834C171.326 433.199 171.122 432.361 171.122 431.318C171.122 430.162 171.45 429.165 172.108 428.326C172.765 427.465 173.683 426.807 174.862 426.354C176.063 425.878 177.48 425.64 179.112 425.64C180.336 425.64 181.571 425.776 182.818 426.048C184.064 426.32 185.096 426.705 185.912 427.204L184.28 430.434C183.418 429.913 182.546 429.561 181.662 429.38C180.8 429.176 179.939 429.074 179.078 429.074C177.786 429.074 176.822 429.267 176.188 429.652C175.576 430.037 175.27 430.525 175.27 431.114C175.27 431.658 175.474 432.066 175.882 432.338C176.29 432.61 176.822 432.825 177.48 432.984C178.137 433.143 178.862 433.279 179.656 433.392C180.472 433.483 181.276 433.63 182.07 433.834C182.863 434.038 183.588 434.321 184.246 434.684C184.926 435.024 185.47 435.511 185.878 436.146C186.286 436.781 186.49 437.608 186.49 438.628C186.49 439.761 186.15 440.747 185.47 441.586C184.812 442.425 183.872 443.082 182.648 443.558C181.424 444.011 179.962 444.238 178.262 444.238ZM209.452 444V440.056L209.35 439.41V432.814C209.35 431.295 208.919 430.128 208.058 429.312C207.219 428.496 205.961 428.088 204.284 428.088C203.128 428.088 202.029 428.281 200.986 428.666C199.943 429.051 199.059 429.561 198.334 430.196L197.246 428.394C198.153 427.623 199.241 427.034 200.51 426.626C201.779 426.195 203.117 425.98 204.522 425.98C206.834 425.98 208.613 426.558 209.86 427.714C211.129 428.847 211.764 430.581 211.764 432.916V444H209.452ZM203.298 444.17C201.961 444.17 200.793 443.955 199.796 443.524C198.821 443.071 198.073 442.459 197.552 441.688C197.031 440.895 196.77 439.988 196.77 438.968C196.77 438.039 196.985 437.2 197.416 436.452C197.869 435.681 198.595 435.069 199.592 434.616C200.612 434.14 201.972 433.902 203.672 433.902H209.826V435.704H203.74C202.017 435.704 200.816 436.01 200.136 436.622C199.479 437.234 199.15 437.993 199.15 438.9C199.15 439.92 199.547 440.736 200.34 441.348C201.133 441.96 202.244 442.266 203.672 442.266C205.032 442.266 206.199 441.96 207.174 441.348C208.171 440.713 208.897 439.807 209.35 438.628L209.894 440.294C209.441 441.473 208.647 442.413 207.514 443.116C206.403 443.819 204.998 444.17 203.298 444.17ZM226.753 425.98C228.203 425.98 229.473 426.263 230.561 426.83C231.671 427.374 232.533 428.213 233.145 429.346C233.779 430.479 234.097 431.907 234.097 433.63V444H231.683V433.868C231.683 431.987 231.207 430.57 230.255 429.618C229.325 428.643 228.011 428.156 226.311 428.156C225.041 428.156 223.931 428.417 222.979 428.938C222.049 429.437 221.324 430.173 220.803 431.148C220.304 432.1 220.055 433.256 220.055 434.616V444H217.641V426.15H219.953V431.046L219.579 430.128C220.145 428.836 221.052 427.827 222.299 427.102C223.545 426.354 225.03 425.98 226.753 425.98ZM247.043 444.17C245.343 444.17 243.813 443.785 242.453 443.014C241.116 442.243 240.062 441.178 239.291 439.818C238.521 438.435 238.135 436.849 238.135 435.058C238.135 433.245 238.521 431.658 239.291 430.298C240.062 428.938 241.116 427.884 242.453 427.136C243.813 426.365 245.343 425.98 247.043 425.98C248.607 425.98 250.001 426.331 251.225 427.034C252.472 427.737 253.458 428.768 254.183 430.128C254.931 431.465 255.305 433.109 255.305 435.058C255.305 436.985 254.943 438.628 254.217 439.988C253.492 441.348 252.506 442.391 251.259 443.116C250.035 443.819 248.63 444.17 247.043 444.17ZM247.213 442.028C248.483 442.028 249.616 441.745 250.613 441.178C251.633 440.589 252.427 439.773 252.993 438.73C253.583 437.665 253.877 436.441 253.877 435.058C253.877 433.653 253.583 432.429 252.993 431.386C252.427 430.343 251.633 429.539 250.613 428.972C249.616 428.383 248.483 428.088 247.213 428.088C245.967 428.088 244.845 428.383 243.847 428.972C242.85 429.539 242.057 430.343 241.467 431.386C240.878 432.429 240.583 433.653 240.583 435.058C240.583 436.441 240.878 437.665 241.467 438.73C242.057 439.773 242.85 440.589 243.847 441.178C244.845 441.745 245.967 442.028 247.213 442.028ZM253.945 444V438.628L254.183 435.024L253.843 431.42V418.772H256.257V444H253.945ZM270.519 444V424.824C270.519 422.92 271.074 421.401 272.185 420.268C273.318 419.112 274.927 418.534 277.013 418.534C277.761 418.534 278.463 418.613 279.121 418.772C279.801 418.931 280.367 419.18 280.821 419.52L279.665 422.716C279.347 422.467 278.985 422.285 278.577 422.172C278.169 422.036 277.749 421.968 277.319 421.968C276.435 421.968 275.766 422.217 275.313 422.716C274.859 423.192 274.633 423.917 274.633 424.892V426.932L274.769 428.836V444H270.519ZM267.527 429.38V425.98H279.631V429.38H267.527ZM282.623 444V425.844H286.873V444H282.623ZM284.765 422.852C283.971 422.852 283.314 422.603 282.793 422.104C282.294 421.605 282.045 421.005 282.045 420.302C282.045 419.577 282.294 418.976 282.793 418.5C283.314 418.001 283.971 417.752 284.765 417.752C285.558 417.752 286.204 417.99 286.703 418.466C287.224 418.919 287.485 419.497 287.485 420.2C287.485 420.948 287.235 421.583 286.737 422.104C286.238 422.603 285.581 422.852 284.765 422.852ZM291.772 444V418.772H296.022V444H291.772ZM309.455 444.238C307.437 444.238 305.669 443.841 304.151 443.048C302.655 442.232 301.487 441.121 300.649 439.716C299.833 438.311 299.425 436.713 299.425 434.922C299.425 433.109 299.821 431.511 300.615 430.128C301.431 428.723 302.541 427.623 303.947 426.83C305.375 426.037 306.995 425.64 308.809 425.64C310.577 425.64 312.152 426.025 313.535 426.796C314.917 427.567 316.005 428.655 316.799 430.06C317.592 431.465 317.989 433.12 317.989 435.024C317.989 435.205 317.977 435.409 317.955 435.636C317.955 435.863 317.943 436.078 317.921 436.282H302.791V433.46H315.677L314.011 434.344C314.033 433.301 313.818 432.383 313.365 431.59C312.911 430.797 312.288 430.173 311.495 429.72C310.724 429.267 309.829 429.04 308.809 429.04C307.766 429.04 306.848 429.267 306.055 429.72C305.284 430.173 304.672 430.808 304.219 431.624C303.788 432.417 303.573 433.358 303.573 434.446V435.126C303.573 436.214 303.822 437.177 304.321 438.016C304.819 438.855 305.522 439.501 306.429 439.954C307.335 440.407 308.378 440.634 309.557 440.634C310.577 440.634 311.495 440.475 312.311 440.158C313.127 439.841 313.852 439.342 314.487 438.662L316.765 441.28C315.949 442.232 314.917 442.969 313.671 443.49C312.447 443.989 311.041 444.238 309.455 444.238ZM327.001 444.238C325.482 444.238 324.02 444.045 322.615 443.66C321.232 443.252 320.133 442.765 319.317 442.198L320.949 438.968C321.765 439.489 322.74 439.92 323.873 440.26C325.006 440.6 326.14 440.77 327.273 440.77C328.61 440.77 329.574 440.589 330.163 440.226C330.775 439.863 331.081 439.376 331.081 438.764C331.081 438.265 330.877 437.891 330.469 437.642C330.061 437.37 329.528 437.166 328.871 437.03C328.214 436.894 327.477 436.769 326.661 436.656C325.868 436.543 325.063 436.395 324.247 436.214C323.454 436.01 322.728 435.727 322.071 435.364C321.414 434.979 320.881 434.469 320.473 433.834C320.065 433.199 319.861 432.361 319.861 431.318C319.861 430.162 320.19 429.165 320.847 428.326C321.504 427.465 322.422 426.807 323.601 426.354C324.802 425.878 326.219 425.64 327.851 425.64C329.075 425.64 330.31 425.776 331.557 426.048C332.804 426.32 333.835 426.705 334.651 427.204L333.019 430.434C332.158 429.913 331.285 429.561 330.401 429.38C329.54 429.176 328.678 429.074 327.817 429.074C326.525 429.074 325.562 429.267 324.927 429.652C324.315 430.037 324.009 430.525 324.009 431.114C324.009 431.658 324.213 432.066 324.621 432.338C325.029 432.61 325.562 432.825 326.219 432.984C326.876 433.143 327.602 433.279 328.395 433.392C329.211 433.483 330.016 433.63 330.809 433.834C331.602 434.038 332.328 434.321 332.985 434.684C333.665 435.024 334.209 435.511 334.617 436.146C335.025 436.781 335.229 437.608 335.229 438.628C335.229 439.761 334.889 440.747 334.209 441.586C333.552 442.425 332.611 443.082 331.387 443.558C330.163 444.011 328.701 444.238 327.001 444.238Z" fill="#010203"/>
<path d="M855.997 32.216C854.077 32.216 852.301 31.904 850.669 31.28C849.061 30.632 847.657 29.732 846.457 28.58C845.281 27.428 844.357 26.072 843.685 24.512C843.037 22.952 842.713 21.248 842.713 19.4C842.713 17.552 843.037 15.848 843.685 14.288C844.357 12.728 845.293 11.372 846.493 10.22C847.693 9.068 849.097 8.18 850.705 7.556C852.337 6.908 854.113 6.584 856.033 6.584C857.953 6.584 859.705 6.884 861.289 7.484C862.897 8.084 864.265 8.996 865.393 10.22L863.737 11.912C862.681 10.856 861.517 10.1 860.245 9.644C858.973 9.188 857.605 8.96 856.141 8.96C854.581 8.96 853.141 9.224 851.821 9.752C850.525 10.256 849.385 10.988 848.401 11.948C847.441 12.884 846.685 13.988 846.133 15.26C845.605 16.508 845.341 17.888 845.341 19.4C845.341 20.888 845.605 22.268 846.133 23.54C846.685 24.812 847.441 25.928 848.401 26.888C849.385 27.824 850.525 28.556 851.821 29.084C853.141 29.588 854.569 29.84 856.105 29.84C857.545 29.84 858.901 29.624 860.173 29.192C861.469 28.76 862.657 28.028 863.737 26.996L865.249 29.012C864.049 30.068 862.645 30.872 861.037 31.424C859.429 31.952 857.749 32.216 855.997 32.216ZM862.693 28.688V19.4H865.249V29.012L862.693 28.688ZM879.557 32.18C877.589 32.18 875.861 31.772 874.373 30.956C872.885 30.116 871.721 28.976 870.881 27.536C870.041 26.072 869.621 24.404 869.621 22.532C869.621 20.66 870.017 19.004 870.809 17.564C871.625 16.124 872.729 14.996 874.121 14.18C875.537 13.34 877.121 12.92 878.873 12.92C880.649 12.92 882.221 13.328 883.589 14.144C884.981 14.936 886.073 16.064 886.865 17.528C887.657 18.968 888.053 20.636 888.053 22.532C888.053 22.652 888.041 22.784 888.017 22.928C888.017 23.048 888.017 23.18 888.017 23.324H871.565V21.416H886.649L885.641 22.172C885.641 20.804 885.341 19.592 884.741 18.536C884.165 17.456 883.373 16.616 882.365 16.016C881.357 15.416 880.193 15.116 878.873 15.116C877.577 15.116 876.413 15.416 875.381 16.016C874.349 16.616 873.545 17.456 872.969 18.536C872.393 19.616 872.105 20.852 872.105 22.244V22.64C872.105 24.08 872.417 25.352 873.041 26.456C873.689 27.536 874.577 28.388 875.705 29.012C876.857 29.612 878.165 29.912 879.629 29.912C880.781 29.912 881.849 29.708 882.833 29.3C883.841 28.892 884.705 28.268 885.425 27.428L886.865 29.084C886.025 30.092 884.969 30.86 883.697 31.388C882.449 31.916 881.069 32.18 879.557 32.18ZM898.511 32.18C896.735 32.18 895.367 31.7 894.407 30.74C893.447 29.78 892.967 28.424 892.967 26.672V8.924H895.523V26.528C895.523 27.632 895.799 28.484 896.351 29.084C896.927 29.684 897.743 29.984 898.799 29.984C899.927 29.984 900.863 29.66 901.607 29.012L902.507 30.848C902.003 31.304 901.391 31.64 900.671 31.856C899.975 32.072 899.255 32.18 898.511 32.18ZM889.583 15.224V13.1H901.283V15.224H889.583ZM926.986 32V27.824L926.878 27.14V20.156C926.878 18.548 926.422 17.312 925.51 16.448C924.622 15.584 923.29 15.152 921.514 15.152C920.29 15.152 919.126 15.356 918.022 15.764C916.918 16.172 915.982 16.712 915.214 17.384L914.062 15.476C915.022 14.66 916.174 14.036 917.518 13.604C918.862 13.148 920.278 12.92 921.766 12.92C924.214 12.92 926.098 13.532 927.418 14.756C928.762 15.956 929.434 17.792 929.434 20.264V32H926.986ZM920.47 32.18C919.054 32.18 917.818 31.952 916.762 31.496C915.73 31.016 914.938 30.368 914.386 29.552C913.834 28.712 913.558 27.752 913.558 26.672C913.558 25.688 913.786 24.8 914.242 24.008C914.722 23.192 915.49 22.544 916.546 22.064C917.626 21.56 919.066 21.308 920.866 21.308H927.382V23.216H920.938C919.114 23.216 917.842 23.54 917.122 24.188C916.426 24.836 916.078 25.64 916.078 26.6C916.078 27.68 916.498 28.544 917.338 29.192C918.178 29.84 919.354 30.164 920.866 30.164C922.306 30.164 923.542 29.84 924.574 29.192C925.63 28.52 926.398 27.56 926.878 26.312L927.454 28.076C926.974 29.324 926.134 30.32 924.934 31.064C923.758 31.808 922.27 32.18 920.47 32.18ZM954.114 32.18C952.458 32.18 950.97 31.808 949.65 31.064C948.33 30.296 947.286 29.192 946.518 27.752C945.75 26.312 945.366 24.572 945.366 22.532C945.366 20.468 945.75 18.728 946.518 17.312C947.31 15.872 948.366 14.78 949.686 14.036C951.006 13.292 952.482 12.92 954.114 12.92C955.914 12.92 957.522 13.328 958.938 14.144C960.378 14.936 961.506 16.052 962.322 17.492C963.138 18.932 963.546 20.612 963.546 22.532C963.546 24.428 963.138 26.108 962.322 27.572C961.506 29.012 960.378 30.14 958.938 30.956C957.522 31.772 955.914 32.18 954.114 32.18ZM944.358 32V5.288H946.914V18.68L946.554 22.496L946.806 26.312V32H944.358ZM953.934 29.912C955.278 29.912 956.478 29.612 957.534 29.012C958.59 28.388 959.43 27.524 960.054 26.42C960.678 25.292 960.99 23.996 960.99 22.532C960.99 21.044 960.678 19.748 960.054 18.644C959.43 17.54 958.59 16.688 957.534 16.088C956.478 15.464 955.278 15.152 953.934 15.152C952.59 15.152 951.378 15.464 950.298 16.088C949.242 16.688 948.402 17.54 947.778 18.644C947.178 19.748 946.878 21.044 946.878 22.532C946.878 23.996 947.178 25.292 947.778 26.42C948.402 27.524 949.242 28.388 950.298 29.012C951.378 29.612 952.59 29.912 953.934 29.912ZM968.037 32V13.1H970.485V18.248L970.233 17.348C970.761 15.908 971.649 14.816 972.897 14.072C974.145 13.304 975.693 12.92 977.541 12.92V15.404C977.445 15.404 977.349 15.404 977.253 15.404C977.157 15.38 977.061 15.368 976.965 15.368C974.973 15.368 973.413 15.98 972.285 17.204C971.157 18.404 970.593 20.12 970.593 22.352V32H968.037ZM991.922 32V27.824L991.814 27.14V20.156C991.814 18.548 991.358 17.312 990.446 16.448C989.558 15.584 988.226 15.152 986.45 15.152C985.226 15.152 984.062 15.356 982.958 15.764C981.854 16.172 980.918 16.712 980.15 17.384L978.998 15.476C979.958 14.66 981.11 14.036 982.454 13.604C983.798 13.148 985.214 12.92 986.702 12.92C989.15 12.92 991.034 13.532 992.354 14.756C993.698 15.956 994.37 17.792 994.37 20.264V32H991.922ZM985.406 32.18C983.99 32.18 982.754 31.952 981.698 31.496C980.666 31.016 979.874 30.368 979.322 29.552C978.77 28.712 978.494 27.752 978.494 26.672C978.494 25.688 978.722 24.8 979.178 24.008C979.658 23.192 980.426 22.544 981.482 22.064C982.562 21.56 984.002 21.308 985.802 21.308H992.318V23.216H985.874C984.05 23.216 982.778 23.54 982.058 24.188C981.362 24.836 981.014 25.64 981.014 26.6C981.014 27.68 981.434 28.544 982.274 29.192C983.114 29.84 984.29 30.164 985.802 30.164C987.242 30.164 988.478 29.84 989.51 29.192C990.566 28.52 991.334 27.56 991.814 26.312L992.39 28.076C991.91 29.324 991.07 30.32 989.87 31.064C988.694 31.808 987.206 32.18 985.406 32.18ZM1010.24 12.92C1011.78 12.92 1013.12 13.22 1014.27 13.82C1015.45 14.396 1016.36 15.284 1017.01 16.484C1017.68 17.684 1018.02 19.196 1018.02 21.02V32H1015.46V21.272C1015.46 19.28 1014.96 17.78 1013.95 16.772C1012.96 15.74 1011.57 15.224 1009.77 15.224C1008.43 15.224 1007.25 15.5 1006.24 16.052C1005.26 16.58 1004.49 17.36 1003.94 18.392C1003.41 19.4 1003.15 20.624 1003.15 22.064V32H1000.59V13.1H1003.04V18.284L1002.64 17.312C1003.24 15.944 1004.2 14.876 1005.52 14.108C1006.84 13.316 1008.42 12.92 1010.24 12.92ZM1031.72 32.18C1029.92 32.18 1028.3 31.772 1026.86 30.956C1025.45 30.14 1024.33 29.012 1023.52 27.572C1022.7 26.108 1022.29 24.428 1022.29 22.532C1022.29 20.612 1022.7 18.932 1023.52 17.492C1024.33 16.052 1025.45 14.936 1026.86 14.144C1028.3 13.328 1029.92 12.92 1031.72 12.92C1033.38 12.92 1034.86 13.292 1036.15 14.036C1037.47 14.78 1038.52 15.872 1039.28 17.312C1040.08 18.728 1040.47 20.468 1040.47 22.532C1040.47 24.572 1040.09 26.312 1039.32 27.752C1038.55 29.192 1037.51 30.296 1036.19 31.064C1034.89 31.808 1033.4 32.18 1031.72 32.18ZM1031.9 29.912C1033.25 29.912 1034.45 29.612 1035.5 29.012C1036.58 28.388 1037.42 27.524 1038.02 26.42C1038.65 25.292 1038.96 23.996 1038.96 22.532C1038.96 21.044 1038.65 19.748 1038.02 18.644C1037.42 17.54 1036.58 16.688 1035.5 16.088C1034.45 15.464 1033.25 15.152 1031.9 15.152C1030.58 15.152 1029.4 15.464 1028.34 16.088C1027.28 16.688 1026.44 17.54 1025.82 18.644C1025.2 19.748 1024.88 21.044 1024.88 22.532C1024.88 23.996 1025.2 25.292 1025.82 26.42C1026.44 27.524 1027.28 28.388 1028.34 29.012C1029.4 29.612 1030.58 29.912 1031.9 29.912ZM1039.03 32V26.312L1039.28 22.496L1038.92 18.68V5.288H1041.48V32H1039.03ZM1055.91 32.18C1053.94 32.18 1052.21 31.772 1050.72 30.956C1049.24 30.116 1048.07 28.976 1047.23 27.536C1046.39 26.072 1045.97 24.404 1045.97 22.532C1045.97 20.66 1046.37 19.004 1047.16 17.564C1047.98 16.124 1049.08 14.996 1050.47 14.18C1051.89 13.34 1053.47 12.92 1055.22 12.92C1057 12.92 1058.57 13.328 1059.94 14.144C1061.33 14.936 1062.42 16.064 1063.22 17.528C1064.01 18.968 1064.4 20.636 1064.4 22.532C1064.4 22.652 1064.39 22.784 1064.37 22.928C1064.37 23.048 1064.37 23.18 1064.37 23.324H1047.92V21.416H1063L1061.99 22.172C1061.99 20.804 1061.69 19.592 1061.09 18.536C1060.52 17.456 1059.72 16.616 1058.72 16.016C1057.71 15.416 1056.54 15.116 1055.22 15.116C1053.93 15.116 1052.76 15.416 1051.73 16.016C1050.7 16.616 1049.9 17.456 1049.32 18.536C1048.74 19.616 1048.46 20.852 1048.46 22.244V22.64C1048.46 24.08 1048.77 25.352 1049.39 26.456C1050.04 27.536 1050.93 28.388 1052.06 29.012C1053.21 29.612 1054.52 29.912 1055.98 29.912C1057.13 29.912 1058.2 29.708 1059.18 29.3C1060.19 28.892 1061.06 28.268 1061.78 27.428L1063.22 29.084C1062.38 30.092 1061.32 30.86 1060.05 31.388C1058.8 31.916 1057.42 32.18 1055.91 32.18ZM1076.41 32.18C1074.61 32.18 1072.99 31.772 1071.55 30.956C1070.13 30.14 1069.02 29.012 1068.2 27.572C1067.39 26.108 1066.98 24.428 1066.98 22.532C1066.98 20.612 1067.39 18.932 1068.2 17.492C1069.02 16.052 1070.13 14.936 1071.55 14.144C1072.99 13.328 1074.61 12.92 1076.41 12.92C1078.07 12.92 1079.54 13.292 1080.84 14.036C1082.16 14.78 1083.2 15.872 1083.97 17.312C1084.76 18.728 1085.16 20.468 1085.16 22.532C1085.16 24.572 1084.77 26.312 1084.01 27.752C1083.24 29.192 1082.19 30.296 1080.87 31.064C1079.58 31.808 1078.09 32.18 1076.41 32.18ZM1076.59 29.912C1077.93 29.912 1079.13 29.612 1080.19 29.012C1081.27 28.388 1082.11 27.524 1082.71 26.42C1083.33 25.292 1083.65 23.996 1083.65 22.532C1083.65 21.044 1083.33 19.748 1082.71 18.644C1082.11 17.54 1081.27 16.688 1080.19 16.088C1079.13 15.464 1077.93 15.152 1076.59 15.152C1075.27 15.152 1074.08 15.464 1073.03 16.088C1071.97 16.688 1071.13 17.54 1070.51 18.644C1069.88 19.748 1069.57 21.044 1069.57 22.532C1069.57 23.996 1069.88 25.292 1070.51 26.42C1071.13 27.524 1071.97 28.388 1073.03 29.012C1074.08 29.612 1075.27 29.912 1076.59 29.912ZM1083.72 32V26.312L1083.97 22.496L1083.61 18.68V5.288H1086.17V32H1083.72ZM786.902 44.8H791.582V70H786.902V44.8ZM773.87 70H769.19V44.8H773.87V70ZM787.262 59.2H773.474V55.204H787.262V59.2ZM802.727 70V48.76H794.375V44.8H815.759V48.76H807.407V70H802.727ZM818.551 70V44.8H822.403L833.419 63.196H831.403L842.239 44.8H846.091L846.127 70H841.699L841.663 51.748H842.599L833.383 67.12H831.295L821.935 51.748H823.015V70H818.551ZM852.214 70V44.8H856.894V66.04H870.07V70H852.214ZM893.77 70V65.824L893.662 65.14V58.156C893.662 56.548 893.206 55.312 892.294 54.448C891.406 53.584 890.074 53.152 888.298 53.152C887.074 53.152 885.91 53.356 884.806 53.764C883.702 54.172 882.766 54.712 881.998 55.384L880.846 53.476C881.806 52.66 882.958 52.036 884.302 51.604C885.646 51.148 887.062 50.92 888.55 50.92C890.998 50.92 892.882 51.532 894.202 52.756C895.546 53.956 896.218 55.792 896.218 58.264V70H893.77ZM887.254 70.18C885.838 70.18 884.602 69.952 883.546 69.496C882.514 69.016 881.722 68.368 881.17 67.552C880.618 66.712 880.342 65.752 880.342 64.672C880.342 63.688 880.57 62.8 881.026 62.008C881.506 61.192 882.274 60.544 883.33 60.064C884.41 59.56 885.85 59.308 887.65 59.308H894.166V61.216H887.722C885.898 61.216 884.626 61.54 883.906 62.188C883.21 62.836 882.862 63.64 882.862 64.6C882.862 65.68 883.282 66.544 884.122 67.192C884.962 67.84 886.138 68.164 887.65 68.164C889.09 68.164 890.326 67.84 891.358 67.192C892.414 66.52 893.182 65.56 893.662 64.312L894.238 66.076C893.758 67.324 892.918 68.32 891.718 69.064C890.542 69.808 889.054 70.18 887.254 70.18ZM912.089 50.92C913.625 50.92 914.969 51.22 916.121 51.82C917.297 52.396 918.209 53.284 918.857 54.484C919.529 55.684 919.865 57.196 919.865 59.02V70H917.309V59.272C917.309 57.28 916.805 55.78 915.797 54.772C914.813 53.74 913.421 53.224 911.621 53.224C910.277 53.224 909.101 53.5 908.093 54.052C907.109 54.58 906.341 55.36 905.789 56.392C905.261 57.4 904.997 58.624 904.997 60.064V70H902.441V51.1H904.889V56.284L904.493 55.312C905.093 53.944 906.053 52.876 907.373 52.108C908.693 51.316 910.265 50.92 912.089 50.92ZM933.573 70.18C931.773 70.18 930.153 69.772 928.713 68.956C927.297 68.14 926.181 67.012 925.365 65.572C924.549 64.108 924.141 62.428 924.141 60.532C924.141 58.612 924.549 56.932 925.365 55.492C926.181 54.052 927.297 52.936 928.713 52.144C930.153 51.328 931.773 50.92 933.573 50.92C935.229 50.92 936.705 51.292 938.001 52.036C939.321 52.78 940.365 53.872 941.133 55.312C941.925 56.728 942.321 58.468 942.321 60.532C942.321 62.572 941.937 64.312 941.169 65.752C940.401 67.192 939.357 68.296 938.037 69.064C936.741 69.808 935.253 70.18 933.573 70.18ZM933.753 67.912C935.097 67.912 936.297 67.612 937.353 67.012C938.433 66.388 939.273 65.524 939.873 64.42C940.497 63.292 940.809 61.996 940.809 60.532C940.809 59.044 940.497 57.748 939.873 56.644C939.273 55.54 938.433 54.688 937.353 54.088C936.297 53.464 935.097 53.152 933.753 53.152C932.433 53.152 931.245 53.464 930.189 54.088C929.133 54.688 928.293 55.54 927.669 56.644C927.045 57.748 926.733 59.044 926.733 60.532C926.733 61.996 927.045 63.292 927.669 64.42C928.293 65.524 929.133 66.388 930.189 67.012C931.245 67.612 932.433 67.912 933.753 67.912ZM940.881 70V64.312L941.133 60.496L940.773 56.68V43.288H943.329V70H940.881ZM958.249 70V44.8H968.617C970.849 44.8 972.757 45.16 974.341 45.88C975.949 46.6 977.185 47.632 978.049 48.976C978.913 50.32 979.345 51.916 979.345 53.764C979.345 55.612 978.913 57.208 978.049 58.552C977.185 59.896 975.949 60.928 974.341 61.648C972.757 62.368 970.849 62.728 968.617 62.728H960.841L962.929 60.532V70H958.249ZM962.929 61.036L960.841 58.768H968.401C970.465 58.768 972.013 58.336 973.045 57.472C974.101 56.584 974.629 55.348 974.629 53.764C974.629 52.156 974.101 50.92 973.045 50.056C972.013 49.192 970.465 48.76 968.401 48.76H960.841L962.929 46.456V61.036ZM983.299 70V44.8H994.315C997.051 44.8 999.451 45.328 1001.51 46.384C1003.58 47.44 1005.19 48.904 1006.34 50.776C1007.49 52.648 1008.07 54.856 1008.07 57.4C1008.07 59.92 1007.49 62.128 1006.34 64.024C1005.19 65.896 1003.58 67.36 1001.51 68.416C999.451 69.472 997.051 70 994.315 70H983.299ZM987.979 66.04H994.099C995.995 66.04 997.627 65.68 998.995 64.96C1000.39 64.24 1001.45 63.232 1002.2 61.936C1002.97 60.64 1003.35 59.128 1003.35 57.4C1003.35 55.648 1002.97 54.136 1002.2 52.864C1001.45 51.568 1000.39 50.56 998.995 49.84C997.627 49.12 995.995 48.76 994.099 48.76H987.979V66.04ZM1016.6 56.392H1029.17V60.352H1016.6V56.392ZM1017 70H1012.32V44.8H1030.72V48.724H1017V70ZM1048.26 70L1039.88 51.1H1042.54L1050.24 68.632H1048.98L1056.8 51.1H1059.32L1050.89 70H1048.26ZM1069.7 70.18C1067.73 70.18 1066 69.772 1064.51 68.956C1063.03 68.116 1061.86 66.976 1061.02 65.536C1060.18 64.072 1059.76 62.404 1059.76 60.532C1059.76 58.66 1060.16 57.004 1060.95 55.564C1061.77 54.124 1062.87 52.996 1064.26 52.18C1065.68 51.34 1067.26 50.92 1069.01 50.92C1070.79 50.92 1072.36 51.328 1073.73 52.144C1075.12 52.936 1076.21 54.064 1077.01 55.528C1077.8 56.968 1078.19 58.636 1078.19 60.532C1078.19 60.652 1078.18 60.784 1078.16 60.928C1078.16 61.048 1078.16 61.18 1078.16 61.324H1061.71V59.416H1076.79L1075.78 60.172C1075.78 58.804 1075.48 57.592 1074.88 56.536C1074.31 55.456 1073.51 54.616 1072.51 54.016C1071.5 53.416 1070.33 53.116 1069.01 53.116C1067.72 53.116 1066.55 53.416 1065.52 54.016C1064.49 54.616 1063.69 55.456 1063.11 56.536C1062.53 57.616 1062.25 58.852 1062.25 60.244V60.64C1062.25 62.08 1062.56 63.352 1063.18 64.456C1063.83 65.536 1064.72 66.388 1065.85 67.012C1067 67.612 1068.31 67.912 1069.77 67.912C1070.92 67.912 1071.99 67.708 1072.97 67.3C1073.98 66.892 1074.85 66.268 1075.57 65.428L1077.01 67.084C1076.17 68.092 1075.11 68.86 1073.84 69.388C1072.59 69.916 1071.21 70.18 1069.7 70.18ZM1082.68 70V51.1H1085.12V56.248L1084.87 55.348C1085.4 53.908 1086.29 52.816 1087.54 52.072C1088.78 51.304 1090.33 50.92 1092.18 50.92V53.404C1092.08 53.404 1091.99 53.404 1091.89 53.404C1091.8 53.38 1091.7 53.368 1091.6 53.368C1089.61 53.368 1088.05 53.98 1086.92 55.204C1085.8 56.404 1085.23 58.12 1085.23 60.352V70H1082.68ZM1101.41 70.18C1099.85 70.18 1098.37 69.964 1096.98 69.532C1095.59 69.076 1094.5 68.512 1093.71 67.84L1094.86 65.824C1095.63 66.4 1096.61 66.904 1097.81 67.336C1099.01 67.744 1100.27 67.948 1101.59 67.948C1103.39 67.948 1104.69 67.672 1105.48 67.12C1106.27 66.544 1106.67 65.788 1106.67 64.852C1106.67 64.156 1106.44 63.616 1105.98 63.232C1105.55 62.824 1104.97 62.524 1104.25 62.332C1103.53 62.116 1102.73 61.936 1101.84 61.792C1100.95 61.648 1100.07 61.48 1099.18 61.288C1098.31 61.096 1097.52 60.82 1096.8 60.46C1096.08 60.076 1095.49 59.56 1095.04 58.912C1094.61 58.264 1094.39 57.4 1094.39 56.32C1094.39 55.288 1094.68 54.364 1095.25 53.548C1095.83 52.732 1096.67 52.096 1097.77 51.64C1098.9 51.16 1100.27 50.92 1101.88 50.92C1103.1 50.92 1104.33 51.088 1105.55 51.424C1106.77 51.736 1107.78 52.156 1108.57 52.684L1107.46 54.736C1106.62 54.16 1105.72 53.752 1104.76 53.512C1103.8 53.248 1102.84 53.116 1101.88 53.116C1100.17 53.116 1098.91 53.416 1098.1 54.016C1097.31 54.592 1096.91 55.336 1096.91 56.248C1096.91 56.968 1097.13 57.532 1097.56 57.94C1098.01 58.348 1098.6 58.672 1099.32 58.912C1100.07 59.128 1100.87 59.308 1101.73 59.452C1102.62 59.596 1103.5 59.776 1104.36 59.992C1105.25 60.184 1106.05 60.46 1106.77 60.82C1107.52 61.156 1108.11 61.648 1108.54 62.296C1108.99 62.92 1109.22 63.748 1109.22 64.78C1109.22 65.884 1108.91 66.844 1108.29 67.66C1107.69 68.452 1106.8 69.076 1105.62 69.532C1104.47 69.964 1103.07 70.18 1101.41 70.18ZM1113.19 70V51.1H1115.75V70H1113.19ZM1114.49 46.924C1113.96 46.924 1113.52 46.744 1113.16 46.384C1112.8 46.024 1112.62 45.592 1112.62 45.088C1112.62 44.584 1112.8 44.164 1113.16 43.828C1113.52 43.468 1113.96 43.288 1114.49 43.288C1115.02 43.288 1115.46 43.456 1115.82 43.792C1116.18 44.128 1116.36 44.548 1116.36 45.052C1116.36 45.58 1116.18 46.024 1115.82 46.384C1115.48 46.744 1115.04 46.924 1114.49 46.924ZM1129.84 70.18C1128.02 70.18 1126.38 69.772 1124.91 68.956C1123.47 68.116 1122.33 66.976 1121.49 65.536C1120.65 64.072 1120.23 62.404 1120.23 60.532C1120.23 58.636 1120.65 56.968 1121.49 55.528C1122.33 54.088 1123.47 52.96 1124.91 52.144C1126.35 51.328 1128 50.92 1129.84 50.92C1131.72 50.92 1133.37 51.328 1134.81 52.144C1136.28 52.96 1137.42 54.088 1138.23 55.528C1139.07 56.968 1139.49 58.636 1139.49 60.532C1139.49 62.404 1139.07 64.072 1138.23 65.536C1137.42 66.976 1136.28 68.116 1134.81 68.956C1133.35 69.772 1131.69 70.18 1129.84 70.18ZM1129.84 67.912C1131.21 67.912 1132.42 67.612 1133.48 67.012C1134.54 66.388 1135.36 65.524 1135.96 64.42C1136.59 63.292 1136.9 61.996 1136.9 60.532C1136.9 59.044 1136.59 57.748 1135.96 56.644C1135.36 55.54 1134.54 54.688 1133.48 54.088C1132.42 53.464 1131.22 53.152 1129.88 53.152C1128.54 53.152 1127.34 53.464 1126.28 54.088C1125.22 54.688 1124.38 55.54 1123.76 56.644C1123.14 57.748 1122.82 59.044 1122.82 60.532C1122.82 61.996 1123.14 63.292 1123.76 64.42C1124.38 65.524 1125.22 66.388 1126.28 67.012C1127.34 67.612 1128.52 67.912 1129.84 67.912ZM1153.64 50.92C1155.17 50.92 1156.52 51.22 1157.67 51.82C1158.85 52.396 1159.76 53.284 1160.41 54.484C1161.08 55.684 1161.41 57.196 1161.41 59.02V70H1158.86V59.272C1158.86 57.28 1158.35 55.78 1157.35 54.772C1156.36 53.74 1154.97 53.224 1153.17 53.224C1151.83 53.224 1150.65 53.5 1149.64 54.052C1148.66 54.58 1147.89 55.36 1147.34 56.392C1146.81 57.4 1146.55 58.624 1146.55 60.064V70H1143.99V51.1H1146.44V56.284L1146.04 55.312C1146.64 53.944 1147.6 52.876 1148.92 52.108C1150.24 51.316 1151.81 50.92 1153.64 50.92Z" fill="#010203"/>
<path d="M356.954 108.843C356.373 107.591 354.886 107.047 353.634 107.628C352.381 108.209 351.837 109.695 352.418 110.948L356.954 108.843ZM380.177 150.681L378.36 152.398L380.177 150.681ZM424.786 180.632L425.813 178.353L424.786 180.632ZM477.244 196.114C478.359 195.3 478.602 193.736 477.787 192.621L464.511 174.455C463.696 173.341 462.132 173.097 461.017 173.912C459.902 174.727 459.659 176.291 460.474 177.406L472.275 193.553L456.128 205.354C455.013 206.169 454.77 207.733 455.585 208.848C456.4 209.962 457.964 210.206 459.078 209.391L477.244 196.114ZM354.686 109.896C352.418 110.948 352.418 110.948 352.418 110.948C352.418 110.949 352.419 110.949 352.419 110.95C352.419 110.951 352.42 110.952 352.421 110.954C352.423 110.958 352.425 110.964 352.429 110.971C352.435 110.985 352.445 111.006 352.458 111.033C352.483 111.087 352.52 111.167 352.569 111.271C352.667 111.478 352.811 111.781 352.999 112.171C353.373 112.951 353.922 114.077 354.619 115.469C356.014 118.252 358.009 122.106 360.412 126.392C365.19 134.913 371.686 145.337 378.36 152.398L381.994 148.963C375.766 142.375 369.517 132.406 364.774 123.947C362.417 119.743 360.458 115.96 359.089 113.229C358.405 111.864 357.869 110.763 357.505 110.005C357.323 109.626 357.184 109.334 357.091 109.137C357.045 109.038 357.01 108.964 356.987 108.914C356.975 108.89 356.967 108.871 356.961 108.86C356.958 108.854 356.956 108.849 356.955 108.847C356.954 108.845 356.954 108.844 356.954 108.844C356.954 108.844 356.954 108.843 356.954 108.843C356.954 108.843 356.954 108.843 354.686 109.896ZM378.36 152.398C393.089 167.981 404.481 174.229 423.76 182.912L425.813 178.353C406.827 169.802 396.093 163.879 381.994 148.963L378.36 152.398ZM423.76 182.912C433.394 187.251 446.349 190.66 456.777 192.976C462.015 194.139 466.66 195.035 469.996 195.641C471.665 195.944 473.008 196.175 473.936 196.33C474.4 196.408 474.76 196.466 475.005 196.506C475.127 196.526 475.221 196.541 475.285 196.551C475.317 196.556 475.341 196.56 475.358 196.562C475.366 196.563 475.373 196.564 475.377 196.565C475.379 196.566 475.381 196.566 475.382 196.566C475.383 196.566 475.384 196.566 475.384 196.566C475.384 196.566 475.385 196.566 475.769 194.096C476.153 191.626 476.153 191.626 476.153 191.626C476.153 191.626 476.153 191.626 476.152 191.626C476.151 191.626 476.15 191.625 476.149 191.625C476.145 191.625 476.14 191.624 476.133 191.623C476.118 191.62 476.096 191.617 476.066 191.612C476.007 191.603 475.918 191.589 475.8 191.57C475.564 191.532 475.214 191.474 474.761 191.399C473.854 191.247 472.534 191.02 470.89 190.722C467.601 190.124 463.021 189.241 457.861 188.095C447.491 185.792 434.955 182.47 425.813 178.353L423.76 182.912Z" fill="black"/>
<path d="M403.119 283.802L404.046 286.124L403.119 283.802ZM461.589 257.772C461.995 256.452 461.254 255.053 459.934 254.647L438.428 248.034C437.108 247.629 435.709 248.369 435.304 249.689C434.898 251.009 435.639 252.408 436.958 252.814L456.075 258.692L450.197 277.808C449.791 279.128 450.532 280.527 451.852 280.933C453.172 281.338 454.57 280.598 454.976 279.278L461.589 257.772ZM308.573 305.22C307.203 305.384 306.224 306.629 306.389 308C306.553 309.371 307.798 310.349 309.169 310.184L308.573 305.22ZM358.51 299.097L359.137 301.517L358.51 299.097ZM404.046 286.124C415.414 281.585 429.509 274.856 440.723 269.284C446.339 266.493 451.248 263.985 454.753 262.175C456.506 261.269 457.909 260.538 458.874 260.032C459.356 259.78 459.73 259.584 459.982 259.45C460.109 259.384 460.205 259.333 460.27 259.299C460.303 259.281 460.327 259.268 460.344 259.26C460.352 259.255 460.359 259.252 460.363 259.25C460.365 259.248 460.367 259.248 460.368 259.247C460.368 259.247 460.369 259.246 460.369 259.246C460.369 259.246 460.37 259.246 459.199 257.037C458.029 254.828 458.029 254.828 458.029 254.828C458.029 254.828 458.029 254.828 458.028 254.828C458.027 254.829 458.026 254.829 458.024 254.83C458.02 254.833 458.014 254.836 458.006 254.84C457.99 254.848 457.967 254.861 457.935 254.877C457.872 254.911 457.777 254.961 457.652 255.027C457.403 255.158 457.033 255.352 456.554 255.603C455.597 256.104 454.203 256.831 452.459 257.732C448.971 259.534 444.086 262.03 438.498 264.806C427.306 270.367 413.361 277.021 402.192 281.481L404.046 286.124ZM308.871 307.702C309.169 310.184 309.169 310.184 309.169 310.184C309.17 310.184 309.17 310.184 309.171 310.184C309.172 310.184 309.173 310.184 309.175 310.184C309.179 310.183 309.185 310.182 309.193 310.181C309.208 310.18 309.231 310.177 309.261 310.173C309.32 310.166 309.408 310.155 309.524 310.141C309.755 310.113 310.096 310.071 310.535 310.015C311.414 309.905 312.689 309.741 314.279 309.53C317.457 309.107 321.892 308.492 326.927 307.722C336.971 306.185 349.485 304.019 359.137 301.517L357.882 296.677C348.489 299.112 336.184 301.248 326.17 302.779C321.176 303.544 316.773 304.154 313.619 304.574C312.043 304.783 310.779 304.945 309.911 305.054C309.476 305.109 309.141 305.151 308.915 305.178C308.802 305.192 308.716 305.203 308.658 305.21C308.63 305.213 308.608 305.216 308.594 305.217C308.587 305.218 308.582 305.219 308.578 305.219C308.576 305.22 308.575 305.22 308.574 305.22C308.574 305.22 308.574 305.22 308.574 305.22C308.573 305.22 308.573 305.22 308.871 307.702ZM359.137 301.517C377.125 296.855 386.926 292.96 404.046 286.124L402.192 281.481C385.105 288.304 375.549 292.098 357.882 296.677L359.137 301.517Z" fill="black"/>
<path d="M737.742 174.932C736.822 175.961 736.91 177.542 737.939 178.462C738.968 179.383 740.548 179.295 741.469 178.266L737.742 174.932ZM761.336 158.705L762.407 160.965L761.336 158.705ZM800.451 154.98L800.112 157.457L800.451 154.98ZM835.345 169.782C836.662 169.369 837.395 167.966 836.982 166.649L830.249 145.18C829.836 143.862 828.433 143.129 827.116 143.542C825.799 143.955 825.065 145.358 825.479 146.676L831.463 165.759L812.379 171.744C811.062 172.157 810.329 173.56 810.742 174.877C811.155 176.195 812.558 176.928 813.876 176.515L835.345 169.782ZM739.606 176.599C741.469 178.266 741.469 178.266 741.469 178.266C741.469 178.266 741.469 178.266 741.469 178.266C741.469 178.266 741.469 178.266 741.47 178.265C741.47 178.264 741.472 178.262 741.474 178.26C741.479 178.255 741.487 178.246 741.497 178.235C741.517 178.212 741.549 178.177 741.591 178.131C741.675 178.038 741.802 177.9 741.967 177.72C742.299 177.362 742.787 176.841 743.405 176.199C744.642 174.914 746.392 173.154 748.445 171.25C752.606 167.394 757.805 163.145 762.407 160.965L760.266 156.446C754.933 158.973 749.267 163.67 745.046 167.584C742.908 169.566 741.089 171.396 739.803 172.731C739.16 173.399 738.649 173.945 738.296 174.326C738.12 174.516 737.984 174.665 737.89 174.768C737.844 174.82 737.808 174.86 737.783 174.887C737.771 174.901 737.761 174.912 737.754 174.919C737.751 174.923 737.748 174.926 737.746 174.928C737.745 174.929 737.744 174.93 737.744 174.931C737.743 174.931 737.743 174.931 737.743 174.932C737.743 174.932 737.742 174.932 739.606 176.599ZM762.407 160.965C775.588 154.72 785.019 155.396 800.112 157.457L800.789 152.503C785.476 150.412 774.818 149.552 760.266 156.446L762.407 160.965ZM800.112 157.457C806.796 158.37 815.078 161.362 821.823 164.211C825.166 165.624 828.077 166.978 830.152 167.978C831.189 168.478 832.016 168.889 832.581 169.174C832.863 169.317 833.08 169.427 833.225 169.502C833.298 169.539 833.352 169.568 833.388 169.586C833.406 169.595 833.419 169.602 833.428 169.607C833.432 169.609 833.435 169.611 833.437 169.611C833.438 169.612 833.439 169.612 833.439 169.612C833.439 169.613 833.439 169.613 833.439 169.613C833.439 169.613 833.439 169.612 834.597 167.397C835.754 165.181 835.754 165.181 835.754 165.181C835.754 165.181 835.753 165.18 835.753 165.18C835.752 165.18 835.75 165.179 835.749 165.178C835.746 165.177 835.742 165.174 835.736 165.171C835.725 165.166 835.709 165.158 835.689 165.147C835.648 165.126 835.588 165.095 835.51 165.055C835.354 164.975 835.126 164.858 834.831 164.71C834.243 164.413 833.39 163.989 832.324 163.475C830.193 162.447 827.205 161.057 823.769 159.606C816.955 156.727 808.164 153.51 800.789 152.503L800.112 157.457Z" fill="black"/>
<path d="M745.456 254.593C744.404 253.699 742.826 253.828 741.933 254.88C741.039 255.932 741.167 257.51 742.219 258.404L745.456 254.593ZM799.715 295.207L800.803 292.956L799.715 295.207ZM854.35 313.212L853.655 315.613L854.35 313.212ZM911.469 327.491L912.054 325.061L911.469 327.491ZM964.953 341.732C966.122 340.996 966.472 339.452 965.736 338.284L953.746 319.245C953.011 318.076 951.467 317.726 950.299 318.462C949.13 319.197 948.78 320.741 949.516 321.909L960.173 338.833L943.25 349.491C942.081 350.226 941.731 351.77 942.466 352.938C943.202 354.107 944.746 354.457 945.914 353.722L964.953 341.732ZM743.838 256.499C742.219 258.404 742.22 258.404 742.22 258.404C742.22 258.405 742.221 258.405 742.221 258.406C742.223 258.407 742.224 258.408 742.226 258.41C742.231 258.413 742.237 258.419 742.245 258.426C742.261 258.439 742.285 258.46 742.317 258.486C742.38 258.539 742.472 258.618 742.594 258.72C742.838 258.925 743.196 259.225 743.661 259.611C744.589 260.383 745.94 261.496 747.635 262.867C751.024 265.608 755.793 269.383 761.313 273.523C772.318 281.773 786.447 291.573 798.628 297.458L800.803 292.956C789.08 287.293 775.271 277.739 764.313 269.522C758.852 265.428 754.133 261.691 750.78 258.979C749.103 257.623 747.77 256.524 746.856 255.765C746.399 255.386 746.048 255.091 745.811 254.893C745.693 254.793 745.604 254.718 745.544 254.667C745.514 254.642 745.492 254.623 745.477 254.611C745.47 254.605 745.465 254.6 745.461 254.597C745.459 254.596 745.458 254.595 745.457 254.594C745.457 254.594 745.457 254.593 745.456 254.593C745.456 254.593 745.456 254.593 743.838 256.499ZM798.628 297.458C819.108 307.352 832.31 309.427 853.655 315.613L855.046 310.81C833.237 304.49 820.779 302.606 800.803 292.956L798.628 297.458ZM853.655 315.613C875.812 322.034 888.607 324.557 910.884 329.922L912.054 325.061C889.624 319.659 877.057 317.189 855.046 310.81L853.655 315.613ZM910.884 329.922C921.061 332.372 934.109 335.406 944.607 337.826C949.857 339.036 954.472 340.093 957.774 340.847C959.425 341.224 960.748 341.526 961.659 341.733C962.114 341.837 962.466 341.917 962.704 341.971C962.823 341.999 962.914 342.019 962.975 342.033C963.005 342.04 963.028 342.045 963.044 342.049C963.052 342.05 963.057 342.052 963.061 342.053C963.063 342.053 963.065 342.053 963.066 342.054C963.066 342.054 963.067 342.054 963.067 342.054C963.067 342.054 963.067 342.054 963.621 339.616C964.175 337.178 964.175 337.178 964.174 337.178C964.174 337.178 964.174 337.178 964.173 337.178C964.172 337.178 964.171 337.177 964.169 337.177C964.165 337.176 964.16 337.175 964.152 337.173C964.137 337.17 964.114 337.164 964.083 337.157C964.023 337.144 963.932 337.123 963.813 337.096C963.575 337.042 963.224 336.962 962.769 336.858C961.86 336.651 960.538 336.35 958.888 335.973C955.588 335.219 950.976 334.163 945.73 332.953C935.234 330.534 922.206 327.505 912.054 325.061L910.884 329.922Z" fill="black"/>
<defs>
<filter id="filter0_d_1329_141" x="465.996" y="114.522" width="265.551" height="186" filterUnits="userSpaceOnUse" color-interpolation-filters="sRGB">
<feFlood flood-opacity="0" result="BackgroundImageFix"/>
<feColorMatrix in="SourceAlpha" type="matrix" values="0 0 0 0 0 0 0 0 0 0 0 0 0 0 0 0 0 0 127 0" result="hardAlpha"/>
<feOffset dx="-8" dy="8"/>
<feGaussianBlur stdDeviation="12.5"/>
<feComposite in2="hardAlpha" operator="out"/>
<feColorMatrix type="matrix" values="0 0 0 0 0 0 0 0 0 0 0 0 0 0 0 0 0 0 0.35 0"/>
<feBlend mode="normal" in2="BackgroundImageFix" result="effect1_dropShadow_1329_141"/>
<feBlend mode="normal" in="SourceGraphic" in2="effect1_dropShadow_1329_141" result="shape"/>
</filter>
<filter id="filter1_d_1329_141" x="854.383" y="117.59" width="130.611" height="159.998" filterUnits="userSpaceOnUse" color-interpolation-filters="sRGB">
<feFlood flood-opacity="0" result="BackgroundImageFix"/>
<feColorMatrix in="SourceAlpha" type="matrix" values="0 0 0 0 0 0 0 0 0 0 0 0 0 0 0 0 0 0 127 0" result="hardAlpha"/>
<feOffset dx="-6" dy="6"/>
<feGaussianBlur stdDeviation="7.5"/>
<feComposite in2="hardAlpha" operator="out"/>
<feColorMatrix type="matrix" values="0 0 0 0 0 0 0 0 0 0 0 0 0 0 0 0 0 0 0.3 0"/>
<feBlend mode="normal" in2="BackgroundImageFix" result="effect1_dropShadow_1329_141"/>
<feBlend mode="normal" in="SourceGraphic" in2="effect1_dropShadow_1329_141" result="shape"/>
</filter>
<filter id="filter2_d_1329_141" x="942.744" y="124.59" width="35.25" height="36.1372" filterUnits="userSpaceOnUse" color-interpolation-filters="sRGB">
<feFlood flood-opacity="0" result="BackgroundImageFix"/>
<feColorMatrix in="SourceAlpha" type="matrix" values="0 0 0 0 0 0 0 0 0 0 0 0 0 0 0 0 0 0 127 0" result="hardAlpha"/>
<feOffset dx="-1" dy="1"/>
<feGaussianBlur stdDeviation="1.5"/>
<feComposite in2="hardAlpha" operator="out"/>
<feColorMatrix type="matrix" values="0 0 0 0 0 0 0 0 0 0 0 0 0 0 0 0 0 0 0.3 0"/>
<feBlend mode="normal" in2="BackgroundImageFix" result="effect1_dropShadow_1329_141"/>
<feBlend mode="normal" in="SourceGraphic" in2="effect1_dropShadow_1329_141" result="shape"/>
</filter>
<filter id="filter3_d_1329_141" x="996.47" y="258.436" width="130.611" height="159.998" filterUnits="userSpaceOnUse" color-interpolation-filters="sRGB">
<feFlood flood-opacity="0" result="BackgroundImageFix"/>
<feColorMatrix in="SourceAlpha" type="matrix" values="0 0 0 0 0 0 0 0 0 0 0 0 0 0 0 0 0 0 127 0" result="hardAlpha"/>
<feOffset dx="-6" dy="6"/>
<feGaussianBlur stdDeviation="7.5"/>
<feComposite in2="hardAlpha" operator="out"/>
<feColorMatrix type="matrix" values="0 0 0 0 0 0 0 0 0 0 0 0 0 0 0 0 0 0 0.3 0"/>
<feBlend mode="normal" in2="BackgroundImageFix" result="effect1_dropShadow_1329_141"/>
<feBlend mode="normal" in="SourceGraphic" in2="effect1_dropShadow_1329_141" result="shape"/>
</filter>
<filter id="filter4_d_1329_141" x="1084.83" y="265.436" width="35.2505" height="36.1372" filterUnits="userSpaceOnUse" color-interpolation-filters="sRGB">
<feFlood flood-opacity="0" result="BackgroundImageFix"/>
<feColorMatrix in="SourceAlpha" type="matrix" values="0 0 0 0 0 0 0 0 0 0 0 0 0 0 0 0 0 0 127 0" result="hardAlpha"/>
<feOffset dx="-1" dy="1"/>
<feGaussianBlur stdDeviation="1.5"/>
<feComposite in2="hardAlpha" operator="out"/>
<feColorMatrix type="matrix" values="0 0 0 0 0 0 0 0 0 0 0 0 0 0 0 0 0 0 0.3 0"/>
<feBlend mode="normal" in2="BackgroundImageFix" result="effect1_dropShadow_1329_141"/>
<feBlend mode="normal" in="SourceGraphic" in2="effect1_dropShadow_1329_141" result="shape"/>
</filter>
<filter id="filter5_d_1329_141" x="216.51" y="17.73" width="130.611" height="159.998" filterUnits="userSpaceOnUse" color-interpolation-filters="sRGB">
<feFlood flood-opacity="0" result="BackgroundImageFix"/>
<feColorMatrix in="SourceAlpha" type="matrix" values="0 0 0 0 0 0 0 0 0 0 0 0 0 0 0 0 0 0 127 0" result="hardAlpha"/>
<feOffset dx="-6" dy="6"/>
<feGaussianBlur stdDeviation="7.5"/>
<feComposite in2="hardAlpha" operator="out"/>
<feColorMatrix type="matrix" values="0 0 0 0 0 0 0 0 0 0 0 0 0 0 0 0 0 0 0.3 0"/>
<feBlend mode="normal" in2="BackgroundImageFix" result="effect1_dropShadow_1329_141"/>
<feBlend mode="normal" in="SourceGraphic" in2="effect1_dropShadow_1329_141" result="shape"/>
</filter>
<filter id="filter6_d_1329_141" x="304.871" y="24.73" width="35.25" height="36.1372" filterUnits="userSpaceOnUse" color-interpolation-filters="sRGB">
<feFlood flood-opacity="0" result="BackgroundImageFix"/>
<feColorMatrix in="SourceAlpha" type="matrix" values="0 0 0 0 0 0 0 0 0 0 0 0 0 0 0 0 0 0 127 0" result="hardAlpha"/>
<feOffset dx="-1" dy="1"/>
<feGaussianBlur stdDeviation="1.5"/>
<feComposite in2="hardAlpha" operator="out"/>
<feColorMatrix type="matrix" values="0 0 0 0 0 0 0 0 0 0 0 0 0 0 0 0 0 0 0.3 0"/>
<feBlend mode="normal" in2="BackgroundImageFix" result="effect1_dropShadow_1329_141"/>
<feBlend mode="normal" in="SourceGraphic" in2="effect1_dropShadow_1329_141" result="shape"/>
</filter>
<filter id="filter7_d_1329_141" x="190.517" y="255.64" width="80.3496" height="97.9766" filterUnits="userSpaceOnUse" color-interpolation-filters="sRGB">
<feFlood flood-opacity="0" result="BackgroundImageFix"/>
<feColorMatrix in="SourceAlpha" type="matrix" values="0 0 0 0 0 0 0 0 0 0 0 0 0 0 0 0 0 0 127 0" result="hardAlpha"/>
<feOffset dx="-4" dy="4"/>
<feGaussianBlur stdDeviation="5"/>
<feComposite in2="hardAlpha" operator="out"/>
<feColorMatrix type="matrix" values="0 0 0 0 0 0 0 0 0 0 0 0 0 0 0 0 0 0 0.25 0"/>
<feBlend mode="normal" in2="BackgroundImageFix" result="effect1_dropShadow_1329_141"/>
<feBlend mode="normal" in="SourceGraphic" in2="effect1_dropShadow_1329_141" result="shape"/>
</filter>
<filter id="filter8_d_1329_141" x="243.321" y="259.64" width="23.5449" height="24.0771" filterUnits="userSpaceOnUse" color-interpolation-filters="sRGB">
<feFlood flood-opacity="0" result="BackgroundImageFix"/>
<feColorMatrix in="SourceAlpha" type="matrix" values="0 0 0 0 0 0 0 0 0 0 0 0 0 0 0 0 0 0 127 0" result="hardAlpha"/>
<feOffset dx="-1" dy="1"/>
<feGaussianBlur stdDeviation="1.5"/>
<feComposite in2="hardAlpha" operator="out"/>
<feColorMatrix type="matrix" values="0 0 0 0 0 0 0 0 0 0 0 0 0 0 0 0 0 0 0.3 0"/>
<feBlend mode="normal" in2="BackgroundImageFix" result="effect1_dropShadow_1329_141"/>
<feBlend mode="normal" in="SourceGraphic" in2="effect1_dropShadow_1329_141" result="shape"/>
</filter>
<filter id="filter9_d_1329_141" x="94.1709" y="255.639" width="80.3496" height="97.9766" filterUnits="userSpaceOnUse" color-interpolation-filters="sRGB">
<feFlood flood-opacity="0" result="BackgroundImageFix"/>
<feColorMatrix in="SourceAlpha" type="matrix" values="0 0 0 0 0 0 0 0 0 0 0 0 0 0 0 0 0 0 127 0" result="hardAlpha"/>
<feOffset dx="-4" dy="4"/>
<feGaussianBlur stdDeviation="5"/>
<feComposite in2="hardAlpha" operator="out"/>
<feColorMatrix type="matrix" values="0 0 0 0 0 0 0 0 0 0 0 0 0 0 0 0 0 0 0.25 0"/>
<feBlend mode="normal" in2="BackgroundImageFix" result="effect1_dropShadow_1329_141"/>
<feBlend mode="normal" in="SourceGraphic" in2="effect1_dropShadow_1329_141" result="shape"/>
</filter>
<filter id="filter10_d_1329_141" x="146.974" y="259.639" width="23.5449" height="24.0771" filterUnits="userSpaceOnUse" color-interpolation-filters="sRGB">
<feFlood flood-opacity="0" result="BackgroundImageFix"/>
<feColorMatrix in="SourceAlpha" type="matrix" values="0 0 0 0 0 0 0 0 0 0 0 0 0 0 0 0 0 0 127 0" result="hardAlpha"/>
<feOffset dx="-1" dy="1"/>
<feGaussianBlur stdDeviation="1.5"/>
<feComposite in2="hardAlpha" operator="out"/>
<feColorMatrix type="matrix" values="0 0 0 0 0 0 0 0 0 0 0 0 0 0 0 0 0 0 0.3 0"/>
<feBlend mode="normal" in2="BackgroundImageFix" result="effect1_dropShadow_1329_141"/>
<feBlend mode="normal" in="SourceGraphic" in2="effect1_dropShadow_1329_141" result="shape"/>
</filter>
</defs>
</svg>
