<svg width="60" height="58" viewBox="0 0 60 58" fill="none" xmlns="http://www.w3.org/2000/svg">
<path fill-rule="evenodd" clip-rule="evenodd" d="M21.5237 1.9204C22.65 1.27136 23.9271 0.929688 25.2271 0.929688C26.5272 0.929688 27.8044 1.27138 28.9308 1.92048L28.9359 1.92345L46.2436 11.8135C47.1578 12.3413 47.9463 13.0566 48.5586 13.9093C48.7088 14.059 48.8416 14.2306 48.9529 14.4227C49.0486 14.5884 49.1231 14.7605 49.1772 14.9359C49.685 15.9576 49.9513 17.0846 49.9524 18.2297V38.015C49.9509 39.3157 49.6075 40.5934 48.9566 41.7193C48.3057 42.8457 47.37 43.7807 46.2436 44.4312L46.234 44.4368L28.9359 54.321L28.9315 54.3236C28.1471 54.7757 27.2896 55.0791 26.4021 55.2211C26.0526 55.4103 25.6524 55.5178 25.2271 55.5178C24.8019 55.5178 24.4017 55.4103 24.0522 55.2211C23.1648 55.0791 22.3073 54.7761 21.5229 54.324L21.5184 54.321L4.2203 44.4368L4.21073 44.4312C3.08423 43.7807 2.14858 42.8457 1.49761 41.7193C0.846647 40.5934 0.503288 39.3157 0.501953 38.015V18.2297C0.50314 17.0828 0.770209 15.954 1.27957 14.9311C1.33339 14.7573 1.40734 14.5869 1.50228 14.4227C1.61262 14.232 1.7445 14.0615 1.89312 13.9126C2.5061 13.0585 3.29544 12.342 4.21073 11.8135L4.22026 11.808L21.5237 1.9204ZM27.6997 49.3323L43.771 40.1487L43.775 40.1464C44.1485 39.9295 44.4593 39.6187 44.6755 39.2448C44.8925 38.8691 45.0067 38.4434 45.0075 38.0098V19.5615L27.6997 29.5734V49.3323ZM22.7546 29.5729V49.3323L6.68326 40.1487L6.67937 40.1464C6.3056 39.9295 5.99513 39.6187 5.77888 39.2448C5.56206 38.8695 5.44764 38.4441 5.44698 38.0109V19.561L22.7546 29.5729ZM26.4634 6.20602L42.4384 15.3347L25.2276 25.2906L8.01616 15.3344L23.9813 6.21147L23.9909 6.20598C24.3667 5.98898 24.7931 5.87471 25.2271 5.87471C25.6611 5.87471 26.0875 5.98898 26.4634 6.20602Z" fill="#010203" stroke="white" stroke-width="0.5"/>
<path d="M47.5638 32.936C40.7396 32.936 35.2012 38.4745 35.2012 45.2986C35.2012 52.1228 40.7396 57.6612 47.5638 57.6612C54.3879 57.6612 59.9264 52.1228 59.9264 45.2986C59.9264 38.4745 54.3879 32.936 47.5638 32.936Z" fill="white"/>
<path d="M47.5947 52.6655V38.5047" stroke="#2E71E5" stroke-width="3" stroke-linecap="square"/>
<path d="M54.6719 45.5845L40.5111 45.5845" stroke="#2E71E5" stroke-width="3" stroke-linecap="square"/>
</svg>
